%TF.GenerationSoftware,KiCad,Pcbnew,(5.1.12)-1*%
%TF.CreationDate,2023-12-01T15:42:45+05:30*%
%TF.ProjectId,DCCB PCB-V3,44434342-2050-4434-922d-56332e6b6963,rev?*%
%TF.SameCoordinates,Original*%
%TF.FileFunction,Paste,Top*%
%TF.FilePolarity,Positive*%
%FSLAX46Y46*%
G04 Gerber Fmt 4.6, Leading zero omitted, Abs format (unit mm)*
G04 Created by KiCad (PCBNEW (5.1.12)-1) date 2023-12-01 15:42:45*
%MOMM*%
%LPD*%
G01*
G04 APERTURE LIST*
%ADD10R,2.500000X1.600000*%
%ADD11R,1.850000X0.650000*%
G04 APERTURE END LIST*
%TO.C,R11*%
G36*
G01*
X77695000Y-103402500D02*
X77695000Y-103877500D01*
G75*
G02*
X77457500Y-104115000I-237500J0D01*
G01*
X76957500Y-104115000D01*
G75*
G02*
X76720000Y-103877500I0J237500D01*
G01*
X76720000Y-103402500D01*
G75*
G02*
X76957500Y-103165000I237500J0D01*
G01*
X77457500Y-103165000D01*
G75*
G02*
X77695000Y-103402500I0J-237500D01*
G01*
G37*
G36*
G01*
X79520000Y-103402500D02*
X79520000Y-103877500D01*
G75*
G02*
X79282500Y-104115000I-237500J0D01*
G01*
X78782500Y-104115000D01*
G75*
G02*
X78545000Y-103877500I0J237500D01*
G01*
X78545000Y-103402500D01*
G75*
G02*
X78782500Y-103165000I237500J0D01*
G01*
X79282500Y-103165000D01*
G75*
G02*
X79520000Y-103402500I0J-237500D01*
G01*
G37*
%TD*%
%TO.C,R10*%
G36*
G01*
X77695000Y-101162500D02*
X77695000Y-101637500D01*
G75*
G02*
X77457500Y-101875000I-237500J0D01*
G01*
X76957500Y-101875000D01*
G75*
G02*
X76720000Y-101637500I0J237500D01*
G01*
X76720000Y-101162500D01*
G75*
G02*
X76957500Y-100925000I237500J0D01*
G01*
X77457500Y-100925000D01*
G75*
G02*
X77695000Y-101162500I0J-237500D01*
G01*
G37*
G36*
G01*
X79520000Y-101162500D02*
X79520000Y-101637500D01*
G75*
G02*
X79282500Y-101875000I-237500J0D01*
G01*
X78782500Y-101875000D01*
G75*
G02*
X78545000Y-101637500I0J237500D01*
G01*
X78545000Y-101162500D01*
G75*
G02*
X78782500Y-100925000I237500J0D01*
G01*
X79282500Y-100925000D01*
G75*
G02*
X79520000Y-101162500I0J-237500D01*
G01*
G37*
%TD*%
%TO.C,R7*%
G36*
G01*
X77025000Y-77362500D02*
X77025000Y-77837500D01*
G75*
G02*
X76787500Y-78075000I-237500J0D01*
G01*
X76287500Y-78075000D01*
G75*
G02*
X76050000Y-77837500I0J237500D01*
G01*
X76050000Y-77362500D01*
G75*
G02*
X76287500Y-77125000I237500J0D01*
G01*
X76787500Y-77125000D01*
G75*
G02*
X77025000Y-77362500I0J-237500D01*
G01*
G37*
G36*
G01*
X78850000Y-77362500D02*
X78850000Y-77837500D01*
G75*
G02*
X78612500Y-78075000I-237500J0D01*
G01*
X78112500Y-78075000D01*
G75*
G02*
X77875000Y-77837500I0J237500D01*
G01*
X77875000Y-77362500D01*
G75*
G02*
X78112500Y-77125000I237500J0D01*
G01*
X78612500Y-77125000D01*
G75*
G02*
X78850000Y-77362500I0J-237500D01*
G01*
G37*
%TD*%
%TO.C,R6*%
G36*
G01*
X77025000Y-75262500D02*
X77025000Y-75737500D01*
G75*
G02*
X76787500Y-75975000I-237500J0D01*
G01*
X76287500Y-75975000D01*
G75*
G02*
X76050000Y-75737500I0J237500D01*
G01*
X76050000Y-75262500D01*
G75*
G02*
X76287500Y-75025000I237500J0D01*
G01*
X76787500Y-75025000D01*
G75*
G02*
X77025000Y-75262500I0J-237500D01*
G01*
G37*
G36*
G01*
X78850000Y-75262500D02*
X78850000Y-75737500D01*
G75*
G02*
X78612500Y-75975000I-237500J0D01*
G01*
X78112500Y-75975000D01*
G75*
G02*
X77875000Y-75737500I0J237500D01*
G01*
X77875000Y-75262500D01*
G75*
G02*
X78112500Y-75025000I237500J0D01*
G01*
X78612500Y-75025000D01*
G75*
G02*
X78850000Y-75262500I0J-237500D01*
G01*
G37*
%TD*%
%TO.C,R5*%
G36*
G01*
X77885000Y-130562500D02*
X77885000Y-131037500D01*
G75*
G02*
X77647500Y-131275000I-237500J0D01*
G01*
X77147500Y-131275000D01*
G75*
G02*
X76910000Y-131037500I0J237500D01*
G01*
X76910000Y-130562500D01*
G75*
G02*
X77147500Y-130325000I237500J0D01*
G01*
X77647500Y-130325000D01*
G75*
G02*
X77885000Y-130562500I0J-237500D01*
G01*
G37*
G36*
G01*
X79710000Y-130562500D02*
X79710000Y-131037500D01*
G75*
G02*
X79472500Y-131275000I-237500J0D01*
G01*
X78972500Y-131275000D01*
G75*
G02*
X78735000Y-131037500I0J237500D01*
G01*
X78735000Y-130562500D01*
G75*
G02*
X78972500Y-130325000I237500J0D01*
G01*
X79472500Y-130325000D01*
G75*
G02*
X79710000Y-130562500I0J-237500D01*
G01*
G37*
%TD*%
%TO.C,R4*%
G36*
G01*
X77885000Y-128322500D02*
X77885000Y-128797500D01*
G75*
G02*
X77647500Y-129035000I-237500J0D01*
G01*
X77147500Y-129035000D01*
G75*
G02*
X76910000Y-128797500I0J237500D01*
G01*
X76910000Y-128322500D01*
G75*
G02*
X77147500Y-128085000I237500J0D01*
G01*
X77647500Y-128085000D01*
G75*
G02*
X77885000Y-128322500I0J-237500D01*
G01*
G37*
G36*
G01*
X79710000Y-128322500D02*
X79710000Y-128797500D01*
G75*
G02*
X79472500Y-129035000I-237500J0D01*
G01*
X78972500Y-129035000D01*
G75*
G02*
X78735000Y-128797500I0J237500D01*
G01*
X78735000Y-128322500D01*
G75*
G02*
X78972500Y-128085000I237500J0D01*
G01*
X79472500Y-128085000D01*
G75*
G02*
X79710000Y-128322500I0J-237500D01*
G01*
G37*
%TD*%
%TO.C,C15*%
G36*
G01*
X60062500Y-102805000D02*
X60537500Y-102805000D01*
G75*
G02*
X60775000Y-103042500I0J-237500D01*
G01*
X60775000Y-103642500D01*
G75*
G02*
X60537500Y-103880000I-237500J0D01*
G01*
X60062500Y-103880000D01*
G75*
G02*
X59825000Y-103642500I0J237500D01*
G01*
X59825000Y-103042500D01*
G75*
G02*
X60062500Y-102805000I237500J0D01*
G01*
G37*
G36*
G01*
X60062500Y-101080000D02*
X60537500Y-101080000D01*
G75*
G02*
X60775000Y-101317500I0J-237500D01*
G01*
X60775000Y-101917500D01*
G75*
G02*
X60537500Y-102155000I-237500J0D01*
G01*
X60062500Y-102155000D01*
G75*
G02*
X59825000Y-101917500I0J237500D01*
G01*
X59825000Y-101317500D01*
G75*
G02*
X60062500Y-101080000I237500J0D01*
G01*
G37*
%TD*%
%TO.C,C14*%
G36*
G01*
X59392500Y-76705000D02*
X59867500Y-76705000D01*
G75*
G02*
X60105000Y-76942500I0J-237500D01*
G01*
X60105000Y-77542500D01*
G75*
G02*
X59867500Y-77780000I-237500J0D01*
G01*
X59392500Y-77780000D01*
G75*
G02*
X59155000Y-77542500I0J237500D01*
G01*
X59155000Y-76942500D01*
G75*
G02*
X59392500Y-76705000I237500J0D01*
G01*
G37*
G36*
G01*
X59392500Y-74980000D02*
X59867500Y-74980000D01*
G75*
G02*
X60105000Y-75217500I0J-237500D01*
G01*
X60105000Y-75817500D01*
G75*
G02*
X59867500Y-76055000I-237500J0D01*
G01*
X59392500Y-76055000D01*
G75*
G02*
X59155000Y-75817500I0J237500D01*
G01*
X59155000Y-75217500D01*
G75*
G02*
X59392500Y-74980000I237500J0D01*
G01*
G37*
%TD*%
%TO.C,C13*%
G36*
G01*
X60252500Y-129915000D02*
X60727500Y-129915000D01*
G75*
G02*
X60965000Y-130152500I0J-237500D01*
G01*
X60965000Y-130752500D01*
G75*
G02*
X60727500Y-130990000I-237500J0D01*
G01*
X60252500Y-130990000D01*
G75*
G02*
X60015000Y-130752500I0J237500D01*
G01*
X60015000Y-130152500D01*
G75*
G02*
X60252500Y-129915000I237500J0D01*
G01*
G37*
G36*
G01*
X60252500Y-128190000D02*
X60727500Y-128190000D01*
G75*
G02*
X60965000Y-128427500I0J-237500D01*
G01*
X60965000Y-129027500D01*
G75*
G02*
X60727500Y-129265000I-237500J0D01*
G01*
X60252500Y-129265000D01*
G75*
G02*
X60015000Y-129027500I0J237500D01*
G01*
X60015000Y-128427500D01*
G75*
G02*
X60252500Y-128190000I237500J0D01*
G01*
G37*
%TD*%
D10*
%TO.C,C5*%
X78390000Y-57580000D03*
X81890000Y-57580000D03*
%TD*%
D11*
%TO.C,IC5*%
X72125000Y-100615000D03*
X72125000Y-101885000D03*
X72125000Y-103155000D03*
X72125000Y-104425000D03*
X62775000Y-104425000D03*
X62775000Y-103155000D03*
X62775000Y-101885000D03*
X62775000Y-100615000D03*
%TD*%
%TO.C,IC3*%
X72125000Y-74515000D03*
X72125000Y-75785000D03*
X72125000Y-77055000D03*
X72125000Y-78325000D03*
X62775000Y-78325000D03*
X62775000Y-77055000D03*
X62775000Y-75785000D03*
X62775000Y-74515000D03*
%TD*%
%TO.C,IC2*%
X72125000Y-127725000D03*
X72125000Y-128995000D03*
X72125000Y-130265000D03*
X72125000Y-131535000D03*
X62775000Y-131535000D03*
X62775000Y-130265000D03*
X62775000Y-128995000D03*
X62775000Y-127725000D03*
%TD*%
D10*
%TO.C,C10*%
X72240000Y-83560000D03*
X75740000Y-83560000D03*
%TD*%
%TO.C,C9*%
X79060000Y-83560000D03*
X82560000Y-83560000D03*
%TD*%
%TO.C,C8*%
X72430000Y-110850000D03*
X75930000Y-110850000D03*
%TD*%
%TO.C,C7*%
X79250000Y-110850000D03*
X82750000Y-110850000D03*
%TD*%
%TO.C,C6*%
X71570000Y-57580000D03*
X75070000Y-57580000D03*
%TD*%
M02*
