M48
; DRILL file {KiCad (5.1.12)-1} date 12/01/23 15:42:48
; FORMAT={-:-/ absolute / inch / decimal}
; #@! TF.CreationDate,2023-12-01T15:42:48+05:30
; #@! TF.GenerationSoftware,Kicad,Pcbnew,(5.1.12)-1
FMAT,2
INCH
T1C0.0157
T2C0.0291
T3C0.0323
T4C0.0402
T5C0.0413
T6C0.0453
T7C0.0472
T8C0.0581
T9C0.0630
T10C0.0693
T11C0.0732
T12C0.0827
T13C0.1051
T14C0.1181
T15C0.0669
T16C0.1260
%
G90
G05
T1
X2.2654Y-3.0665
X2.2937Y-2.8437
X2.2941Y-4.0665
X2.3094Y-5.178
X2.3287Y-4.1665
X2.3413Y-2.8772
X2.3646Y-3.9173
X2.4004Y-4.963
X2.73Y-2.74
X2.9063Y-4.111
X2.9071Y-3.0839
X2.9173Y-5.1752
X3.01Y-2.87
X3.1193Y-2.1969
X3.1201Y-2.6161
X3.1201Y-2.687
X3.1201Y-2.7579
X3.1201Y-2.8287
X3.1417Y-3.2205
X3.1449Y-4.2949
X3.1909Y-2.6161
X3.1909Y-2.687
X3.1909Y-2.7579
X3.1909Y-2.8287
X3.2618Y-2.6161
X3.2618Y-2.687
X3.2618Y-2.7579
X3.2618Y-2.8287
X3.3327Y-2.6161
X3.3327Y-2.687
X3.3327Y-2.7579
X3.3327Y-2.8287
X3.4673Y-2.2638
X3.4673Y-2.3346
X3.4673Y-2.4055
X3.4673Y-2.4764
X3.5382Y-2.2638
X3.5382Y-2.3346
X3.5382Y-2.4055
X3.5382Y-2.4764
X3.6091Y-2.2638
X3.6091Y-2.3346
X3.6091Y-2.4055
X3.6091Y-2.4764
X3.6799Y-2.2638
X3.6799Y-2.3346
X3.6799Y-2.4055
X3.6799Y-2.4764
X3.698Y-3.2283
X3.698Y-3.2992
X3.698Y-3.3701
X3.698Y-3.4409
X3.7689Y-3.2283
X3.7689Y-3.2992
X3.7689Y-3.3701
X3.7689Y-3.4409
X3.8398Y-3.2283
X3.8398Y-3.2992
X3.8398Y-3.3701
X3.8398Y-3.4409
X3.8776Y-6.3323
X3.8776Y-6.4323
X3.8776Y-6.5323
X3.9106Y-3.2283
X3.9106Y-3.2992
X3.9106Y-3.3701
X3.9106Y-3.4409
X3.9776Y-6.3323
X3.9776Y-6.4323
X3.9776Y-6.5323
X4.0776Y-6.3323
X4.0776Y-6.4323
X4.0776Y-6.5323
X4.1776Y-6.3323
X4.1776Y-6.4323
X4.1776Y-6.5323
X4.2776Y-6.3323
X4.2776Y-6.4323
X4.2776Y-6.5323
X4.3776Y-6.3323
X4.3776Y-6.4323
X4.3776Y-6.5323
X5.0177Y-5.9791
X5.0177Y-6.0791
X5.0177Y-6.1791
X5.0177Y-6.2791
X5.0177Y-6.3791
X5.1177Y-5.9791
X5.1177Y-6.0791
X5.1177Y-6.1791
X5.1177Y-6.2791
X5.1177Y-6.3791
X5.2177Y-5.9791
X5.2177Y-6.0791
X5.2177Y-6.1791
X5.2177Y-6.2791
X5.2177Y-6.3791
X5.3177Y-5.9791
X5.3177Y-6.0791
X5.3177Y-6.1791
X5.3177Y-6.2791
X5.3177Y-6.3791
X6.4626Y-6.9488
X6.4626Y-7.0276
X6.4626Y-7.1063
X6.4626Y-7.185
X6.5413Y-6.9488
X6.5413Y-7.0276
X6.5413Y-7.1063
X6.5413Y-7.185
X6.6201Y-6.9488
X6.6201Y-7.0276
X6.6201Y-7.1063
X6.6201Y-7.185
X6.6988Y-6.9488
X6.6988Y-7.0276
X6.6988Y-7.1063
X6.6988Y-7.185
X6.85Y-5.3224
X6.85Y-5.4012
X6.85Y-5.4799
X6.85Y-5.5587
X6.9287Y-5.3224
X6.9287Y-5.4012
X6.9287Y-5.4799
X6.9287Y-5.5587
X7.0075Y-5.3224
X7.0075Y-5.4012
X7.0075Y-5.4799
X7.0075Y-5.5587
X7.0862Y-5.3224
X7.0862Y-5.4012
X7.0862Y-5.4799
X7.0862Y-5.5587
X7.1996Y-6.9508
X7.1996Y-7.0295
X7.1996Y-7.1083
X7.1996Y-7.187
X7.2783Y-6.9508
X7.2783Y-7.0295
X7.2783Y-7.1083
X7.2783Y-7.187
X7.3571Y-6.9508
X7.3571Y-7.0295
X7.3571Y-7.1083
X7.3571Y-7.187
X7.4358Y-6.9508
X7.4358Y-7.0295
X7.4358Y-7.1083
X7.4358Y-7.187
X7.9701Y-6.948
X7.9701Y-7.0268
X7.9701Y-7.1055
X7.9701Y-7.1843
X7.9772Y-5.087
X7.9772Y-5.1657
X7.9772Y-5.2445
X7.9772Y-5.3232
X8.0488Y-6.948
X8.0488Y-7.0268
X8.0488Y-7.1055
X8.0488Y-7.1843
X8.0559Y-5.087
X8.0559Y-5.1657
X8.0559Y-5.2445
X8.0559Y-5.3232
X8.1276Y-6.948
X8.1276Y-7.0268
X8.1276Y-7.1055
X8.1276Y-7.1843
X8.1346Y-5.087
X8.1346Y-5.1657
X8.1346Y-5.2445
X8.1346Y-5.3232
X8.2063Y-6.948
X8.2063Y-7.0268
X8.2063Y-7.1055
X8.2063Y-7.1843
X8.2134Y-5.087
X8.2134Y-5.1657
X8.2134Y-5.2445
X8.2134Y-5.3232
X8.7268Y-6.9508
X8.7268Y-7.0295
X8.7268Y-7.1083
X8.7268Y-7.187
X8.7488Y-5.0941
X8.7488Y-5.1728
X8.7488Y-5.2516
X8.7488Y-5.3303
X8.8055Y-6.9508
X8.8055Y-7.0295
X8.8055Y-7.1083
X8.8055Y-7.187
X8.8276Y-5.0941
X8.8276Y-5.1728
X8.8276Y-5.2516
X8.8276Y-5.3303
X8.8843Y-6.9508
X8.8843Y-7.0295
X8.8843Y-7.1083
X8.8843Y-7.187
X8.9063Y-5.0941
X8.9063Y-5.1728
X8.9063Y-5.2516
X8.9063Y-5.3303
X8.963Y-6.9508
X8.963Y-7.0295
X8.963Y-7.1083
X8.963Y-7.187
X8.985Y-5.0941
X8.985Y-5.1728
X8.985Y-5.2516
X8.985Y-5.3303
T2
X3.5228Y-6.7094
X3.5228Y-6.8094
X3.5228Y-6.9094
T3
X2.3846Y-2.502
X2.3846Y-3.4949
X2.3846Y-4.5693
X2.4846Y-2.502
X2.4846Y-3.4949
X2.4846Y-4.5693
X2.7846Y-2.502
X2.7846Y-3.4949
X2.7846Y-4.5693
X2.8846Y-2.502
X2.8846Y-3.4949
X2.8846Y-4.5693
X2.9846Y-2.502
X2.9846Y-3.4949
X2.9846Y-4.5693
T4
X2.75Y-2.07
X2.75Y-5.43
X3.02Y-2.07
X3.02Y-5.43
X3.1327Y-7.228
X3.2398Y-4.1992
X3.24Y-3.66
X3.435Y-7.2291
X3.698Y-5.5457
X4.1307Y-5.5461
X5.6571Y-1.8098
X6.2831Y-5.8787
X6.2925Y-6.6339
X7.7276Y-6.6291
X7.7323Y-5.8835
X8.2693Y-1.8224
T5
X7.1476Y-2.6898
X7.15Y-3.1591
X7.1528Y-3.6465
X8.5453Y-2.6866
X8.5476Y-3.1559
X8.5504Y-3.6433
T6
X1.589Y-2.7614
X1.589Y-2.8614
X1.589Y-2.9614
X1.589Y-3.0614
X1.589Y-3.1614
X1.589Y-3.2614
X1.589Y-3.3614
X1.589Y-3.4614
X1.589Y-3.5614
X1.589Y-3.6614
X1.589Y-5.2669
X1.589Y-5.3669
X1.589Y-5.4669
X1.589Y-5.5669
X1.589Y-5.6669
X1.589Y-5.7669
X1.589Y-5.8669
X1.589Y-5.9669
X1.589Y-6.0669
X1.589Y-6.1669
X1.689Y-2.7614
X1.689Y-2.8614
X1.689Y-2.9614
X1.689Y-3.0614
X1.689Y-3.1614
X1.689Y-3.2614
X1.689Y-3.3614
X1.689Y-3.4614
X1.689Y-3.5614
X1.689Y-3.6614
X1.689Y-5.2669
X1.689Y-5.3669
X1.689Y-5.4669
X1.689Y-5.5669
X1.689Y-5.6669
X1.689Y-5.7669
X1.689Y-5.8669
X1.689Y-5.9669
X1.689Y-6.0669
X1.689Y-6.1669
X2.6055Y-6.7594
X2.7055Y-6.7594
X2.8055Y-6.7594
X3.0055Y-6.7594
X3.1055Y-6.7594
X3.2055Y-6.7594
X3.3055Y-6.7594
T7
X1.7461Y-4.3559
X1.7461Y-4.5528
X2.4319Y-6.2165
X3.3319Y-6.2165
X3.5319Y-6.2165
X3.8193Y-7.324
X4.0161Y-7.324
X7.3181Y-3.3815
X7.3217Y-2.9315
X7.3272Y-3.8323
X8.4008Y-3.3815
X8.4043Y-2.9315
X8.4098Y-3.8323
T8
X5.5169Y-5.0028
X5.5169Y-5.1028
X5.5169Y-5.2028
X5.5169Y-5.3028
X5.5189Y-4.2193
X5.5189Y-4.3193
X5.5189Y-4.4193
X5.5189Y-4.5193
X5.5272Y-6.9465
X5.5272Y-7.0465
X5.5272Y-7.1465
X5.5272Y-7.2465
X5.5315Y-2.8343
X5.5315Y-2.9343
X5.5315Y-3.0343
X5.5315Y-3.1343
X5.5327Y-3.4531
X5.5327Y-3.5531
X5.5327Y-3.6531
X5.5327Y-3.7531
X5.6169Y-5.0028
X5.6169Y-5.1028
X5.6169Y-5.2028
X5.6169Y-5.3028
X5.6189Y-4.2193
X5.6189Y-4.3193
X5.6189Y-4.4193
X5.6189Y-4.5193
X5.6272Y-6.9465
X5.6272Y-7.0465
X5.6272Y-7.1465
X5.6272Y-7.2465
X5.6315Y-2.8343
X5.6315Y-2.9343
X5.6315Y-3.0343
X5.6315Y-3.1343
X5.6327Y-3.4531
X5.6327Y-3.5531
X5.6327Y-3.6531
X5.6327Y-3.7531
X5.7169Y-5.0028
X5.7169Y-5.1028
X5.7169Y-5.2028
X5.7169Y-5.3028
X5.7189Y-4.2193
X5.7189Y-4.3193
X5.7189Y-4.4193
X5.7189Y-4.5193
X5.7272Y-6.9465
X5.7272Y-7.0465
X5.7272Y-7.1465
X5.7272Y-7.2465
X5.7315Y-2.8343
X5.7315Y-2.9343
X5.7315Y-3.0343
X5.7315Y-3.1343
X5.7327Y-3.4531
X5.7327Y-3.5531
X5.7327Y-3.6531
X5.7327Y-3.7531
X5.8169Y-5.0028
X5.8169Y-5.1028
X5.8169Y-5.2028
X5.8169Y-5.3028
X5.8189Y-4.2193
X5.8189Y-4.3193
X5.8189Y-4.4193
X5.8189Y-4.5193
X5.8272Y-6.9465
X5.8272Y-7.0465
X5.8272Y-7.1465
X5.8272Y-7.2465
X5.8315Y-2.8343
X5.8315Y-2.9343
X5.8315Y-3.0343
X5.8315Y-3.1343
X5.8327Y-3.4531
X5.8327Y-3.5531
X5.8327Y-3.6531
X5.8327Y-3.7531
X6.465Y-5.015
X6.465Y-5.115
X6.465Y-5.215
X6.465Y-5.315
X6.565Y-5.015
X6.565Y-5.115
X6.565Y-5.215
X6.565Y-5.315
X6.665Y-5.015
X6.665Y-5.115
X6.665Y-5.215
X6.665Y-5.315
X6.765Y-5.015
X6.765Y-5.115
X6.765Y-5.215
X6.765Y-5.315
X6.7988Y-6.948
X6.7988Y-7.048
X6.7988Y-7.148
X6.7988Y-7.248
X6.8988Y-6.948
X6.8988Y-7.048
X6.8988Y-7.148
X6.8988Y-7.248
X6.9988Y-6.948
X6.9988Y-7.048
X6.9988Y-7.148
X6.9988Y-7.248
X7.0988Y-6.948
X7.0988Y-7.048
X7.0988Y-7.148
X7.0988Y-7.248
X7.1768Y-5.0189
X7.1768Y-5.1189
X7.1768Y-5.2189
X7.1768Y-5.3189
X7.2768Y-5.0189
X7.2768Y-5.1189
X7.2768Y-5.2189
X7.2768Y-5.3189
X7.3768Y-5.0189
X7.3768Y-5.1189
X7.3768Y-5.2189
X7.3768Y-5.3189
X7.4768Y-5.0189
X7.4768Y-5.1189
X7.4768Y-5.2189
X7.4768Y-5.3189
X8.3181Y-6.9374
X8.3181Y-7.0374
X8.3181Y-7.1374
X8.3181Y-7.2374
X8.3217Y-5.035
X8.3217Y-5.135
X8.3217Y-5.235
X8.3217Y-5.335
X8.4181Y-6.9374
X8.4181Y-7.0374
X8.4181Y-7.1374
X8.4181Y-7.2374
X8.4217Y-5.035
X8.4217Y-5.135
X8.4217Y-5.235
X8.4217Y-5.335
X8.5181Y-6.9374
X8.5181Y-7.0374
X8.5181Y-7.1374
X8.5181Y-7.2374
X8.5217Y-5.035
X8.5217Y-5.135
X8.5217Y-5.235
X8.5217Y-5.335
X8.6181Y-6.9374
X8.6181Y-7.0374
X8.6181Y-7.1374
X8.6181Y-7.2374
X8.6217Y-5.035
X8.6217Y-5.135
X8.6217Y-5.235
X8.6217Y-5.335
T9
X8.7476Y-3.0035
X8.75Y-3.4181
X8.7555Y-3.8323
X9.2476Y-3.0035
X9.25Y-3.4181
X9.2555Y-3.8323
T10
X7.6685Y-4.1913
X7.6685Y-4.4528
X8.0622Y-4.1913
X8.0622Y-4.4528
T11
X4.2051Y-2.561
X4.2051Y-2.776
X4.2051Y-2.9909
X4.2051Y-3.49
X4.2051Y-3.705
X4.2051Y-3.9199
X4.2051Y-4.4902
X4.2051Y-4.7051
X4.2051Y-4.9201
T12
X6.1622Y-1.8394
X6.5559Y-1.8394
X7.3965Y-1.8394
X7.7902Y-1.8394
T13
X4.3291Y-2.335
X4.3291Y-5.128
T14
X3.3012Y-5.7657
X3.6685Y-4.5185
X3.928Y-6.1583
X4.3083Y-6.1626
X4.8996Y-6.1571
X8.2701Y-2.0287
X8.9819Y-2.0378
T15
X5.6043Y-4.705
X5.6043Y-2.713
X5.8011Y-4.705
X5.8996Y-2.713
X6.0964Y-4.705
X6.1949Y-2.713
X6.3917Y-4.705
X6.4902Y-2.713
X6.687Y-4.705
X6.7854Y-2.713
X6.9822Y-4.705
X6.9823Y-2.713
T16
X1.7362Y-1.3614
X1.7362Y-4.0972
X1.7362Y-7.4882
X5.5276Y-2.4409
X5.6571Y-1.3614
X5.6571Y-7.4882
X5.8398Y-2.4421
X6.1807Y-5.0043
X6.9228Y-2.4563
X7.2028Y-4.765
X7.7575Y-4.765
X9.4563Y-1.3614
X9.4563Y-4.0972
X9.4563Y-7.4882
T0
M30
