%TF.GenerationSoftware,KiCad,Pcbnew,(5.1.12)-1*%
%TF.CreationDate,2023-12-01T15:42:45+05:30*%
%TF.ProjectId,DCCB PCB-V3,44434342-2050-4434-922d-56332e6b6963,rev?*%
%TF.SameCoordinates,Original*%
%TF.FileFunction,Soldermask,Bot*%
%TF.FilePolarity,Negative*%
%FSLAX46Y46*%
G04 Gerber Fmt 4.6, Leading zero omitted, Abs format (unit mm)*
G04 Created by KiCad (PCBNEW (5.1.12)-1) date 2023-12-01 15:42:45*
%MOMM*%
%LPD*%
G01*
G04 APERTURE LIST*
%ADD10C,3.200000*%
%ADD11C,1.734000*%
%ADD12C,0.100000*%
%ADD13C,4.005000*%
%ADD14C,3.150000*%
%ADD15R,3.150000X3.150000*%
%ADD16C,1.434000*%
%ADD17C,1.725000*%
%ADD18R,1.725000X1.725000*%
%ADD19C,2.200000*%
%ADD20C,2.000000*%
%ADD21C,1.800000*%
%ADD22R,1.800000X1.800000*%
%ADD23R,3.200000X3.200000*%
%ADD24O,3.200000X3.200000*%
%ADD25C,1.269000*%
%ADD26C,2.640000*%
%ADD27C,1.575000*%
%ADD28C,2.790000*%
%ADD29R,2.790000X2.790000*%
%ADD30C,0.300000*%
G04 APERTURE END LIST*
D10*
%TO.C,H13*%
X143690000Y-34580000D03*
%TD*%
%TO.C,H3*%
X143690000Y-190200000D03*
%TD*%
D11*
%TO.C,TP18*%
X87250000Y-183620000D03*
%TD*%
%TO.C,TP17*%
X79570000Y-183590000D03*
%TD*%
%TO.C,TP16*%
X82296000Y-92964000D03*
%TD*%
%TO.C,TP15*%
X82290000Y-106660000D03*
%TD*%
%TO.C,TP14*%
X76708000Y-137922000D03*
%TD*%
%TO.C,TP13*%
X76708000Y-52578000D03*
%TD*%
%TO.C,TP12*%
X69850000Y-52578000D03*
%TD*%
%TO.C,TP11*%
X69850000Y-137922000D03*
%TD*%
%TO.C,TP10*%
X196280000Y-168380000D03*
%TD*%
%TO.C,TP9*%
X159830000Y-168500000D03*
%TD*%
%TO.C,TP8*%
X210040000Y-46290000D03*
%TD*%
%TO.C,TP7*%
X143690000Y-45970000D03*
%TD*%
%TO.C,TP6*%
X93930000Y-140860000D03*
%TD*%
%TO.C,TP3*%
X104920000Y-140870000D03*
%TD*%
%TO.C,TP2*%
X196400000Y-149440000D03*
%TD*%
%TO.C,TP1*%
X159590000Y-149320000D03*
%TD*%
D12*
%TO.C,K1*%
G36*
X95180000Y-116770000D02*
G01*
X91180000Y-116770000D01*
X91180000Y-112770000D01*
X95180000Y-112770000D01*
X95180000Y-116770000D01*
G37*
%TD*%
D13*
%TO.C,H5*%
X109960000Y-130250000D03*
X109960000Y-59310000D03*
%TD*%
D14*
%TO.C,C11*%
X197870000Y-46720000D03*
D15*
X187870000Y-46720000D03*
%TD*%
D16*
%TO.C,PS3*%
X73270000Y-88770000D03*
X75810000Y-88770000D03*
X70730000Y-88770000D03*
X63110000Y-88770000D03*
G36*
G01*
X59853000Y-89385000D02*
X59853000Y-88155000D01*
G75*
G02*
X59955000Y-88053000I102000J0D01*
G01*
X61185000Y-88053000D01*
G75*
G02*
X61287000Y-88155000I0J-102000D01*
G01*
X61287000Y-89385000D01*
G75*
G02*
X61185000Y-89487000I-102000J0D01*
G01*
X59955000Y-89487000D01*
G75*
G02*
X59853000Y-89385000I0J102000D01*
G01*
G37*
%TD*%
%TO.C,PS2*%
X73270000Y-116060000D03*
X75810000Y-116060000D03*
X70730000Y-116060000D03*
X63110000Y-116060000D03*
G36*
G01*
X59853000Y-116675000D02*
X59853000Y-115445000D01*
G75*
G02*
X59955000Y-115343000I102000J0D01*
G01*
X61185000Y-115343000D01*
G75*
G02*
X61287000Y-115445000I0J-102000D01*
G01*
X61287000Y-116675000D01*
G75*
G02*
X61185000Y-116777000I-102000J0D01*
G01*
X59955000Y-116777000D01*
G75*
G02*
X59853000Y-116675000I0J102000D01*
G01*
G37*
%TD*%
%TO.C,PS1*%
X73270000Y-63550000D03*
X75810000Y-63550000D03*
X70730000Y-63550000D03*
X63110000Y-63550000D03*
G36*
G01*
X59853000Y-64165000D02*
X59853000Y-62935000D01*
G75*
G02*
X59955000Y-62833000I102000J0D01*
G01*
X61185000Y-62833000D01*
G75*
G02*
X61287000Y-62935000I0J-102000D01*
G01*
X61287000Y-64165000D01*
G75*
G02*
X61185000Y-64267000I-102000J0D01*
G01*
X59955000Y-64267000D01*
G75*
G02*
X59853000Y-64165000I0J102000D01*
G01*
G37*
%TD*%
D10*
%TO.C,H15*%
X140400000Y-62000000D03*
%TD*%
%TO.C,H10*%
X240190000Y-104070000D03*
%TD*%
%TO.C,H9*%
X148330000Y-62030000D03*
%TD*%
%TO.C,H8*%
X240190000Y-190200000D03*
%TD*%
%TO.C,H7*%
X175840000Y-62390000D03*
%TD*%
%TO.C,H6*%
X182950000Y-121030000D03*
%TD*%
D17*
%TO.C,J2*%
X40360000Y-133780000D03*
X42900000Y-133780000D03*
X40360000Y-136320000D03*
X42900000Y-136320000D03*
X40360000Y-138860000D03*
X42900000Y-138860000D03*
X40360000Y-141400000D03*
X42900000Y-141400000D03*
X40360000Y-143940000D03*
X42900000Y-143940000D03*
X40360000Y-146480000D03*
X42900000Y-146480000D03*
X40360000Y-149020000D03*
X42900000Y-149020000D03*
X40360000Y-151560000D03*
X42900000Y-151560000D03*
X40360000Y-154100000D03*
X42900000Y-154100000D03*
X40360000Y-156640000D03*
D18*
X42900000Y-156640000D03*
%TD*%
D17*
%TO.C,J1*%
X40360000Y-70140000D03*
X42900000Y-70140000D03*
X40360000Y-72680000D03*
X42900000Y-72680000D03*
X40360000Y-75220000D03*
X42900000Y-75220000D03*
X40360000Y-77760000D03*
X42900000Y-77760000D03*
X40360000Y-80300000D03*
X42900000Y-80300000D03*
X40360000Y-82840000D03*
X42900000Y-82840000D03*
X40360000Y-85380000D03*
X42900000Y-85380000D03*
X40360000Y-87920000D03*
X42900000Y-87920000D03*
X40360000Y-90460000D03*
X42900000Y-90460000D03*
X40360000Y-93000000D03*
D18*
X42900000Y-93000000D03*
%TD*%
D19*
%TO.C,IC15*%
X148150000Y-95330000D03*
X145610000Y-95330000D03*
X143070000Y-95330000D03*
X140530000Y-95330000D03*
X148150000Y-92790000D03*
X145610000Y-92790000D03*
X143070000Y-92790000D03*
X140530000Y-92790000D03*
X148150000Y-90250000D03*
X145610000Y-90250000D03*
X143070000Y-90250000D03*
X140530000Y-90250000D03*
X148150000Y-87710000D03*
X145610000Y-87710000D03*
X143070000Y-87710000D03*
X140530000Y-87710000D03*
%TD*%
%TO.C,IC14*%
X147800000Y-114790000D03*
X145260000Y-114790000D03*
X142720000Y-114790000D03*
X140180000Y-114790000D03*
X147800000Y-112250000D03*
X145260000Y-112250000D03*
X142720000Y-112250000D03*
X140180000Y-112250000D03*
X147800000Y-109710000D03*
X145260000Y-109710000D03*
X142720000Y-109710000D03*
X140180000Y-109710000D03*
X147800000Y-107170000D03*
X145260000Y-107170000D03*
X142720000Y-107170000D03*
X140180000Y-107170000D03*
%TD*%
%TO.C,IC13*%
X147750000Y-134690000D03*
X145210000Y-134690000D03*
X142670000Y-134690000D03*
X140130000Y-134690000D03*
X147750000Y-132150000D03*
X145210000Y-132150000D03*
X142670000Y-132150000D03*
X140130000Y-132150000D03*
X147750000Y-129610000D03*
X145210000Y-129610000D03*
X142670000Y-129610000D03*
X140130000Y-129610000D03*
X147750000Y-127070000D03*
X145210000Y-127070000D03*
X142670000Y-127070000D03*
X140130000Y-127070000D03*
%TD*%
%TO.C,IC12*%
X171830000Y-135000000D03*
X169290000Y-135000000D03*
X166750000Y-135000000D03*
X164210000Y-135000000D03*
X171830000Y-132460000D03*
X169290000Y-132460000D03*
X166750000Y-132460000D03*
X164210000Y-132460000D03*
X171830000Y-129920000D03*
X169290000Y-129920000D03*
X166750000Y-129920000D03*
X164210000Y-129920000D03*
X171830000Y-127380000D03*
X169290000Y-127380000D03*
X166750000Y-127380000D03*
X164210000Y-127380000D03*
%TD*%
%TO.C,IC11*%
X148120000Y-79610000D03*
X145580000Y-79610000D03*
X143040000Y-79610000D03*
X140500000Y-79610000D03*
X148120000Y-77070000D03*
X145580000Y-77070000D03*
X143040000Y-77070000D03*
X140500000Y-77070000D03*
X148120000Y-74530000D03*
X145580000Y-74530000D03*
X143040000Y-74530000D03*
X140500000Y-74530000D03*
X148120000Y-71990000D03*
X145580000Y-71990000D03*
X143040000Y-71990000D03*
X140500000Y-71990000D03*
%TD*%
%TO.C,IC10*%
X189910000Y-135100000D03*
X187370000Y-135100000D03*
X184830000Y-135100000D03*
X182290000Y-135100000D03*
X189910000Y-132560000D03*
X187370000Y-132560000D03*
X184830000Y-132560000D03*
X182290000Y-132560000D03*
X189910000Y-130020000D03*
X187370000Y-130020000D03*
X184830000Y-130020000D03*
X182290000Y-130020000D03*
X189910000Y-127480000D03*
X187370000Y-127480000D03*
X184830000Y-127480000D03*
X182290000Y-127480000D03*
%TD*%
%TO.C,IC9*%
X218900000Y-176210000D03*
X216360000Y-176210000D03*
X213820000Y-176210000D03*
X211280000Y-176210000D03*
X218900000Y-178750000D03*
X216360000Y-178750000D03*
X213820000Y-178750000D03*
X211280000Y-178750000D03*
X218900000Y-181290000D03*
X216360000Y-181290000D03*
X213820000Y-181290000D03*
X211280000Y-181290000D03*
X218900000Y-183830000D03*
X216360000Y-183830000D03*
X213820000Y-183830000D03*
X211280000Y-183830000D03*
%TD*%
%TO.C,IC8*%
X148010000Y-184060000D03*
X148010000Y-181520000D03*
X148010000Y-178980000D03*
X148010000Y-176440000D03*
X145470000Y-184060000D03*
X145470000Y-181520000D03*
X145470000Y-178980000D03*
X145470000Y-176440000D03*
X142930000Y-184060000D03*
X142930000Y-181520000D03*
X142930000Y-178980000D03*
X142930000Y-176440000D03*
X140390000Y-184060000D03*
X140390000Y-181520000D03*
X140390000Y-178980000D03*
X140390000Y-176440000D03*
%TD*%
%TO.C,IC7*%
X211370000Y-135510000D03*
X211370000Y-132970000D03*
X211370000Y-130430000D03*
X211370000Y-127890000D03*
X213910000Y-135510000D03*
X213910000Y-132970000D03*
X213910000Y-130430000D03*
X213910000Y-127890000D03*
X216450000Y-135510000D03*
X216450000Y-132970000D03*
X216450000Y-130430000D03*
X216450000Y-127890000D03*
X218990000Y-135510000D03*
X218990000Y-132970000D03*
X218990000Y-130430000D03*
X218990000Y-127890000D03*
%TD*%
%TO.C,IC6*%
X180310000Y-176480000D03*
X177770000Y-176480000D03*
X175230000Y-176480000D03*
X172690000Y-176480000D03*
X180310000Y-179020000D03*
X177770000Y-179020000D03*
X175230000Y-179020000D03*
X172690000Y-179020000D03*
X180310000Y-181560000D03*
X177770000Y-181560000D03*
X175230000Y-181560000D03*
X172690000Y-181560000D03*
X180310000Y-184100000D03*
X177770000Y-184100000D03*
X175230000Y-184100000D03*
X172690000Y-184100000D03*
%TD*%
D20*
%TO.C,L1*%
X177350000Y-68910000D03*
X172350000Y-68910000D03*
X164850000Y-68910000D03*
X157350000Y-68910000D03*
X149850000Y-68910000D03*
X142350000Y-68910000D03*
X154848800Y-119506800D03*
X169848800Y-119506800D03*
X162348800Y-119506800D03*
X147348800Y-119506800D03*
X142348800Y-119506800D03*
X177348800Y-119506800D03*
%TD*%
D21*
%TO.C,C2*%
X213610000Y-97340000D03*
D22*
X186110000Y-97340000D03*
%TD*%
D10*
%TO.C,H14*%
X240190000Y-34580000D03*
%TD*%
%TO.C,H12*%
X197040000Y-121030000D03*
%TD*%
%TO.C,H11*%
X44100000Y-104070000D03*
%TD*%
D21*
%TO.C,J7*%
X97010000Y-186030000D03*
D22*
X102010000Y-186030000D03*
%TD*%
D17*
%TO.C,PS5*%
X83960000Y-171690000D03*
X81420000Y-171690000D03*
X78880000Y-171690000D03*
X76340000Y-171690000D03*
X71260000Y-171690000D03*
X68720000Y-171690000D03*
X66180000Y-171690000D03*
%TD*%
D23*
%TO.C,D7*%
X222250000Y-86820000D03*
D24*
X234950000Y-86820000D03*
%TD*%
D23*
%TO.C,D6*%
X222390000Y-97340000D03*
D24*
X235090000Y-97340000D03*
%TD*%
D23*
%TO.C,D5*%
X222190000Y-76290000D03*
D24*
X234890000Y-76290000D03*
%TD*%
D12*
%TO.C,Probe2*%
G36*
X126450000Y-158390000D02*
G01*
X122450000Y-158390000D01*
X122450000Y-154390000D01*
X126450000Y-154390000D01*
X126450000Y-158390000D01*
G37*
%TD*%
%TO.C,Probe1*%
G36*
X111430000Y-158530000D02*
G01*
X107430000Y-158530000D01*
X107430000Y-154530000D01*
X111430000Y-154530000D01*
X111430000Y-158530000D01*
G37*
%TD*%
D21*
%TO.C,J5*%
X44350000Y-115640000D03*
D22*
X44350000Y-110640000D03*
%TD*%
D25*
%TO.C,VR1*%
X89480000Y-175500000D03*
X89480000Y-172960000D03*
X89480000Y-170420000D03*
%TD*%
D12*
%TO.C,Sense2*%
G36*
X101770000Y-158420000D02*
G01*
X97770000Y-158420000D01*
X97770000Y-154420000D01*
X101770000Y-154420000D01*
X101770000Y-158420000D01*
G37*
%TD*%
%TO.C,TP5*%
G36*
X230140000Y-53760000D02*
G01*
X226140000Y-53760000D01*
X226140000Y-49760000D01*
X230140000Y-49760000D01*
X230140000Y-53760000D01*
G37*
%TD*%
%TO.C,TP4*%
G36*
X212060000Y-53530000D02*
G01*
X208060000Y-53530000D01*
X208060000Y-49530000D01*
X212060000Y-49530000D01*
X212060000Y-53530000D01*
G37*
%TD*%
%TO.C,Sense1*%
G36*
X85850000Y-148450000D02*
G01*
X81850000Y-148450000D01*
X81850000Y-144450000D01*
X85850000Y-144450000D01*
X85850000Y-148450000D01*
G37*
%TD*%
D26*
%TO.C,RV2*%
X204780000Y-113100000D03*
X194780000Y-113100000D03*
%TD*%
%TO.C,RV1*%
X204780000Y-106460000D03*
X194780000Y-106460000D03*
%TD*%
D27*
%TO.C,R3*%
X217110000Y-80160000D03*
X181610000Y-80240000D03*
%TD*%
%TO.C,R2*%
X217180000Y-92540000D03*
X181680000Y-92620000D03*
%TD*%
%TO.C,R1*%
X217050000Y-68240000D03*
X181550000Y-68320000D03*
%TD*%
D21*
%TO.C,IC1*%
X61770000Y-157900000D03*
X84630000Y-157900000D03*
X89710000Y-157900000D03*
%TD*%
D10*
%TO.C,H4*%
X44100000Y-34580000D03*
%TD*%
%TO.C,H2*%
X44100000Y-190200000D03*
%TD*%
%TO.C,H1*%
X156990000Y-127110000D03*
%TD*%
D28*
%TO.C,D3*%
X106810000Y-99566000D03*
X106810000Y-94106000D03*
D29*
X106810000Y-88646000D03*
%TD*%
D28*
%TO.C,D2*%
X106810000Y-124970000D03*
X106810000Y-119510000D03*
D29*
X106810000Y-114050000D03*
%TD*%
D28*
%TO.C,D1*%
X106810000Y-75970000D03*
X106810000Y-70510000D03*
D29*
X106810000Y-65050000D03*
%TD*%
D21*
%TO.C,C4*%
X213380000Y-85890000D03*
D22*
X185880000Y-85890000D03*
%TD*%
D14*
%TO.C,C3*%
X166520000Y-46720000D03*
D15*
X156520000Y-46720000D03*
%TD*%
D21*
%TO.C,C1*%
X213470000Y-74460000D03*
D22*
X185970000Y-74460000D03*
%TD*%
D30*
X119954489Y-66060637D02*
X119957225Y-66089914D01*
X119965621Y-66118095D01*
X119979354Y-66144097D01*
X119997895Y-66166920D01*
X120020532Y-66185687D01*
X120046396Y-66199678D01*
X120074492Y-66208353D01*
X120104270Y-66211383D01*
X122544270Y-66214917D01*
X122573537Y-66212077D01*
X122601689Y-66203582D01*
X122627642Y-66189758D01*
X122650399Y-66171137D01*
X122669087Y-66148433D01*
X122682986Y-66122520D01*
X122691562Y-66094394D01*
X122694470Y-66067163D01*
X122722273Y-64210360D01*
X123864487Y-64202428D01*
X123864487Y-66051383D01*
X123867369Y-66080647D01*
X123875905Y-66108786D01*
X123889767Y-66134719D01*
X123908421Y-66157449D01*
X123931151Y-66176103D01*
X123957084Y-66189965D01*
X123985223Y-66198501D01*
X124012859Y-66201374D01*
X130860271Y-66275716D01*
X130908079Y-69488402D01*
X130908079Y-69697312D01*
X130908081Y-69698170D01*
X130936015Y-74581771D01*
X130928127Y-74893518D01*
X130928079Y-74897312D01*
X130928079Y-75075583D01*
X124099798Y-74997322D01*
X124070503Y-74999868D01*
X124042268Y-75008081D01*
X124016178Y-75021645D01*
X123993236Y-75040037D01*
X123974322Y-75062553D01*
X123960164Y-75088325D01*
X123951306Y-75116364D01*
X123948085Y-75145917D01*
X123929485Y-77145394D01*
X122666322Y-77129200D01*
X122643068Y-75180522D01*
X122639837Y-75151295D01*
X122630966Y-75123260D01*
X122616796Y-75097494D01*
X122597872Y-75074988D01*
X122574920Y-75056606D01*
X122548824Y-75043055D01*
X122520585Y-75034855D01*
X122493667Y-75032313D01*
X119943667Y-75022313D01*
X119914393Y-75025081D01*
X119886220Y-75033506D01*
X119860233Y-75047266D01*
X119837430Y-75065831D01*
X119818686Y-75088488D01*
X119804723Y-75114366D01*
X119796077Y-75142472D01*
X119793079Y-75171951D01*
X119788441Y-77101440D01*
X118370550Y-77093196D01*
X118403059Y-75114776D01*
X118400658Y-75085470D01*
X118392585Y-75057194D01*
X118379152Y-75031037D01*
X118360873Y-75008003D01*
X118338452Y-74988978D01*
X118312751Y-74974692D01*
X118284756Y-74965695D01*
X118253654Y-74962313D01*
X115643654Y-74952313D01*
X115642663Y-74952313D01*
X113986805Y-74956900D01*
X113968074Y-72756035D01*
X113964942Y-72726797D01*
X113956167Y-72698732D01*
X113942086Y-72672918D01*
X113923239Y-72650347D01*
X113900350Y-72631887D01*
X113874300Y-72618247D01*
X113846089Y-72609950D01*
X113819016Y-72607315D01*
X101165237Y-72528233D01*
X101164513Y-68332237D01*
X107178715Y-68366353D01*
X107313800Y-68376002D01*
X107336944Y-68375865D01*
X107389914Y-68371451D01*
X113812854Y-68441374D01*
X113842147Y-68438811D01*
X113870378Y-68430582D01*
X113896460Y-68417003D01*
X113919392Y-68398597D01*
X113938293Y-68376071D01*
X113952436Y-68350291D01*
X113961278Y-68322246D01*
X113964486Y-68290713D01*
X113955189Y-66208229D01*
X115597827Y-66281235D01*
X115608595Y-66281327D01*
X118528595Y-66201327D01*
X118557769Y-66197644D01*
X118585663Y-66188341D01*
X118611207Y-66173774D01*
X118633418Y-66154504D01*
X118651443Y-66131272D01*
X118664589Y-66104969D01*
X118672351Y-66076606D01*
X118674484Y-66050417D01*
X118662584Y-64202190D01*
X119963739Y-64201467D01*
X119954489Y-66060637D01*
D12*
G36*
X119954489Y-66060637D02*
G01*
X119957225Y-66089914D01*
X119965621Y-66118095D01*
X119979354Y-66144097D01*
X119997895Y-66166920D01*
X120020532Y-66185687D01*
X120046396Y-66199678D01*
X120074492Y-66208353D01*
X120104270Y-66211383D01*
X122544270Y-66214917D01*
X122573537Y-66212077D01*
X122601689Y-66203582D01*
X122627642Y-66189758D01*
X122650399Y-66171137D01*
X122669087Y-66148433D01*
X122682986Y-66122520D01*
X122691562Y-66094394D01*
X122694470Y-66067163D01*
X122722273Y-64210360D01*
X123864487Y-64202428D01*
X123864487Y-66051383D01*
X123867369Y-66080647D01*
X123875905Y-66108786D01*
X123889767Y-66134719D01*
X123908421Y-66157449D01*
X123931151Y-66176103D01*
X123957084Y-66189965D01*
X123985223Y-66198501D01*
X124012859Y-66201374D01*
X130860271Y-66275716D01*
X130908079Y-69488402D01*
X130908079Y-69697312D01*
X130908081Y-69698170D01*
X130936015Y-74581771D01*
X130928127Y-74893518D01*
X130928079Y-74897312D01*
X130928079Y-75075583D01*
X124099798Y-74997322D01*
X124070503Y-74999868D01*
X124042268Y-75008081D01*
X124016178Y-75021645D01*
X123993236Y-75040037D01*
X123974322Y-75062553D01*
X123960164Y-75088325D01*
X123951306Y-75116364D01*
X123948085Y-75145917D01*
X123929485Y-77145394D01*
X122666322Y-77129200D01*
X122643068Y-75180522D01*
X122639837Y-75151295D01*
X122630966Y-75123260D01*
X122616796Y-75097494D01*
X122597872Y-75074988D01*
X122574920Y-75056606D01*
X122548824Y-75043055D01*
X122520585Y-75034855D01*
X122493667Y-75032313D01*
X119943667Y-75022313D01*
X119914393Y-75025081D01*
X119886220Y-75033506D01*
X119860233Y-75047266D01*
X119837430Y-75065831D01*
X119818686Y-75088488D01*
X119804723Y-75114366D01*
X119796077Y-75142472D01*
X119793079Y-75171951D01*
X119788441Y-77101440D01*
X118370550Y-77093196D01*
X118403059Y-75114776D01*
X118400658Y-75085470D01*
X118392585Y-75057194D01*
X118379152Y-75031037D01*
X118360873Y-75008003D01*
X118338452Y-74988978D01*
X118312751Y-74974692D01*
X118284756Y-74965695D01*
X118253654Y-74962313D01*
X115643654Y-74952313D01*
X115642663Y-74952313D01*
X113986805Y-74956900D01*
X113968074Y-72756035D01*
X113964942Y-72726797D01*
X113956167Y-72698732D01*
X113942086Y-72672918D01*
X113923239Y-72650347D01*
X113900350Y-72631887D01*
X113874300Y-72618247D01*
X113846089Y-72609950D01*
X113819016Y-72607315D01*
X101165237Y-72528233D01*
X101164513Y-68332237D01*
X107178715Y-68366353D01*
X107313800Y-68376002D01*
X107336944Y-68375865D01*
X107389914Y-68371451D01*
X113812854Y-68441374D01*
X113842147Y-68438811D01*
X113870378Y-68430582D01*
X113896460Y-68417003D01*
X113919392Y-68398597D01*
X113938293Y-68376071D01*
X113952436Y-68350291D01*
X113961278Y-68322246D01*
X113964486Y-68290713D01*
X113955189Y-66208229D01*
X115597827Y-66281235D01*
X115608595Y-66281327D01*
X118528595Y-66201327D01*
X118557769Y-66197644D01*
X118585663Y-66188341D01*
X118611207Y-66173774D01*
X118633418Y-66154504D01*
X118651443Y-66131272D01*
X118664589Y-66104969D01*
X118672351Y-66076606D01*
X118674484Y-66050417D01*
X118662584Y-64202190D01*
X119963739Y-64201467D01*
X119954489Y-66060637D01*
G37*
D30*
X123640034Y-92513204D02*
X123643541Y-92542400D01*
X123652676Y-92570350D01*
X123667088Y-92595981D01*
X123686224Y-92618308D01*
X123709348Y-92636472D01*
X123735571Y-92649777D01*
X123763886Y-92657709D01*
X123789582Y-92659999D01*
X136209838Y-92694582D01*
X136200161Y-101660582D01*
X123499416Y-101710001D01*
X123470164Y-101712997D01*
X123442059Y-101721642D01*
X123416180Y-101735605D01*
X123393522Y-101754347D01*
X123374956Y-101777150D01*
X123361196Y-101803137D01*
X123352769Y-101831309D01*
X123350007Y-101861478D01*
X123368475Y-103736014D01*
X122127802Y-103703789D01*
X122099983Y-101867728D01*
X122096658Y-101838511D01*
X122087696Y-101810505D01*
X122073444Y-101784785D01*
X122054447Y-101762339D01*
X122031436Y-101744031D01*
X122005296Y-101730564D01*
X121977031Y-101722456D01*
X121950515Y-101720001D01*
X119035515Y-101710001D01*
X119006241Y-101712783D01*
X118978073Y-101721222D01*
X118952093Y-101734994D01*
X118929298Y-101753571D01*
X118910566Y-101776237D01*
X118896616Y-101802122D01*
X118887983Y-101830232D01*
X118885022Y-101857452D01*
X118852567Y-103767685D01*
X117545729Y-103747329D01*
X117554998Y-101865739D01*
X117552260Y-101836462D01*
X117543863Y-101808281D01*
X117530129Y-101782280D01*
X117511587Y-101759458D01*
X117488949Y-101740692D01*
X117463084Y-101726703D01*
X117434988Y-101718028D01*
X117411129Y-101715125D01*
X116209851Y-101666002D01*
X116205000Y-96979845D01*
X116202087Y-96950584D01*
X116193522Y-96922454D01*
X116179634Y-96896535D01*
X116160956Y-96873824D01*
X116138206Y-96855193D01*
X116112259Y-96841359D01*
X116084111Y-96832852D01*
X116055117Y-96830000D01*
X103408998Y-96820116D01*
X103381015Y-92650649D01*
X110719357Y-92682124D01*
X110720074Y-92682125D01*
X117220074Y-92678938D01*
X117249336Y-92676041D01*
X117277470Y-92667492D01*
X117303397Y-92653618D01*
X117326118Y-92634952D01*
X117344761Y-92612212D01*
X117358610Y-92586273D01*
X117367132Y-92558129D01*
X117369978Y-92526362D01*
X117332640Y-90352428D01*
X118926099Y-90377588D01*
X118870051Y-92526088D01*
X118872169Y-92555417D01*
X118879968Y-92583769D01*
X118893149Y-92610055D01*
X118911204Y-92633264D01*
X118933440Y-92652505D01*
X118959003Y-92667038D01*
X118986910Y-92676305D01*
X119019481Y-92679999D01*
X121909481Y-92689999D01*
X121938754Y-92687218D01*
X121966923Y-92678780D01*
X121992903Y-92665008D01*
X122015698Y-92646432D01*
X122034431Y-92623767D01*
X122048382Y-92597882D01*
X122057016Y-92569772D01*
X122059988Y-92538093D01*
X122031909Y-90329186D01*
X123593188Y-90320792D01*
X123640034Y-92513204D01*
D12*
G36*
X123640034Y-92513204D02*
G01*
X123643541Y-92542400D01*
X123652676Y-92570350D01*
X123667088Y-92595981D01*
X123686224Y-92618308D01*
X123709348Y-92636472D01*
X123735571Y-92649777D01*
X123763886Y-92657709D01*
X123789582Y-92659999D01*
X136209838Y-92694582D01*
X136200161Y-101660582D01*
X123499416Y-101710001D01*
X123470164Y-101712997D01*
X123442059Y-101721642D01*
X123416180Y-101735605D01*
X123393522Y-101754347D01*
X123374956Y-101777150D01*
X123361196Y-101803137D01*
X123352769Y-101831309D01*
X123350007Y-101861478D01*
X123368475Y-103736014D01*
X122127802Y-103703789D01*
X122099983Y-101867728D01*
X122096658Y-101838511D01*
X122087696Y-101810505D01*
X122073444Y-101784785D01*
X122054447Y-101762339D01*
X122031436Y-101744031D01*
X122005296Y-101730564D01*
X121977031Y-101722456D01*
X121950515Y-101720001D01*
X119035515Y-101710001D01*
X119006241Y-101712783D01*
X118978073Y-101721222D01*
X118952093Y-101734994D01*
X118929298Y-101753571D01*
X118910566Y-101776237D01*
X118896616Y-101802122D01*
X118887983Y-101830232D01*
X118885022Y-101857452D01*
X118852567Y-103767685D01*
X117545729Y-103747329D01*
X117554998Y-101865739D01*
X117552260Y-101836462D01*
X117543863Y-101808281D01*
X117530129Y-101782280D01*
X117511587Y-101759458D01*
X117488949Y-101740692D01*
X117463084Y-101726703D01*
X117434988Y-101718028D01*
X117411129Y-101715125D01*
X116209851Y-101666002D01*
X116205000Y-96979845D01*
X116202087Y-96950584D01*
X116193522Y-96922454D01*
X116179634Y-96896535D01*
X116160956Y-96873824D01*
X116138206Y-96855193D01*
X116112259Y-96841359D01*
X116084111Y-96832852D01*
X116055117Y-96830000D01*
X103408998Y-96820116D01*
X103381015Y-92650649D01*
X110719357Y-92682124D01*
X110720074Y-92682125D01*
X117220074Y-92678938D01*
X117249336Y-92676041D01*
X117277470Y-92667492D01*
X117303397Y-92653618D01*
X117326118Y-92634952D01*
X117344761Y-92612212D01*
X117358610Y-92586273D01*
X117367132Y-92558129D01*
X117369978Y-92526362D01*
X117332640Y-90352428D01*
X118926099Y-90377588D01*
X118870051Y-92526088D01*
X118872169Y-92555417D01*
X118879968Y-92583769D01*
X118893149Y-92610055D01*
X118911204Y-92633264D01*
X118933440Y-92652505D01*
X118959003Y-92667038D01*
X118986910Y-92676305D01*
X119019481Y-92679999D01*
X121909481Y-92689999D01*
X121938754Y-92687218D01*
X121966923Y-92678780D01*
X121992903Y-92665008D01*
X122015698Y-92646432D01*
X122034431Y-92623767D01*
X122048382Y-92597882D01*
X122057016Y-92569772D01*
X122059988Y-92538093D01*
X122031909Y-90329186D01*
X123593188Y-90320792D01*
X123640034Y-92513204D01*
G37*
D30*
X124470032Y-49328116D02*
X124473522Y-49357314D01*
X124482641Y-49385269D01*
X124497038Y-49410909D01*
X124516160Y-49433247D01*
X124539273Y-49451425D01*
X124565489Y-49464745D01*
X124593799Y-49472694D01*
X124620873Y-49474997D01*
X159682957Y-49270858D01*
X159797034Y-55031745D01*
X134844239Y-55318001D01*
X124580117Y-55310000D01*
X124550851Y-55312859D01*
X124522706Y-55321373D01*
X124496762Y-55335215D01*
X124474017Y-55353851D01*
X124455345Y-55376567D01*
X124441463Y-55402489D01*
X124432905Y-55430622D01*
X124430009Y-55458343D01*
X124411660Y-57118929D01*
X123319999Y-57111075D01*
X123319982Y-55467336D01*
X123317099Y-55438073D01*
X123308563Y-55409934D01*
X123294702Y-55384001D01*
X123276047Y-55361271D01*
X123253316Y-55342617D01*
X123227383Y-55328755D01*
X123199244Y-55320220D01*
X123170356Y-55317338D01*
X120230374Y-55310000D01*
X120201104Y-55312810D01*
X120172944Y-55321275D01*
X120146976Y-55335072D01*
X120124199Y-55353670D01*
X120105488Y-55376353D01*
X120091562Y-55402252D01*
X120082956Y-55430369D01*
X120080000Y-55460000D01*
X120080000Y-57089016D01*
X118849161Y-57080972D01*
X118839998Y-55459153D01*
X118836950Y-55429906D01*
X118828255Y-55401815D01*
X118814248Y-55375961D01*
X118795465Y-55353336D01*
X118772630Y-55334811D01*
X118746619Y-55321096D01*
X118718432Y-55312719D01*
X118690092Y-55310000D01*
X110575092Y-55305000D01*
X110545827Y-55307864D01*
X110517683Y-55316383D01*
X110491741Y-55330228D01*
X110468999Y-55348869D01*
X110450331Y-55371588D01*
X110436453Y-55397512D01*
X110427900Y-55425646D01*
X110425003Y-55456022D01*
X110493975Y-65575201D01*
X99531009Y-65589799D01*
X99638998Y-49460235D01*
X109624613Y-49475947D01*
X109624613Y-49475946D01*
X118839608Y-49499999D01*
X118868879Y-49497194D01*
X118897041Y-49488731D01*
X118923010Y-49474938D01*
X118945789Y-49456343D01*
X118964502Y-49433661D01*
X118978432Y-49407764D01*
X118987041Y-49379647D01*
X118990000Y-49350097D01*
X118991153Y-47566629D01*
X120179804Y-47569623D01*
X120177500Y-49327303D01*
X120180344Y-49356571D01*
X120188843Y-49384721D01*
X120202670Y-49410672D01*
X120221295Y-49433427D01*
X120244001Y-49452111D01*
X120269916Y-49466007D01*
X120298044Y-49474579D01*
X120326829Y-49477498D01*
X123119329Y-49489998D01*
X123148605Y-49487247D01*
X123176782Y-49478837D01*
X123202776Y-49465092D01*
X123225590Y-49446540D01*
X123244346Y-49423893D01*
X123258324Y-49398022D01*
X123266985Y-49369922D01*
X123270000Y-49339613D01*
X123265388Y-47550000D01*
X124433084Y-47550000D01*
X124470032Y-49328116D01*
D12*
G36*
X124470032Y-49328116D02*
G01*
X124473522Y-49357314D01*
X124482641Y-49385269D01*
X124497038Y-49410909D01*
X124516160Y-49433247D01*
X124539273Y-49451425D01*
X124565489Y-49464745D01*
X124593799Y-49472694D01*
X124620873Y-49474997D01*
X159682957Y-49270858D01*
X159797034Y-55031745D01*
X134844239Y-55318001D01*
X124580117Y-55310000D01*
X124550851Y-55312859D01*
X124522706Y-55321373D01*
X124496762Y-55335215D01*
X124474017Y-55353851D01*
X124455345Y-55376567D01*
X124441463Y-55402489D01*
X124432905Y-55430622D01*
X124430009Y-55458343D01*
X124411660Y-57118929D01*
X123319999Y-57111075D01*
X123319982Y-55467336D01*
X123317099Y-55438073D01*
X123308563Y-55409934D01*
X123294702Y-55384001D01*
X123276047Y-55361271D01*
X123253316Y-55342617D01*
X123227383Y-55328755D01*
X123199244Y-55320220D01*
X123170356Y-55317338D01*
X120230374Y-55310000D01*
X120201104Y-55312810D01*
X120172944Y-55321275D01*
X120146976Y-55335072D01*
X120124199Y-55353670D01*
X120105488Y-55376353D01*
X120091562Y-55402252D01*
X120082956Y-55430369D01*
X120080000Y-55460000D01*
X120080000Y-57089016D01*
X118849161Y-57080972D01*
X118839998Y-55459153D01*
X118836950Y-55429906D01*
X118828255Y-55401815D01*
X118814248Y-55375961D01*
X118795465Y-55353336D01*
X118772630Y-55334811D01*
X118746619Y-55321096D01*
X118718432Y-55312719D01*
X118690092Y-55310000D01*
X110575092Y-55305000D01*
X110545827Y-55307864D01*
X110517683Y-55316383D01*
X110491741Y-55330228D01*
X110468999Y-55348869D01*
X110450331Y-55371588D01*
X110436453Y-55397512D01*
X110427900Y-55425646D01*
X110425003Y-55456022D01*
X110493975Y-65575201D01*
X99531009Y-65589799D01*
X99638998Y-49460235D01*
X109624613Y-49475947D01*
X109624613Y-49475946D01*
X118839608Y-49499999D01*
X118868879Y-49497194D01*
X118897041Y-49488731D01*
X118923010Y-49474938D01*
X118945789Y-49456343D01*
X118964502Y-49433661D01*
X118978432Y-49407764D01*
X118987041Y-49379647D01*
X118990000Y-49350097D01*
X118991153Y-47566629D01*
X120179804Y-47569623D01*
X120177500Y-49327303D01*
X120180344Y-49356571D01*
X120188843Y-49384721D01*
X120202670Y-49410672D01*
X120221295Y-49433427D01*
X120244001Y-49452111D01*
X120269916Y-49466007D01*
X120298044Y-49474579D01*
X120326829Y-49477498D01*
X123119329Y-49489998D01*
X123148605Y-49487247D01*
X123176782Y-49478837D01*
X123202776Y-49465092D01*
X123225590Y-49446540D01*
X123244346Y-49423893D01*
X123258324Y-49398022D01*
X123266985Y-49369922D01*
X123270000Y-49339613D01*
X123265388Y-47550000D01*
X124433084Y-47550000D01*
X124470032Y-49328116D01*
G37*
D30*
X118500756Y-115447855D02*
X118510002Y-117250769D01*
X118513034Y-117280018D01*
X118521714Y-117308112D01*
X118535709Y-117333974D01*
X118554479Y-117356609D01*
X118577305Y-117375146D01*
X118603309Y-117388874D01*
X118631491Y-117397266D01*
X118659057Y-117399997D01*
X121839057Y-117419997D01*
X121868338Y-117417299D01*
X121896530Y-117408940D01*
X121922549Y-117395242D01*
X121945397Y-117376731D01*
X121964194Y-117354118D01*
X121978218Y-117328273D01*
X121986931Y-117300188D01*
X121989983Y-117272284D01*
X122017700Y-115452205D01*
X123070748Y-115467806D01*
X123080002Y-117290761D01*
X123083033Y-117320010D01*
X123091711Y-117348105D01*
X123105704Y-117373968D01*
X123124474Y-117396603D01*
X123147299Y-117415142D01*
X123173302Y-117428872D01*
X123201484Y-117437264D01*
X123229019Y-117439997D01*
X132250491Y-117499025D01*
X132299500Y-132348700D01*
X122138142Y-132261270D01*
X122009988Y-122068114D01*
X122006738Y-122038889D01*
X121997849Y-122010860D01*
X121983663Y-121985103D01*
X121964724Y-121962609D01*
X121941761Y-121944242D01*
X121915656Y-121930707D01*
X121887412Y-121922526D01*
X121861311Y-121920006D01*
X101411604Y-121741319D01*
X101458395Y-117380373D01*
X117279624Y-117420000D01*
X117308895Y-117417191D01*
X117337055Y-117408725D01*
X117363023Y-117394929D01*
X117385800Y-117376331D01*
X117404511Y-117353648D01*
X117418438Y-117327749D01*
X117427044Y-117299632D01*
X117429997Y-117269125D01*
X117419285Y-115432200D01*
X118500756Y-115447855D01*
D12*
G36*
X118500756Y-115447855D02*
G01*
X118510002Y-117250769D01*
X118513034Y-117280018D01*
X118521714Y-117308112D01*
X118535709Y-117333974D01*
X118554479Y-117356609D01*
X118577305Y-117375146D01*
X118603309Y-117388874D01*
X118631491Y-117397266D01*
X118659057Y-117399997D01*
X121839057Y-117419997D01*
X121868338Y-117417299D01*
X121896530Y-117408940D01*
X121922549Y-117395242D01*
X121945397Y-117376731D01*
X121964194Y-117354118D01*
X121978218Y-117328273D01*
X121986931Y-117300188D01*
X121989983Y-117272284D01*
X122017700Y-115452205D01*
X123070748Y-115467806D01*
X123080002Y-117290761D01*
X123083033Y-117320010D01*
X123091711Y-117348105D01*
X123105704Y-117373968D01*
X123124474Y-117396603D01*
X123147299Y-117415142D01*
X123173302Y-117428872D01*
X123201484Y-117437264D01*
X123229019Y-117439997D01*
X132250491Y-117499025D01*
X132299500Y-132348700D01*
X122138142Y-132261270D01*
X122009988Y-122068114D01*
X122006738Y-122038889D01*
X121997849Y-122010860D01*
X121983663Y-121985103D01*
X121964724Y-121962609D01*
X121941761Y-121944242D01*
X121915656Y-121930707D01*
X121887412Y-121922526D01*
X121861311Y-121920006D01*
X101411604Y-121741319D01*
X101458395Y-117380373D01*
X117279624Y-117420000D01*
X117308895Y-117417191D01*
X117337055Y-117408725D01*
X117363023Y-117394929D01*
X117385800Y-117376331D01*
X117404511Y-117353648D01*
X117418438Y-117327749D01*
X117427044Y-117299632D01*
X117429997Y-117269125D01*
X117419285Y-115432200D01*
X118500756Y-115447855D01*
G37*
M02*
