%TF.GenerationSoftware,KiCad,Pcbnew,(5.1.12)-1*%
%TF.CreationDate,2023-12-01T15:42:45+05:30*%
%TF.ProjectId,DCCB PCB-V3,44434342-2050-4434-922d-56332e6b6963,rev?*%
%TF.SameCoordinates,Original*%
%TF.FileFunction,Legend,Bot*%
%TF.FilePolarity,Positive*%
%FSLAX46Y46*%
G04 Gerber Fmt 4.6, Leading zero omitted, Abs format (unit mm)*
G04 Created by KiCad (PCBNEW (5.1.12)-1) date 2023-12-01 15:42:45*
%MOMM*%
%LPD*%
G01*
G04 APERTURE LIST*
%ADD10C,0.100000*%
%ADD11C,0.200000*%
%ADD12C,0.254000*%
G04 APERTURE END LIST*
D10*
%TO.C,IC15*%
X144140000Y-96020000D02*
X144540000Y-96020000D01*
X148840000Y-91720000D02*
X148840000Y-91320000D01*
X144140000Y-87020000D02*
X144540000Y-87020000D01*
X139840000Y-91720000D02*
X139840000Y-91320000D01*
%TO.C,IC14*%
X143790000Y-115480000D02*
X144190000Y-115480000D01*
X148490000Y-111180000D02*
X148490000Y-110780000D01*
X143790000Y-106480000D02*
X144190000Y-106480000D01*
X139490000Y-111180000D02*
X139490000Y-110780000D01*
%TO.C,IC13*%
X143740000Y-135380000D02*
X144140000Y-135380000D01*
X148440000Y-131080000D02*
X148440000Y-130680000D01*
X143740000Y-126380000D02*
X144140000Y-126380000D01*
X139440000Y-131080000D02*
X139440000Y-130680000D01*
%TO.C,IC12*%
X167820000Y-135690000D02*
X168220000Y-135690000D01*
X172520000Y-131390000D02*
X172520000Y-130990000D01*
X167820000Y-126690000D02*
X168220000Y-126690000D01*
X163520000Y-131390000D02*
X163520000Y-130990000D01*
%TO.C,IC11*%
X144110000Y-80300000D02*
X144510000Y-80300000D01*
X148810000Y-76000000D02*
X148810000Y-75600000D01*
X144110000Y-71300000D02*
X144510000Y-71300000D01*
X139810000Y-76000000D02*
X139810000Y-75600000D01*
%TO.C,IC10*%
X185900000Y-135790000D02*
X186300000Y-135790000D01*
X190600000Y-131490000D02*
X190600000Y-131090000D01*
X185900000Y-126790000D02*
X186300000Y-126790000D01*
X181600000Y-131490000D02*
X181600000Y-131090000D01*
%TO.C,IC7*%
X210680000Y-131500000D02*
X210680000Y-131900000D01*
X214980000Y-136200000D02*
X215380000Y-136200000D01*
X219680000Y-131500000D02*
X219680000Y-131900000D01*
X214980000Y-127200000D02*
X215380000Y-127200000D01*
D11*
%TO.C,J5*%
X38100000Y-108140000D02*
X44350000Y-108140000D01*
X38100000Y-118140000D02*
X38100000Y-108140000D01*
X50600000Y-118140000D02*
X38100000Y-118140000D01*
X50600000Y-110640000D02*
X50600000Y-118140000D01*
%TO.C,R3*%
X210450000Y-75480000D02*
X188450000Y-75480000D01*
X188450000Y-75480000D02*
X188450000Y-84980000D01*
X188450000Y-84980000D02*
X210450000Y-84980000D01*
X210450000Y-84980000D02*
X210450000Y-75480000D01*
X216360000Y-80230000D02*
X210450000Y-80230000D01*
X188450000Y-80230000D02*
X181640000Y-80230000D01*
%TO.C,R2*%
X210520000Y-87860000D02*
X188520000Y-87860000D01*
X188520000Y-87860000D02*
X188520000Y-97360000D01*
X188520000Y-97360000D02*
X210520000Y-97360000D01*
X210520000Y-97360000D02*
X210520000Y-87860000D01*
X216430000Y-92610000D02*
X210520000Y-92610000D01*
X188520000Y-92610000D02*
X181710000Y-92610000D01*
%TO.C,R1*%
X210390000Y-63560000D02*
X188390000Y-63560000D01*
X188390000Y-63560000D02*
X188390000Y-73060000D01*
X188390000Y-73060000D02*
X210390000Y-73060000D01*
X210390000Y-73060000D02*
X210390000Y-63560000D01*
X216300000Y-68310000D02*
X210390000Y-68310000D01*
X188390000Y-68310000D02*
X181580000Y-68310000D01*
%TO.C,IC15*%
D12*
X146184523Y-92094523D02*
X146184523Y-90824523D01*
X144854047Y-91973571D02*
X144914523Y-92034047D01*
X145095952Y-92094523D01*
X145216904Y-92094523D01*
X145398333Y-92034047D01*
X145519285Y-91913095D01*
X145579761Y-91792142D01*
X145640238Y-91550238D01*
X145640238Y-91368809D01*
X145579761Y-91126904D01*
X145519285Y-91005952D01*
X145398333Y-90885000D01*
X145216904Y-90824523D01*
X145095952Y-90824523D01*
X144914523Y-90885000D01*
X144854047Y-90945476D01*
X143644523Y-92094523D02*
X144370238Y-92094523D01*
X144007380Y-92094523D02*
X144007380Y-90824523D01*
X144128333Y-91005952D01*
X144249285Y-91126904D01*
X144370238Y-91187380D01*
X142495476Y-90824523D02*
X143100238Y-90824523D01*
X143160714Y-91429285D01*
X143100238Y-91368809D01*
X142979285Y-91308333D01*
X142676904Y-91308333D01*
X142555952Y-91368809D01*
X142495476Y-91429285D01*
X142435000Y-91550238D01*
X142435000Y-91852619D01*
X142495476Y-91973571D01*
X142555952Y-92034047D01*
X142676904Y-92094523D01*
X142979285Y-92094523D01*
X143100238Y-92034047D01*
X143160714Y-91973571D01*
%TO.C,IC14*%
X145834523Y-111554523D02*
X145834523Y-110284523D01*
X144504047Y-111433571D02*
X144564523Y-111494047D01*
X144745952Y-111554523D01*
X144866904Y-111554523D01*
X145048333Y-111494047D01*
X145169285Y-111373095D01*
X145229761Y-111252142D01*
X145290238Y-111010238D01*
X145290238Y-110828809D01*
X145229761Y-110586904D01*
X145169285Y-110465952D01*
X145048333Y-110345000D01*
X144866904Y-110284523D01*
X144745952Y-110284523D01*
X144564523Y-110345000D01*
X144504047Y-110405476D01*
X143294523Y-111554523D02*
X144020238Y-111554523D01*
X143657380Y-111554523D02*
X143657380Y-110284523D01*
X143778333Y-110465952D01*
X143899285Y-110586904D01*
X144020238Y-110647380D01*
X142205952Y-110707857D02*
X142205952Y-111554523D01*
X142508333Y-110224047D02*
X142810714Y-111131190D01*
X142024523Y-111131190D01*
%TO.C,IC13*%
X145654523Y-125144523D02*
X145654523Y-123874523D01*
X144324047Y-125023571D02*
X144384523Y-125084047D01*
X144565952Y-125144523D01*
X144686904Y-125144523D01*
X144868333Y-125084047D01*
X144989285Y-124963095D01*
X145049761Y-124842142D01*
X145110238Y-124600238D01*
X145110238Y-124418809D01*
X145049761Y-124176904D01*
X144989285Y-124055952D01*
X144868333Y-123935000D01*
X144686904Y-123874523D01*
X144565952Y-123874523D01*
X144384523Y-123935000D01*
X144324047Y-123995476D01*
X143114523Y-125144523D02*
X143840238Y-125144523D01*
X143477380Y-125144523D02*
X143477380Y-123874523D01*
X143598333Y-124055952D01*
X143719285Y-124176904D01*
X143840238Y-124237380D01*
X142691190Y-123874523D02*
X141905000Y-123874523D01*
X142328333Y-124358333D01*
X142146904Y-124358333D01*
X142025952Y-124418809D01*
X141965476Y-124479285D01*
X141905000Y-124600238D01*
X141905000Y-124902619D01*
X141965476Y-125023571D01*
X142025952Y-125084047D01*
X142146904Y-125144523D01*
X142509761Y-125144523D01*
X142630714Y-125084047D01*
X142691190Y-125023571D01*
%TO.C,IC12*%
X169544523Y-125794523D02*
X169544523Y-124524523D01*
X168214047Y-125673571D02*
X168274523Y-125734047D01*
X168455952Y-125794523D01*
X168576904Y-125794523D01*
X168758333Y-125734047D01*
X168879285Y-125613095D01*
X168939761Y-125492142D01*
X169000238Y-125250238D01*
X169000238Y-125068809D01*
X168939761Y-124826904D01*
X168879285Y-124705952D01*
X168758333Y-124585000D01*
X168576904Y-124524523D01*
X168455952Y-124524523D01*
X168274523Y-124585000D01*
X168214047Y-124645476D01*
X167004523Y-125794523D02*
X167730238Y-125794523D01*
X167367380Y-125794523D02*
X167367380Y-124524523D01*
X167488333Y-124705952D01*
X167609285Y-124826904D01*
X167730238Y-124887380D01*
X166520714Y-124645476D02*
X166460238Y-124585000D01*
X166339285Y-124524523D01*
X166036904Y-124524523D01*
X165915952Y-124585000D01*
X165855476Y-124645476D01*
X165795000Y-124766428D01*
X165795000Y-124887380D01*
X165855476Y-125068809D01*
X166581190Y-125794523D01*
X165795000Y-125794523D01*
%TO.C,IC11*%
X137464523Y-72314523D02*
X137464523Y-71044523D01*
X136134047Y-72193571D02*
X136194523Y-72254047D01*
X136375952Y-72314523D01*
X136496904Y-72314523D01*
X136678333Y-72254047D01*
X136799285Y-72133095D01*
X136859761Y-72012142D01*
X136920238Y-71770238D01*
X136920238Y-71588809D01*
X136859761Y-71346904D01*
X136799285Y-71225952D01*
X136678333Y-71105000D01*
X136496904Y-71044523D01*
X136375952Y-71044523D01*
X136194523Y-71105000D01*
X136134047Y-71165476D01*
X134924523Y-72314523D02*
X135650238Y-72314523D01*
X135287380Y-72314523D02*
X135287380Y-71044523D01*
X135408333Y-71225952D01*
X135529285Y-71346904D01*
X135650238Y-71407380D01*
X133715000Y-72314523D02*
X134440714Y-72314523D01*
X134077857Y-72314523D02*
X134077857Y-71044523D01*
X134198809Y-71225952D01*
X134319761Y-71346904D01*
X134440714Y-71407380D01*
%TO.C,IC10*%
X187734523Y-126044523D02*
X187734523Y-124774523D01*
X186404047Y-125923571D02*
X186464523Y-125984047D01*
X186645952Y-126044523D01*
X186766904Y-126044523D01*
X186948333Y-125984047D01*
X187069285Y-125863095D01*
X187129761Y-125742142D01*
X187190238Y-125500238D01*
X187190238Y-125318809D01*
X187129761Y-125076904D01*
X187069285Y-124955952D01*
X186948333Y-124835000D01*
X186766904Y-124774523D01*
X186645952Y-124774523D01*
X186464523Y-124835000D01*
X186404047Y-124895476D01*
X185194523Y-126044523D02*
X185920238Y-126044523D01*
X185557380Y-126044523D02*
X185557380Y-124774523D01*
X185678333Y-124955952D01*
X185799285Y-125076904D01*
X185920238Y-125137380D01*
X184408333Y-124774523D02*
X184287380Y-124774523D01*
X184166428Y-124835000D01*
X184105952Y-124895476D01*
X184045476Y-125016428D01*
X183985000Y-125258333D01*
X183985000Y-125560714D01*
X184045476Y-125802619D01*
X184105952Y-125923571D01*
X184166428Y-125984047D01*
X184287380Y-126044523D01*
X184408333Y-126044523D01*
X184529285Y-125984047D01*
X184589761Y-125923571D01*
X184650238Y-125802619D01*
X184710714Y-125560714D01*
X184710714Y-125258333D01*
X184650238Y-125016428D01*
X184589761Y-124895476D01*
X184529285Y-124835000D01*
X184408333Y-124774523D01*
%TO.C,IC7*%
X215674523Y-137610238D02*
X214404523Y-137610238D01*
X215553571Y-138940714D02*
X215614047Y-138880238D01*
X215674523Y-138698809D01*
X215674523Y-138577857D01*
X215614047Y-138396428D01*
X215493095Y-138275476D01*
X215372142Y-138215000D01*
X215130238Y-138154523D01*
X214948809Y-138154523D01*
X214706904Y-138215000D01*
X214585952Y-138275476D01*
X214465000Y-138396428D01*
X214404523Y-138577857D01*
X214404523Y-138698809D01*
X214465000Y-138880238D01*
X214525476Y-138940714D01*
X214404523Y-139364047D02*
X214404523Y-140210714D01*
X215674523Y-139666428D01*
%TO.C,J5*%
X43654523Y-110216666D02*
X44561666Y-110216666D01*
X44743095Y-110156190D01*
X44864047Y-110035238D01*
X44924523Y-109853809D01*
X44924523Y-109732857D01*
X43654523Y-111426190D02*
X43654523Y-110821428D01*
X44259285Y-110760952D01*
X44198809Y-110821428D01*
X44138333Y-110942380D01*
X44138333Y-111244761D01*
X44198809Y-111365714D01*
X44259285Y-111426190D01*
X44380238Y-111486666D01*
X44682619Y-111486666D01*
X44803571Y-111426190D01*
X44864047Y-111365714D01*
X44924523Y-111244761D01*
X44924523Y-110942380D01*
X44864047Y-110821428D01*
X44803571Y-110760952D01*
%TO.C,R3*%
X216561666Y-80624523D02*
X216985000Y-80019761D01*
X217287380Y-80624523D02*
X217287380Y-79354523D01*
X216803571Y-79354523D01*
X216682619Y-79415000D01*
X216622142Y-79475476D01*
X216561666Y-79596428D01*
X216561666Y-79777857D01*
X216622142Y-79898809D01*
X216682619Y-79959285D01*
X216803571Y-80019761D01*
X217287380Y-80019761D01*
X216138333Y-79354523D02*
X215352142Y-79354523D01*
X215775476Y-79838333D01*
X215594047Y-79838333D01*
X215473095Y-79898809D01*
X215412619Y-79959285D01*
X215352142Y-80080238D01*
X215352142Y-80382619D01*
X215412619Y-80503571D01*
X215473095Y-80564047D01*
X215594047Y-80624523D01*
X215956904Y-80624523D01*
X216077857Y-80564047D01*
X216138333Y-80503571D01*
%TO.C,R2*%
X216631666Y-93004523D02*
X217055000Y-92399761D01*
X217357380Y-93004523D02*
X217357380Y-91734523D01*
X216873571Y-91734523D01*
X216752619Y-91795000D01*
X216692142Y-91855476D01*
X216631666Y-91976428D01*
X216631666Y-92157857D01*
X216692142Y-92278809D01*
X216752619Y-92339285D01*
X216873571Y-92399761D01*
X217357380Y-92399761D01*
X216147857Y-91855476D02*
X216087380Y-91795000D01*
X215966428Y-91734523D01*
X215664047Y-91734523D01*
X215543095Y-91795000D01*
X215482619Y-91855476D01*
X215422142Y-91976428D01*
X215422142Y-92097380D01*
X215482619Y-92278809D01*
X216208333Y-93004523D01*
X215422142Y-93004523D01*
%TO.C,R1*%
X216501666Y-68704523D02*
X216925000Y-68099761D01*
X217227380Y-68704523D02*
X217227380Y-67434523D01*
X216743571Y-67434523D01*
X216622619Y-67495000D01*
X216562142Y-67555476D01*
X216501666Y-67676428D01*
X216501666Y-67857857D01*
X216562142Y-67978809D01*
X216622619Y-68039285D01*
X216743571Y-68099761D01*
X217227380Y-68099761D01*
X215292142Y-68704523D02*
X216017857Y-68704523D01*
X215655000Y-68704523D02*
X215655000Y-67434523D01*
X215775952Y-67615952D01*
X215896904Y-67736904D01*
X216017857Y-67797380D01*
%TD*%
M02*
