  0
SECTION
  2
HEADER
  9
$ACADVER
  1
AC1015
  9
$ACADMAINTVER
 70
     6
  9
$DWGCODEPAGE
  3
ANSI_1252
  9
$INSBASE
 10
0.0
 20
0.0
 30
0.0
  9
$EXTMIN
 10
0.0
 20
0.0
 30
0.0
  9
$EXTMAX
 10
420.0
 20
297.0
 30
0.0
  9
$LIMMIN
 10
0.0
 20
0.0
  9
$LIMMAX
 10
420.0
 20
297.0
  9
$ORTHOMODE
 70
     0
  9
$REGENMODE
 70
     1
  9
$FILLMODE
 70
     1
  9
$QTEXTMODE
 70
     0
  9
$MIRRTEXT
 70
     1
  9
$LTSCALE
 40
1.0
  9
$ATTMODE
 70
     1
  9
$TEXTSIZE
 40
3.5
  9
$TRACEWID
 40
1.0
  9
$TEXTSTYLE
  7
Standard
  9
$CLAYER
  8
0
  9
$CELTYPE
  6
ByLayer
  9
$CECOLOR
 62
   256
  9
$CELTSCALE
 40
1.0
  9
$DISPSILH
 70
     0
  9
$DIMSCALE
 40
1.0
  9
$DIMASZ
 40
3.302
  9
$DIMEXO
 40
1.0
  9
$DIMDLI
 40
3.75
  9
$DIMRND
 40
0.0
  9
$DIMDLE
 40
0.0
  9
$DIMEXE
 40
1.0
  9
$DIMTP
 40
0.0
  9
$DIMTM
 40
0.0
  9
$DIMTXT
 40
3.5
  9
$DIMCEN
 40
2.5
  9
$DIMTSZ
 40
0.0
  9
$DIMTOL
 70
     0
  9
$DIMLIM
 70
     0
  9
$DIMTIH
 70
     1
  9
$DIMTOH
 70
     1
  9
$DIMSE1
 70
     0
  9
$DIMSE2
 70
     0
  9
$DIMTAD
 70
     1
  9
$DIMZIN
 70
     1
  9
$DIMBLK
  1

  9
$DIMASO
 70
     1
  9
$DIMSHO
 70
     1
  9
$DIMPOST
  1

  9
$DIMAPOST
  1

  9
$DIMALT
 70
     0
  9
$DIMALTD
 70
     3
  9
$DIMALTF
 40
0.0393700787
  9
$DIMLFAC
 40
1.0
  9
$DIMTOFL
 70
     1
  9
$DIMTVP
 40
0.0
  9
$DIMTIX
 70
     0
  9
$DIMSOXD
 70
     0
  9
$DIMSAH
 70
     0
  9
$DIMBLK1
  1

  9
$DIMBLK2
  1

  9
$DIMSTYLE
  2
ISO-25
  9
$DIMCLRD
 70
     0
  9
$DIMCLRE
 70
     0
  9
$DIMCLRT
 70
     0
  9
$DIMTFAC
 40
1.0
  9
$DIMGAP
 40
1.524
  9
$DIMJUST
 70
     0
  9
$DIMSD1
 70
     0
  9
$DIMSD2
 70
     0
  9
$DIMTOLJ
 70
     0
  9
$DIMTZIN
 70
     1
  9
$DIMALTZ
 70
     0
  9
$DIMALTTZ
 70
     0
  9
$DIMUPT
 70
     0
  9
$DIMDEC
 70
     2
  9
$DIMTDEC
 70
     2
  9
$DIMALTU
 70
     2
  9
$DIMALTTD
 70
     3
  9
$DIMTXSTY
  7
Standard
  9
$DIMAUNIT
 70
     0
  9
$DIMADEC
 70
     2
  9
$DIMALTRND
 40
0.0
  9
$DIMAZIN
 70
     0
  9
$DIMDSEP
 70
    44
  9
$DIMATFIT
 70
     3
  9
$DIMFRAC
 70
     0
  9
$DIMLDRBLK
  1

  9
$DIMLUNIT
 70
     2
  9
$DIMLWD
 70
    -2
  9
$DIMLWE
 70
    -2
  9
$DIMTMOVE
 70
     0
  9
$LUNITS
 70
     2
  9
$LUPREC
 70
     2
  9
$SKETCHINC
 40
1.0
  9
$FILLETRAD
 40
0.0
  9
$AUNITS
 70
     0
  9
$AUPREC
 70
     2
  9
$MENU
  1
.
  9
$ELEVATION
 40
0.0
  9
$PELEVATION
 40
0.0
  9
$THICKNESS
 40
0.0
  9
$LIMCHECK
 70
     0
  9
$CHAMFERA
 40
0.0
  9
$CHAMFERB
 40
0.0
  9
$CHAMFERC
 40
0.0
  9
$CHAMFERD
 40
0.0
  9
$SKPOLY
 70
     0
  9
$TDCREATE
 40
2460455.457058079
  9
$TDUCREATE
 40
2460455.227891412
  9
$TDUPDATE
 40
2460455.457058762
  9
$TDUUPDATE
 40
2460455.227892095
  9
$TDINDWG
 40
0.0000000116
  9
$TDUSRTIMER
 40
0.0000000116
  9
$USRTIMER
 70
     1
  9
$ANGBASE
 50
0.0
  9
$ANGDIR
 70
     0
  9
$PDMODE
 70
     0
  9
$PDSIZE
 40
-1.0
  9
$PLINEWID
 40
0.0
  9
$SPLFRAME
 70
     0
  9
$SPLINETYPE
 70
     6
  9
$SPLINESEGS
 70
     8
  9
$HANDSEED
  5
187
  9
$SURFTAB1
 70
     6
  9
$SURFTAB2
 70
     6
  9
$SURFTYPE
 70
     6
  9
$SURFU
 70
     6
  9
$SURFV
 70
     6
  9
$UCSBASE
  2

  9
$UCSNAME
  2

  9
$UCSORG
 10
0.0
 20
0.0
 30
0.0
  9
$UCSXDIR
 10
1.0
 20
0.0
 30
0.0
  9
$UCSYDIR
 10
0.0
 20
1.0
 30
0.0
  9
$UCSORTHOREF
  2

  9
$UCSORTHOVIEW
 70
     0
  9
$UCSORGTOP
 10
0.0
 20
0.0
 30
0.0
  9
$UCSORGBOTTOM
 10
0.0
 20
0.0
 30
0.0
  9
$UCSORGLEFT
 10
0.0
 20
0.0
 30
0.0
  9
$UCSORGRIGHT
 10
0.0
 20
0.0
 30
0.0
  9
$UCSORGFRONT
 10
0.0
 20
0.0
 30
0.0
  9
$UCSORGBACK
 10
0.0
 20
0.0
 30
0.0
  9
$PUCSBASE
  2

  9
$PUCSNAME
  2

  9
$PUCSORG
 10
0.0
 20
0.0
 30
0.0
  9
$PUCSXDIR
 10
1.0
 20
0.0
 30
0.0
  9
$PUCSYDIR
 10
0.0
 20
1.0
 30
0.0
  9
$PUCSORTHOREF
  2

  9
$PUCSORTHOVIEW
 70
     0
  9
$PUCSORGTOP
 10
0.0
 20
0.0
 30
0.0
  9
$PUCSORGBOTTOM
 10
0.0
 20
0.0
 30
0.0
  9
$PUCSORGLEFT
 10
0.0
 20
0.0
 30
0.0
  9
$PUCSORGRIGHT
 10
0.0
 20
0.0
 30
0.0
  9
$PUCSORGFRONT
 10
0.0
 20
0.0
 30
0.0
  9
$PUCSORGBACK
 10
0.0
 20
0.0
 30
0.0
  9
$USERI1
 70
     0
  9
$USERI2
 70
     0
  9
$USERI3
 70
     0
  9
$USERI4
 70
     0
  9
$USERI5
 70
     0
  9
$USERR1
 40
0.0
  9
$USERR2
 40
0.0
  9
$USERR3
 40
0.0
  9
$USERR4
 40
0.0
  9
$USERR5
 40
0.0
  9
$WORLDVIEW
 70
     1
  9
$SHADEDGE
 70
     3
  9
$SHADEDIF
 70
    70
  9
$TILEMODE
 70
     1
  9
$MAXACTVP
 70
    64
  9
$PINSBASE
 10
0.0
 20
0.0
 30
0.0
  9
$PLIMCHECK
 70
     0
  9
$PEXTMIN
 10
1.0000000000E+20
 20
1.0000000000E+20
 30
1.0000000000E+20
  9
$PEXTMAX
 10
-1.0000000000E+20
 20
-1.0000000000E+20
 30
-1.0000000000E+20
  9
$PLIMMIN
 10
0.0
 20
0.0
  9
$PLIMMAX
 10
420.0
 20
297.0
  9
$UNITMODE
 70
     0
  9
$VISRETAIN
 70
     1
  9
$PLINEGEN
 70
     0
  9
$PSLTSCALE
 70
     1
  9
$TREEDEPTH
 70
  3020
  9
$CMLSTYLE
  2
Standard
  9
$CMLJUST
 70
     0
  9
$CMLSCALE
 40
20.0
  9
$PROXYGRAPHICS
 70
     1
  9
$MEASUREMENT
 70
     1
  9
$CELWEIGHT
370
    -1
  9
$ENDCAPS
280
     0
  9
$JOINSTYLE
280
     0
  9
$LWDISPLAY
290
     1
  9
$INSUNITS
 70
     4
  9
$HYPERLINKBASE
  1

  9
$STYLESHEET
  1

  9
$XEDIT
290
     1
  9
$CEPSNTYPE
380
     0
  9
$PSTYLEMODE
290
     1
  9
$FINGERPRINTGUID
  2
{1d6c34e6-6110-4253-9d1b-a80b3e666659}
  9
$VERSIONGUID
  2
{FAEB1C32-E019-11D5-929B-00C0DF256EC4}
  9
$EXTNAMES
290
     1
  9
$PSVPSCALE
 40
0.0
  9
$OLESTARTUP
290
     0
  0
ENDSEC
  0
SECTION
  2
CLASSES
  0
CLASS
  1
ACDBDICTIONARYWDFLT
  2
AcDbDictionaryWithDefault
  3
ObjectDBX Classes
 90
        0
280
     0
281
     0
  0
CLASS
  1
VISUALSTYLE
  2
AcDbVisualStyle
  3
ObjectDBX Classes
 90
     4095
280
     0
281
     0
  0
CLASS
  1
MATERIAL
  2
AcDbMaterial
  3
ObjectDBX Classes
 90
     1153
280
     0
281
     0
  0
CLASS
  1
SCALE
  2
AcDbScale
  3
ObjectDBX Classes
 90
     1153
280
     0
281
     0
  0
CLASS
  1
TABLESTYLE
  2
AcDbTableStyle
  3
ObjectDBX Classes
 90
     4095
280
     0
281
     0
  0
CLASS
  1
MLEADERSTYLE
  2
AcDbMLeaderStyle
  3
ACDB_MLEADERSTYLE_CLASS
 90
     4095
280
     0
281
     0
  0
CLASS
  1
SUN
  2
AcDbSun
  3
SCENEOE
 90
     1153
280
     0
281
     0
  0
CLASS
  1
ACDBPLACEHOLDER
  2
AcDbPlaceHolder
  3
ObjectDBX Classes
 90
        0
280
     0
281
     0
  0
CLASS
  1
LAYOUT
  2
AcDbLayout
  3
ObjectDBX Classes
 90
        0
280
     0
281
     0
  0
ENDSEC
  0
SECTION
  2
TABLES
  0
TABLE
  2
VPORT
  5
8
330
0
100
AcDbSymbolTable
 70
     1
  0
VPORT
  5
29
330
8
100
AcDbSymbolTableRecord
100
AcDbViewportTableRecord
  2
*Active
 70
     0
 10
0.0
 20
0.0
 11
1.0
 21
1.0
 12
210.0
 22
148.5
 13
0.0
 23
0.0
 14
10.0
 24
10.0
 15
10.0
 25
10.0
 16
0.0
 26
0.0
 36
1.0
 17
0.0
 27
0.0
 37
0.0
 40
297.0
 41
1.4141414141
 42
50.0
 43
0.0
 44
0.0
 50
0.0
 51
0.0
 71
     0
 72
  2000
 73
     1
 74
     3
 75
     0
 76
     0
 77
     0
 78
     0
281
     0
 65
     1
110
0.0
120
0.0
130
0.0
111
1.0
121
0.0
131
0.0
112
0.0
122
1.0
132
0.0
 79
     0
146
0.0
  0
ENDTAB
  0
TABLE
  2
LTYPE
  5
5
330
0
100
AcDbSymbolTable
 70
     6
  0
LTYPE
  5
14
330
5
100
AcDbSymbolTableRecord
100
AcDbLinetypeTableRecord
  2
ByBlock
 70
     0
  3

 72
    65
 73
     0
 40
0.0
  0
LTYPE
  5
15
330
5
100
AcDbSymbolTableRecord
100
AcDbLinetypeTableRecord
  2
ByLayer
 70
     0
  3

 72
    65
 73
     0
 40
0.0
  0
LTYPE
  5
16
330
5
100
AcDbSymbolTableRecord
100
AcDbLinetypeTableRecord
  2
Continuous
 70
     0
  3
Solid line
 72
    65
 73
     0
 40
0.0
  0
LTYPE
  5
5E
330
5
100
AcDbSymbolTableRecord
100
AcDbLinetypeTableRecord
  2
HIDDEN
 70
     0
  3
Hidden __ __ __ __ __ __ __ __ __ __ __ __ __ __
 72
    65
 73
     2
 40
1.905
 49
1.27
 74
     0
 49
-0.635
 74
     0
  0
LTYPE
  5
5F
330
5
100
AcDbSymbolTableRecord
100
AcDbLinetypeTableRecord
  2
PHANTOM
 70
     0
  3
Phantom ______  __  __  ______  __  __  ______
 72
    65
 73
     6
 40
12.7
 49
6.35
 74
     0
 49
-1.27
 74
     0
 49
1.27
 74
     0
 49
-1.27
 74
     0
 49
1.27
 74
     0
 49
-1.27
 74
     0
  0
LTYPE
  5
60
330
5
100
AcDbSymbolTableRecord
100
AcDbLinetypeTableRecord
  2
CENTER
 70
     0
  3
Center ____ _ ____ _ ____ _ ____ _ ____ _ ____
 72
    65
 73
     4
 40
10.16
 49
6.35
 74
     0
 49
-1.27
 74
     0
 49
1.27
 74
     0
 49
-1.27
 74
     0
  0
LTYPE
  5
61
330
5
100
AcDbSymbolTableRecord
100
AcDbLinetypeTableRecord
  2
CENTERX2
 70
     0
  3
Center (2x) ________  __  ________  __  _____
 72
    65
 73
     4
 40
20.32
 49
12.7
 74
     0
 49
-2.54
 74
     0
 49
2.54
 74
     0
 49
-2.54
 74
     0
  0
LTYPE
  5
62
330
5
100
AcDbSymbolTableRecord
100
AcDbLinetypeTableRecord
  2
DOT2
 70
     0
  3
Dot (.5x) ........................................
 72
    65
 73
     2
 40
0.635
 49
0.0
 74
     0
 49
-0.635
 74
     0
  0
ENDTAB
  0
TABLE
  2
LAYER
  5
2
330
0
100
AcDbSymbolTable
 70
     4
  0
LAYER
  5
10
330
2
100
AcDbSymbolTableRecord
100
AcDbLayerTableRecord
  2
0
 70
     0
 62
     7
  6
Continuous
370
    -3
390
F
  0
LAYER
  5
63
330
2
100
AcDbSymbolTableRecord
100
AcDbLayerTableRecord
  2
SLD-0_0
 70
     0
 62
   179
  6
Continuous
370
    -3
390
F
  0
LAYER
  5
64
330
2
100
AcDbSymbolTableRecord
100
AcDbLayerTableRecord
  2
SLD-0
 70
     0
 62
   179
  6
Continuous
370
    -3
390
F
  0
LAYER
  5
65
330
2
100
AcDbSymbolTableRecord
100
AcDbLayerTableRecord
  2
FORMAT
 70
     0
 62
   179
  6
Continuous
370
    -3
390
F
  0
ENDTAB
  0
TABLE
  2
STYLE
  5
3
330
0
100
AcDbSymbolTable
 70
     6
  0
STYLE
  5
11
330
3
100
AcDbSymbolTableRecord
100
AcDbTextStyleTableRecord
  2
Standard
 70
     0
 40
0.0
 41
1.0
 50
0.0
 71
     0
 42
3.5
  3
txt
  4

  0
STYLE
  5
77
330
3
100
AcDbSymbolTableRecord
100
AcDbTextStyleTableRecord
  2
SLDTEXTSTYLE0
 70
     0
 40
0.0
 41
0.75
 50
0.0
 71
     0
 42
3.5
  3
TXT
  4

  0
STYLE
  5
D3
330
3
100
AcDbSymbolTableRecord
100
AcDbTextStyleTableRecord
  2
SLDTEXTSTYLE1
 70
     0
 40
0.0
 41
0.96
 50
0.0
 71
     0
 42
3.5
  3
TXT
  4

  0
STYLE
  5
16A
330
3
100
AcDbSymbolTableRecord
100
AcDbTextStyleTableRecord
  2
SLDTEXTSTYLE2
 70
     0
 40
0.0
 41
0.640625
 50
0.0
 71
     0
 42
3.5
  3
TXT
  4

  0
STYLE
  5
170
330
3
100
AcDbSymbolTableRecord
100
AcDbTextStyleTableRecord
  2
SLDTEXTSTYLE3
 70
     0
 40
0.0
 41
0.6944444444
 50
0.0
 71
     0
 42
3.5
  3
TXT
  4

  0
STYLE
  5
183
330
3
100
AcDbSymbolTableRecord
100
AcDbTextStyleTableRecord
  2
SLDTEXTSTYLE4
 70
     0
 40
0.0
 41
0.7
 50
0.0
 71
     0
 42
3.5
  3
TXT
  4

  0
ENDTAB
  0
TABLE
  2
VIEW
  5
6
330
0
100
AcDbSymbolTable
 70
     0
  0
ENDTAB
  0
TABLE
  2
UCS
  5
7
330
0
100
AcDbSymbolTable
 70
     0
  0
ENDTAB
  0
TABLE
  2
APPID
  5
9
330
0
100
AcDbSymbolTable
 70
     1
  0
APPID
  5
12
330
9
100
AcDbSymbolTableRecord
100
AcDbRegAppTableRecord
  2
ACAD
 70
     0
  0
ENDTAB
  0
TABLE
  2
DIMSTYLE
  5
A
330
0
100
AcDbSymbolTable
 70
     4
100
AcDbDimStyleTable
  0
DIMSTYLE
105
27
330
A
100
AcDbSymbolTableRecord
100
AcDbDimStyleTableRecord
  2
ISO-25
 70
     0
 41
2.5
 42
0.625
 43
3.75
 44
1.25
 73
     0
 74
     0
 77
     1
 78
     8
140
2.5
141
2.5
143
0.0393700787
147
0.625
171
     3
172
     1
178
     0
271
     2
272
     2
274
     3
278
    44
283
     0
284
     8
340
11
  0
DIMSTYLE
105
C7
102
{ACAD_REACTORS
330
C6
330
D7
330
E3
330
F8
330
104
330
110
330
124
330
130
330
13C
330
148
330
154
102
}
330
A
100
AcDbSymbolTableRecord
100
AcDbDimStyleTableRecord
  2
SLDDIMSTYLE0
 70
     0
 41
3.302
 44
0.0
 45
0.000000001
 73
     0
 74
     0
 77
     1
 78
     4
 79
     1
140
3.175
147
0.79375
173
     1
178
     0
271
     2
272
     2
276
     2
284
    12
340
77
341
C8
343
C8
344
C8
  0
DIMSTYLE
105
EE
102
{ACAD_REACTORS
330
ED
102
}
330
A
100
AcDbSymbolTableRecord
100
AcDbDimStyleTableRecord
  2
SLDDIMSTYLE1
 70
     0
 41
3.302
 44
0.0
 45
0.000000001
 73
     0
 74
     0
 77
     1
 78
    12
 79
     3
140
3.175
147
0.79375
173
     1
178
     0
271
     2
272
     2
276
     2
284
    12
340
77
341
C8
343
C8
344
C8
  0
DIMSTYLE
105
11B
102
{ACAD_REACTORS
330
11A
102
}
330
A
100
AcDbSymbolTableRecord
100
AcDbDimStyleTableRecord
  2
SLDDIMSTYLE2
 70
     0
 41
3.302
 44
0.0
 45
0.000000001
 73
     0
 74
     0
 77
     1
 78
    12
 79
     3
140
3.175
141
0.0
147
0.79375
172
     1
173
     1
178
     0
271
     2
272
     2
276
     2
284
    12
340
77
341
C8
343
C8
344
C8
  0
ENDTAB
  0
TABLE
  2
BLOCK_RECORD
  5
1
330
0
100
AcDbSymbolTable
 70
    21
  0
BLOCK_RECORD
  5
1F
330
1
100
AcDbSymbolTableRecord
100
AcDbBlockTableRecord
  2
*Model_Space
340
22
  0
BLOCK_RECORD
  5
1B
330
1
100
AcDbSymbolTableRecord
100
AcDbBlockTableRecord
  2
*Paper_Space
340
1E
  0
BLOCK_RECORD
  5
23
330
1
100
AcDbSymbolTableRecord
100
AcDbBlockTableRecord
  2
*Paper_Space0
340
26
  0
BLOCK_RECORD
  5
66
330
1
100
AcDbSymbolTableRecord
100
AcDbBlockTableRecord
  2
SW_CENTERMARKSYMBOL_0
340
0
102
{BLKREFS
331
C2
102
}
  0
BLOCK_RECORD
  5
71
330
1
100
AcDbSymbolTableRecord
100
AcDbBlockTableRecord
  2
SW_NOTE_0_1
340
0
102
{BLKREFS
331
85
331
C3
102
}
  0
BLOCK_RECORD
  5
74
330
1
100
AcDbSymbolTableRecord
100
AcDbBlockTableRecord
  2
SW_NOTE_0
340
0
102
{BLKREFS
331
79
331
C5
102
}
  0
BLOCK_RECORD
  5
7A
330
1
100
AcDbSymbolTableRecord
100
AcDbBlockTableRecord
  2
SW_NOTE_0_2
340
0
102
{BLKREFS
331
86
331
C4
102
}
  0
BLOCK_RECORD
  5
7D
330
1
100
AcDbSymbolTableRecord
100
AcDbBlockTableRecord
  2
SW_NOTE_0_3
340
0
102
{BLKREFS
331
81
102
}
  0
BLOCK_RECORD
  5
82
330
1
100
AcDbSymbolTableRecord
100
AcDbBlockTableRecord
  2
SW_NOTE_0_4
340
0
  0
BLOCK_RECORD
  5
C8
330
1
100
AcDbSymbolTableRecord
100
AcDbBlockTableRecord
  2
_None
340
0
  0
BLOCK_RECORD
  5
CB
330
1
100
AcDbSymbolTableRecord
100
AcDbBlockTableRecord
  2
_D
340
0
  0
BLOCK_RECORD
  5
D8
330
1
100
AcDbSymbolTableRecord
100
AcDbBlockTableRecord
  2
_D_1
340
0
  0
BLOCK_RECORD
  5
E4
330
1
100
AcDbSymbolTableRecord
100
AcDbBlockTableRecord
  2
_D_2
340
0
  0
BLOCK_RECORD
  5
EF
330
1
100
AcDbSymbolTableRecord
100
AcDbBlockTableRecord
  2
_D_3
340
0
  0
BLOCK_RECORD
  5
F9
330
1
100
AcDbSymbolTableRecord
100
AcDbBlockTableRecord
  2
_D_4
340
0
  0
BLOCK_RECORD
  5
105
330
1
100
AcDbSymbolTableRecord
100
AcDbBlockTableRecord
  2
_D_5
340
0
  0
BLOCK_RECORD
  5
111
330
1
100
AcDbSymbolTableRecord
100
AcDbBlockTableRecord
  2
_D_6
340
0
  0
BLOCK_RECORD
  5
11C
330
1
100
AcDbSymbolTableRecord
100
AcDbBlockTableRecord
  2
_D_7
340
0
  0
BLOCK_RECORD
  5
125
330
1
100
AcDbSymbolTableRecord
100
AcDbBlockTableRecord
  2
_D_8
340
0
  0
BLOCK_RECORD
  5
131
330
1
100
AcDbSymbolTableRecord
100
AcDbBlockTableRecord
  2
_D_9
340
0
  0
BLOCK_RECORD
  5
13D
330
1
100
AcDbSymbolTableRecord
100
AcDbBlockTableRecord
  2
_D_10
340
0
  0
BLOCK_RECORD
  5
149
330
1
100
AcDbSymbolTableRecord
100
AcDbBlockTableRecord
  2
_D_11
340
0
  0
BLOCK_RECORD
  5
155
330
1
100
AcDbSymbolTableRecord
100
AcDbBlockTableRecord
  2
_D_12
340
0
  0
ENDTAB
  0
ENDSEC
  0
SECTION
  2
BLOCKS
  0
BLOCK
  5
20
330
1F
100
AcDbEntity
  8
0
100
AcDbBlockBegin
  2
*Model_Space
 70
     0
 10
0.0
 20
0.0
 30
0.0
  3
*Model_Space
  1

  0
ENDBLK
  5
21
330
1F
100
AcDbEntity
  8
0
100
AcDbBlockEnd
  0
BLOCK
  5
1C
330
1B
100
AcDbEntity
 67
     1
  8
0
100
AcDbBlockBegin
  2
*Paper_Space
 70
     0
 10
0.0
 20
0.0
 30
0.0
  3
*Paper_Space
  1

  0
ENDBLK
  5
1D
330
1B
100
AcDbEntity
 67
     1
  8
0
100
AcDbBlockEnd
  0
BLOCK
  5
24
330
23
100
AcDbEntity
  8
0
100
AcDbBlockBegin
  2
*Paper_Space0
 70
     0
 10
0.0
 20
0.0
 30
0.0
  3
*Paper_Space0
  1

  0
ENDBLK
  5
25
330
23
100
AcDbEntity
  8
0
100
AcDbBlockEnd
  0
BLOCK
  5
67
330
66
100
AcDbEntity
  8
0
100
AcDbBlockBegin
  2
SW_CENTERMARKSYMBOL_0
 70
     0
 10
0.0
 20
0.0
 30
0.0
  3
SW_CENTERMARKSYMBOL_0
  1

  0
LINE
  5
69
330
66
100
AcDbEntity
  8
SLD-0
  6
Continuous
 62
     7
370
    18
100
AcDbLine
 10
0.0
 20
0.0
 30
0.0
 11
0.0
 21
2.54
 31
0.0
  0
LINE
  5
6A
330
66
100
AcDbEntity
  8
SLD-0
  6
Continuous
 62
     7
370
    18
100
AcDbLine
 10
0.0
 20
0.0
 30
0.0
 11
-2.54
 21
0.0
 31
0.0
  0
LINE
  5
6B
330
66
100
AcDbEntity
  8
SLD-0
  6
Continuous
 62
     7
370
    18
100
AcDbLine
 10
0.0
 20
0.0
 30
0.0
 11
0.0
 21
-2.54
 31
0.0
  0
LINE
  5
6C
330
66
100
AcDbEntity
  8
SLD-0
  6
Continuous
 62
     7
370
    18
100
AcDbLine
 10
0.0
 20
0.0
 30
0.0
 11
2.54
 21
0.0
 31
0.0
  0
LINE
  5
6D
330
66
100
AcDbEntity
  8
SLD-0
  6
Continuous
 62
     7
370
    18
100
AcDbLine
 10
0.0
 20
2.54
 30
0.0
 11
0.0
 21
3.47
 31
0.0
  0
LINE
  5
6E
330
66
100
AcDbEntity
  8
SLD-0
  6
Continuous
 62
     7
370
    18
100
AcDbLine
 10
-2.54
 20
0.0
 30
0.0
 11
-3.47
 21
0.0
 31
0.0
  0
LINE
  5
6F
330
66
100
AcDbEntity
  8
SLD-0
  6
Continuous
 62
     7
370
    18
100
AcDbLine
 10
0.0
 20
-2.54
 30
0.0
 11
0.0
 21
-3.47
 31
0.0
  0
LINE
  5
70
330
66
100
AcDbEntity
  8
SLD-0
  6
Continuous
 62
     7
370
    18
100
AcDbLine
 10
2.54
 20
0.0
 30
0.0
 11
3.47
 21
0.0
 31
0.0
  0
ENDBLK
  5
68
330
66
100
AcDbEntity
  8
0
100
AcDbBlockEnd
  0
BLOCK
  5
72
330
71
100
AcDbEntity
  8
0
100
AcDbBlockBegin
  2
SW_NOTE_0_1
 70
     0
 10
0.0
 20
0.0
 30
0.0
  3
SW_NOTE_0_1
  1

  0
INSERT
  5
79
330
71
100
AcDbEntity
  8
SLD-0
 62
     7
100
AcDbBlockReference
  2
SW_NOTE_0
 10
0.0
 20
-0.1140274066
 30
0.0
  0
ENDBLK
  5
73
330
71
100
AcDbEntity
  8
0
100
AcDbBlockEnd
  0
BLOCK
  5
75
330
74
100
AcDbEntity
  8
0
100
AcDbBlockBegin
  2
SW_NOTE_0
 70
     0
 10
0.0
 20
0.0
 30
0.0
  3
SW_NOTE_0
  1

  0
MTEXT
  5
78
330
74
100
AcDbEntity
  8
SLD-0
 62
     0
100
AcDbMText
 10
0.0
 20
1.9645392354
 30
0.0
 40
1.524
 41
0.0
 71
     1
 72
     1
  1
INTERPRET GEOMETRIC
  7
SLDTEXTSTYLE0
 73
     1
 44
1.0
  0
ENDBLK
  5
76
330
74
100
AcDbEntity
  8
0
100
AcDbBlockEnd
  0
BLOCK
  5
7B
330
7A
100
AcDbEntity
  8
0
100
AcDbBlockBegin
  2
SW_NOTE_0_2
 70
     0
 10
0.0
 20
0.0
 30
0.0
  3
SW_NOTE_0_2
  1

  0
INSERT
  5
81
330
7A
100
AcDbEntity
  8
SLD-0
 62
     7
100
AcDbBlockReference
  2
SW_NOTE_0_3
 10
0.0
 20
-0.1140274066
 30
0.0
  0
ENDBLK
  5
7C
330
7A
100
AcDbEntity
  8
0
100
AcDbBlockEnd
  0
BLOCK
  5
7E
330
7D
100
AcDbEntity
  8
0
100
AcDbBlockBegin
  2
SW_NOTE_0_3
 70
     0
 10
0.0
 20
0.0
 30
0.0
  3
SW_NOTE_0_3
  1

  0
MTEXT
  5
80
330
7D
100
AcDbEntity
  8
SLD-0
 62
     0
100
AcDbMText
 10
0.0
 20
1.9645392354
 30
0.0
 40
1.524
 41
0.0
 71
     1
 72
     1
  1
TOLERANCING PER:
  7
SLDTEXTSTYLE0
 73
     1
 44
1.0
  0
ENDBLK
  5
7F
330
7D
100
AcDbEntity
  8
0
100
AcDbBlockEnd
  0
BLOCK
  5
83
330
82
100
AcDbEntity
  8
0
100
AcDbBlockBegin
  2
SW_NOTE_0_4
 70
     0
 10
0.0
 20
0.0
 30
0.0
  3
SW_NOTE_0_4
  1

  0
INSERT
  5
85
330
82
100
AcDbEntity
  8
0
  6
Continuous
 62
     7
100
AcDbBlockReference
  2
SW_NOTE_0_1
 10
0.0
 20
-0.1140274066
 30
0.0
  0
INSERT
  5
86
330
82
100
AcDbEntity
  8
0
  6
Continuous
 62
     7
100
AcDbBlockReference
  2
SW_NOTE_0_2
 10
0.0
 20
-2.6380273006
 30
0.0
  0
ENDBLK
  5
84
330
82
100
AcDbEntity
  8
0
100
AcDbBlockEnd
  0
BLOCK
  5
C9
330
C8
100
AcDbEntity
  8
0
100
AcDbBlockBegin
  2
_None
 70
     0
 10
0.0
 20
0.0
 30
0.0
  3
_None
  1

  0
ENDBLK
  5
CA
330
C8
100
AcDbEntity
  8
0
100
AcDbBlockEnd
  0
BLOCK
  5
CC
330
CB
100
AcDbEntity
  8
0
100
AcDbBlockBegin
  2
_D
 70
     0
 10
0.0
 20
0.0
 30
0.0
  3
_D
  1

  0
LINE
  5
CE
330
CB
100
AcDbEntity
  8
SLD-0
 62
     7
100
AcDbLine
 10
121.7569921053
 20
156.2487473684
 30
0.0
 11
121.7569921053
 21
159.0967407522
 31
0.0
  0
LINE
  5
CF
330
CB
100
AcDbEntity
  8
SLD-0
 62
     7
100
AcDbLine
 10
125.3569921053
 20
156.2487473684
 30
0.0
 11
125.3569921053
 21
159.0967407522
 31
0.0
  0
LINE
  5
D0
330
CB
100
AcDbEntity
  8
SLD-0
 62
     7
100
AcDbLine
 10
121.7569921053
 20
158.0967407522
 30
0.0
 11
111.4460811988
 21
158.0967407522
 31
0.0
  0
LINE
  5
D1
330
CB
100
AcDbEntity
  8
SLD-0
 62
     7
100
AcDbLine
 10
121.7569921053
 20
158.0967407522
 30
0.0
 11
125.3569921053
 21
158.0967407522
 31
0.0
  0
LINE
  5
D2
330
CB
100
AcDbEntity
  8
SLD-0
 62
     7
100
AcDbLine
 10
125.3569921053
 20
158.0967407522
 30
0.0
 11
131.7069921053
 21
158.0967407522
 31
0.0
  0
MTEXT
  5
D4
330
CB
100
AcDbEntity
  8
SLD-0
 62
     7
100
AcDbMText
 10
111.4460811988
 20
161.9515297657
 30
0.0
 40
3.175
 41
0.0
 71
     1
 72
     1
  1
3.60
  7
SLDTEXTSTYLE1
 73
     1
 44
1.0
  0
SOLID
  5
D5
330
CB
100
AcDbEntity
  8
SLD-0
 62
     7
100
AcDbTrace
 10
121.7569921053
 20
158.0967407522
 30
0.0
 11
118.4549921053
 21
158.6047407522
 31
0.0
 12
118.4549921053
 22
157.5887407522
 32
0.0
 13
118.4549921053
 23
157.5887407522
 33
0.0
  0
SOLID
  5
D6
330
CB
100
AcDbEntity
  8
SLD-0
 62
     7
100
AcDbTrace
 10
125.3569921053
 20
158.0967407522
 30
0.0
 11
128.6589921053
 21
157.5887407522
 31
0.0
 12
128.6589921053
 22
158.6047407522
 32
0.0
 13
128.6589921053
 23
158.6047407522
 33
0.0
  0
ENDBLK
  5
CD
330
CB
100
AcDbEntity
  8
0
100
AcDbBlockEnd
  0
BLOCK
  5
D9
330
D8
100
AcDbEntity
  8
0
100
AcDbBlockBegin
  2
_D_1
 70
     0
 10
0.0
 20
0.0
 30
0.0
  3
_D_1
  1

  0
LINE
  5
DB
330
D8
100
AcDbEntity
  8
SLD-0
 62
     7
100
AcDbLine
 10
120.7569921053
 20
150.5487473684
 30
0.0
 11
97.3550761452
 21
150.5487473684
 31
0.0
  0
LINE
  5
DC
330
D8
100
AcDbEntity
  8
SLD-0
 62
     7
100
AcDbLine
 10
120.7569921053
 20
155.2487473684
 30
0.0
 11
97.3550761452
 21
155.2487473684
 31
0.0
  0
LINE
  5
DD
330
D8
100
AcDbEntity
  8
SLD-0
 62
     7
100
AcDbLine
 10
98.3550761452
 20
150.5487473684
 30
0.0
 11
98.3550761452
 21
144.1987473684
 31
0.0
  0
LINE
  5
DE
330
D8
100
AcDbEntity
  8
SLD-0
 62
     7
100
AcDbLine
 10
98.3550761452
 20
150.5487473684
 30
0.0
 11
98.3550761452
 21
155.2487473684
 31
0.0
  0
LINE
  5
DF
330
D8
100
AcDbEntity
  8
SLD-0
 62
     7
100
AcDbLine
 10
98.3550761452
 20
155.2487473684
 30
0.0
 11
98.3550761452
 21
161.5987473684
 31
0.0
  0
MTEXT
  5
E0
330
D8
100
AcDbEntity
  8
SLD-0
 62
     7
100
AcDbMText
 10
94.5002871317
 20
150.2733220678
 30
0.0
 40
3.175
 41
0.0
 71
     1
 72
     1
  1
4.70
  7
SLDTEXTSTYLE1
 11
-3.047392128993071E-15
 21
1.0
 31
0.0
 73
     1
 44
1.0
  0
SOLID
  5
E1
330
D8
100
AcDbEntity
  8
SLD-0
 62
     7
100
AcDbTrace
 10
98.3550761452
 20
150.5487473684
 30
0.0
 11
97.8470761452
 21
147.2467473684
 31
0.0
 12
98.8630761452
 22
147.2467473684
 32
0.0
 13
98.8630761452
 23
147.2467473684
 33
0.0
  0
SOLID
  5
E2
330
D8
100
AcDbEntity
  8
SLD-0
 62
     7
100
AcDbTrace
 10
98.3550761452
 20
155.2487473684
 30
0.0
 11
98.8630761452
 21
158.5507473684
 31
0.0
 12
97.8470761452
 22
158.5507473684
 32
0.0
 13
97.8470761452
 23
158.5507473684
 33
0.0
  0
ENDBLK
  5
DA
330
D8
100
AcDbEntity
  8
0
100
AcDbBlockEnd
  0
BLOCK
  5
E5
330
E4
100
AcDbEntity
  8
0
100
AcDbBlockBegin
  2
_D_2
 70
     0
 10
0.0
 20
0.0
 30
0.0
  3
_D_2
  1

  0
LINE
  5
E7
330
E4
100
AcDbEntity
  8
SLD-0
 62
     7
100
AcDbLine
 10
145.9569921053
 20
155.1487473684
 30
0.0
 11
145.9569921053
 21
163.9559621811
 31
0.0
  0
LINE
  5
E8
330
E4
100
AcDbEntity
  8
SLD-0
 62
     7
100
AcDbLine
 10
121.7569921053
 20
156.2487473684
 30
0.0
 11
121.7569921053
 21
163.9559621811
 31
0.0
  0
LINE
  5
E9
330
E4
100
AcDbEntity
  8
SLD-0
 62
     7
100
AcDbLine
 10
145.9569921053
 20
162.9559621811
 30
0.0
 11
121.7569921053
 21
162.9559621811
 31
0.0
  0
MTEXT
  5
EA
330
E4
100
AcDbEntity
  8
SLD-0
 62
     7
100
AcDbMText
 10
128.0196479147
 20
166.8107511946
 30
0.0
 40
3.175
 41
0.0
 71
     1
 72
     1
  1
24.20
  7
SLDTEXTSTYLE1
 73
     1
 44
1.0
  0
SOLID
  5
EB
330
E4
100
AcDbEntity
  8
SLD-0
 62
     7
100
AcDbTrace
 10
145.9569921053
 20
162.9559621811
 30
0.0
 11
142.6549921053
 21
163.4639621811
 31
0.0
 12
142.6549921053
 22
162.4479621811
 32
0.0
 13
142.6549921053
 23
162.4479621811
 33
0.0
  0
SOLID
  5
EC
330
E4
100
AcDbEntity
  8
SLD-0
 62
     7
100
AcDbTrace
 10
121.7569921053
 20
162.9559621811
 30
0.0
 11
125.0589921053
 21
162.4479621811
 31
0.0
 12
125.0589921053
 22
163.4639621811
 32
0.0
 13
125.0589921053
 23
163.4639621811
 33
0.0
  0
ENDBLK
  5
E6
330
E4
100
AcDbEntity
  8
0
100
AcDbBlockEnd
  0
BLOCK
  5
F0
330
EF
100
AcDbEntity
  8
0
100
AcDbBlockBegin
  2
_D_3
 70
     0
 10
0.0
 20
0.0
 30
0.0
  3
_D_3
  1

  0
LINE
  5
F2
330
EF
100
AcDbEntity
  8
SLD-0
 62
     7
100
AcDbLine
 10
145.9569921053
 20
119.1487473684
 30
0.0
 11
145.9569921053
 21
108.2321455321
 31
0.0
  0
LINE
  5
F3
330
EF
100
AcDbEntity
  8
SLD-0
 62
     7
100
AcDbLine
 10
121.0798921053
 20
119.1487473684
 30
0.0
 11
121.0798921053
 21
108.2321455321
 31
0.0
  0
LINE
  5
F4
330
EF
100
AcDbEntity
  8
SLD-0
 62
     7
100
AcDbLine
 10
145.9569921053
 20
109.2321455321
 30
0.0
 11
121.0798921053
 21
109.2321455321
 31
0.0
  0
MTEXT
  5
F5
330
EF
100
AcDbEntity
  8
SLD-0
 62
     7
100
AcDbMText
 10
127.8123909233
 20
113.0869345456
 30
0.0
 40
3.175
 41
0.0
 71
     1
 72
     1
  1
24.88
  7
SLDTEXTSTYLE1
 73
     1
 44
1.0
  0
SOLID
  5
F6
330
EF
100
AcDbEntity
  8
SLD-0
 62
     7
100
AcDbTrace
 10
145.9569921053
 20
109.2321455321
 30
0.0
 11
142.6549921053
 21
109.7401455321
 31
0.0
 12
142.6549921053
 22
108.7241455321
 32
0.0
 13
142.6549921053
 23
108.7241455321
 33
0.0
  0
SOLID
  5
F7
330
EF
100
AcDbEntity
  8
SLD-0
 62
     7
100
AcDbTrace
 10
121.0798921053
 20
109.2321455321
 30
0.0
 11
124.3818921053
 21
108.7241455321
 31
0.0
 12
124.3818921053
 22
109.7401455321
 32
0.0
 13
124.3818921053
 23
109.7401455321
 33
0.0
  0
ENDBLK
  5
F1
330
EF
100
AcDbEntity
  8
0
100
AcDbBlockEnd
  0
BLOCK
  5
FA
330
F9
100
AcDbEntity
  8
0
100
AcDbBlockBegin
  2
_D_4
 70
     0
 10
0.0
 20
0.0
 30
0.0
  3
_D_4
  1

  0
LINE
  5
FC
330
F9
100
AcDbEntity
  8
SLD-0
 62
     7
100
AcDbLine
 10
120.0798921053
 20
120.1487473684
 30
0.0
 11
97.3550761452
 21
120.1487473684
 31
0.0
  0
LINE
  5
FD
330
F9
100
AcDbEntity
  8
SLD-0
 62
     7
100
AcDbLine
 10
120.0798921053
 20
129.9487473684
 30
0.0
 11
97.3550761452
 21
129.9487473684
 31
0.0
  0
LINE
  5
FE
330
F9
100
AcDbEntity
  8
SLD-0
 62
     7
100
AcDbLine
 10
98.3550761452
 20
120.1487473684
 30
0.0
 11
98.3550761452
 21
113.7987473684
 31
0.0
  0
LINE
  5
FF
330
F9
100
AcDbEntity
  8
SLD-0
 62
     7
100
AcDbLine
 10
98.3550761452
 20
120.1487473684
 30
0.0
 11
98.3550761452
 21
129.9487473684
 31
0.0
  0
LINE
  5
100
330
F9
100
AcDbEntity
  8
SLD-0
 62
     7
100
AcDbLine
 10
98.3550761452
 20
129.9487473684
 30
0.0
 11
98.3550761452
 21
136.2987473684
 31
0.0
  0
MTEXT
  5
101
330
F9
100
AcDbEntity
  8
SLD-0
 62
     7
100
AcDbMText
 10
94.5002871317
 20
121.8486642614
 30
0.0
 40
3.175
 41
0.0
 71
     1
 72
     1
  1
9.80
  7
SLDTEXTSTYLE1
 11
-2.825347524068039E-15
 21
1.0
 31
0.0
 73
     1
 44
1.0
  0
SOLID
  5
102
330
F9
100
AcDbEntity
  8
SLD-0
 62
     7
100
AcDbTrace
 10
98.3550761452
 20
120.1487473684
 30
0.0
 11
97.8470761452
 21
116.8467473684
 31
0.0
 12
98.8630761452
 22
116.8467473684
 32
0.0
 13
98.8630761452
 23
116.8467473684
 33
0.0
  0
SOLID
  5
103
330
F9
100
AcDbEntity
  8
SLD-0
 62
     7
100
AcDbTrace
 10
98.3550761452
 20
129.9487473684
 30
0.0
 11
98.8630761452
 21
133.2507473684
 31
0.0
 12
97.8470761452
 22
133.2507473684
 32
0.0
 13
97.8470761452
 23
133.2507473684
 33
0.0
  0
ENDBLK
  5
FB
330
F9
100
AcDbEntity
  8
0
100
AcDbBlockEnd
  0
BLOCK
  5
106
330
105
100
AcDbEntity
  8
0
100
AcDbBlockBegin
  2
_D_5
 70
     0
 10
0.0
 20
0.0
 30
0.0
  3
_D_5
  1

  0
LINE
  5
108
330
105
100
AcDbEntity
  8
SLD-0
 62
     7
100
AcDbLine
 10
121.0798921053
 20
130.9487473684
 30
0.0
 11
121.0798921053
 21
137.6684877193
 31
0.0
  0
LINE
  5
109
330
105
100
AcDbEntity
  8
SLD-0
 62
     7
100
AcDbLine
 10
124.6798921053
 20
130.9487473684
 30
0.0
 11
124.6798921053
 21
137.6684877193
 31
0.0
  0
LINE
  5
10A
330
105
100
AcDbEntity
  8
SLD-0
 62
     7
100
AcDbLine
 10
121.0798921053
 20
136.6684877193
 30
0.0
 11
98.5232918028
 21
136.6684877193
 31
0.0
  0
LINE
  5
10B
330
105
100
AcDbEntity
  8
SLD-0
 62
     7
100
AcDbLine
 10
121.0798921053
 20
136.6684877193
 30
0.0
 11
124.6798921053
 21
136.6684877193
 31
0.0
  0
LINE
  5
10C
330
105
100
AcDbEntity
  8
SLD-0
 62
     7
100
AcDbLine
 10
124.6798921053
 20
136.6684877193
 30
0.0
 11
131.0298921053
 21
136.6684877193
 31
0.0
  0
MTEXT
  5
10D
330
105
100
AcDbEntity
  8
SLD-0
 62
     7
100
AcDbMText
 10
98.5232918028
 20
140.5232767328
 30
0.0
 40
3.175
 41
0.0
 71
     1
 72
     1
  1
3.60
  7
SLDTEXTSTYLE1
 73
     1
 44
1.0
  0
SOLID
  5
10E
330
105
100
AcDbEntity
  8
SLD-0
 62
     7
100
AcDbTrace
 10
121.0798921053
 20
136.6684877193
 30
0.0
 11
117.7778921053
 21
137.1764877193
 31
0.0
 12
117.7778921053
 22
136.1604877193
 32
0.0
 13
117.7778921053
 23
136.1604877193
 33
0.0
  0
SOLID
  5
10F
330
105
100
AcDbEntity
  8
SLD-0
 62
     7
100
AcDbTrace
 10
124.6798921053
 20
136.6684877193
 30
0.0
 11
127.9818921053
 21
136.1604877193
 31
0.0
 12
127.9818921053
 22
137.1764877193
 32
0.0
 13
127.9818921053
 23
137.1764877193
 33
0.0
  0
ENDBLK
  5
107
330
105
100
AcDbEntity
  8
0
100
AcDbBlockEnd
  0
BLOCK
  5
112
330
111
100
AcDbEntity
  8
0
100
AcDbBlockBegin
  2
_D_6
 70
     0
 10
0.0
 20
0.0
 30
0.0
  3
_D_6
  1

  0
LINE
  5
114
330
111
100
AcDbEntity
  8
SLD-0
 62
     7
100
AcDbLine
 10
146.9569921053
 20
154.1487473684
 30
0.0
 11
153.3444251595
 21
154.1487473684
 31
0.0
  0
LINE
  5
115
330
111
100
AcDbEntity
  8
SLD-0
 62
     7
100
AcDbLine
 10
146.9569921053
 20
120.1487473684
 30
0.0
 11
153.3444251595
 21
120.1487473684
 31
0.0
  0
LINE
  5
116
330
111
100
AcDbEntity
  8
SLD-0
 62
     7
100
AcDbLine
 10
152.3444251595
 20
154.1487473684
 30
0.0
 11
152.3444251595
 21
120.1487473684
 31
0.0
  0
MTEXT
  5
117
330
111
100
AcDbEntity
  8
SLD-0
 62
     7
100
AcDbMText
 10
148.489636146
 20
131.7141645467
 30
0.0
 40
3.175
 41
0.0
 71
     1
 72
     1
  1
34.00
  7
SLDTEXTSTYLE1
 11
-1.059690869644414E-14
 21
1.0
 31
0.0
 73
     1
 44
1.0
  0
SOLID
  5
118
330
111
100
AcDbEntity
  8
SLD-0
 62
     7
100
AcDbTrace
 10
152.3444251595
 20
154.1487473684
 30
0.0
 11
151.8364251595
 21
150.8467473684
 31
0.0
 12
152.8524251595
 22
150.8467473684
 32
0.0
 13
152.8524251595
 23
150.8467473684
 33
0.0
  0
SOLID
  5
119
330
111
100
AcDbEntity
  8
SLD-0
 62
     7
100
AcDbTrace
 10
152.3444251595
 20
120.1487473684
 30
0.0
 11
152.8524251595
 21
123.4507473684
 31
0.0
 12
151.8364251595
 22
123.4507473684
 32
0.0
 13
151.8364251595
 23
123.4507473684
 33
0.0
  0
ENDBLK
  5
113
330
111
100
AcDbEntity
  8
0
100
AcDbBlockEnd
  0
BLOCK
  5
11D
330
11C
100
AcDbEntity
  8
0
100
AcDbBlockBegin
  2
_D_7
 70
     0
 10
0.0
 20
0.0
 30
0.0
  3
_D_7
  1

  0
LINE
  5
11F
330
11C
100
AcDbEntity
  8
SLD-0
 62
     7
100
AcDbLine
 10
122.6530616853
 20
128.5244263429
 30
0.0
 11
120.997897911
 21
132.9337964912
 31
0.0
  0
LINE
  5
120
330
11C
100
AcDbEntity
  8
SLD-0
 62
     7
100
AcDbLine
 10
120.997897911
 20
132.9337964912
 30
0.0
 11
114.647897911
 21
132.9337964912
 31
0.0
  0
MTEXT
  5
121
330
11C
100
AcDbEntity
  8
SLD-0
 62
     7
100
AcDbMText
 10
98.4736985802
 20
133.9978585458
 30
0.0
 40
3.175
 41
0.0
 71
     1
 72
     1
  1
%%c
  7
SLDTEXTSTYLE1
 73
     1
 44
1.0
  0
MTEXT
  5
122
330
11C
100
AcDbEntity
  8
SLD-0
 62
     7
100
AcDbMText
 10
106.4369953431
 20
134.0463654926
 30
0.0
 40
3.175
 41
0.0
 71
     1
 72
     1
  1
1.86
  7
SLDTEXTSTYLE1
 73
     1
 44
1.0
  0
SOLID
  5
123
330
11C
100
AcDbEntity
  8
SLD-0
 62
     7
100
AcDbTrace
 10
122.6530616853
 20
128.5244263429
 30
0.0
 11
121.9682346661
 21
131.7943315332
 31
0.0
 12
121.0170412919
 22
131.4372780851
 32
0.0
 13
121.0170412919
 23
131.4372780851
 33
0.0
  0
ENDBLK
  5
11E
330
11C
100
AcDbEntity
  8
0
100
AcDbBlockEnd
  0
BLOCK
  5
126
330
125
100
AcDbEntity
  8
0
100
AcDbBlockBegin
  2
_D_8
 70
     0
 10
0.0
 20
0.0
 30
0.0
  3
_D_8
  1

  0
LINE
  5
128
330
125
100
AcDbEntity
  8
SLD-0
 62
     7
100
AcDbLine
 10
124.6798921053
 20
130.9487473684
 30
0.0
 11
124.6798921053
 21
141.6089004716
 31
0.0
  0
LINE
  5
129
330
125
100
AcDbEntity
  8
SLD-0
 62
     7
100
AcDbLine
 10
122.9798921053
 20
132.1237473684
 30
0.0
 11
122.9798921053
 21
141.6089004716
 31
0.0
  0
LINE
  5
12A
330
125
100
AcDbEntity
  8
SLD-0
 62
     7
100
AcDbLine
 10
124.6798921053
 20
140.6089004716
 30
0.0
 11
136.6891621238
 21
140.6089004716
 31
0.0
  0
LINE
  5
12B
330
125
100
AcDbEntity
  8
SLD-0
 62
     7
100
AcDbLine
 10
124.6798921053
 20
140.6089004716
 30
0.0
 11
122.9798921053
 21
140.6089004716
 31
0.0
  0
LINE
  5
12C
330
125
100
AcDbEntity
  8
SLD-0
 62
     7
100
AcDbLine
 10
122.9798921053
 20
140.6089004716
 30
0.0
 11
116.6298921053
 21
140.6089004716
 31
0.0
  0
MTEXT
  5
12D
330
125
100
AcDbEntity
  8
SLD-0
 62
     7
100
AcDbMText
 10
129.6732940337
 20
144.463689485
 30
0.0
 40
3.175
 41
0.0
 71
     1
 72
     1
  1
1.70
  7
SLDTEXTSTYLE1
 73
     1
 44
1.0
  0
SOLID
  5
12E
330
125
100
AcDbEntity
  8
SLD-0
 62
     7
100
AcDbTrace
 10
124.6798921053
 20
140.6089004716
 30
0.0
 11
127.9818921053
 21
140.1009004716
 31
0.0
 12
127.9818921053
 22
141.1169004716
 32
0.0
 13
127.9818921053
 23
141.1169004716
 33
0.0
  0
SOLID
  5
12F
330
125
100
AcDbEntity
  8
SLD-0
 62
     7
100
AcDbTrace
 10
122.9798921053
 20
140.6089004716
 30
0.0
 11
119.6778921053
 21
141.1169004716
 31
0.0
 12
119.6778921053
 22
140.1009004716
 32
0.0
 13
119.6778921053
 23
140.1009004716
 33
0.0
  0
ENDBLK
  5
127
330
125
100
AcDbEntity
  8
0
100
AcDbBlockEnd
  0
BLOCK
  5
132
330
131
100
AcDbEntity
  8
0
100
AcDbBlockBegin
  2
_D_9
 70
     0
 10
0.0
 20
0.0
 30
0.0
  3
_D_9
  1

  0
LINE
  5
134
330
131
100
AcDbEntity
  8
SLD-0
 62
     7
100
AcDbLine
 10
125.6798921053
 20
129.9487473684
 30
0.0
 11
137.6677030924
 21
129.9487473684
 31
0.0
  0
LINE
  5
135
330
131
100
AcDbEntity
  8
SLD-0
 62
     7
100
AcDbLine
 10
127.4498921053
 20
127.6537473684
 30
0.0
 11
137.6677030924
 21
127.6537473684
 31
0.0
  0
LINE
  5
136
330
131
100
AcDbEntity
  8
SLD-0
 62
     7
100
AcDbLine
 10
136.6677030924
 20
129.9487473684
 30
0.0
 11
136.6677030924
 21
138.3888742136
 31
0.0
  0
LINE
  5
137
330
131
100
AcDbEntity
  8
SLD-0
 62
     7
100
AcDbLine
 10
136.6677030924
 20
129.9487473684
 30
0.0
 11
136.6677030924
 21
127.6537473684
 31
0.0
  0
LINE
  5
138
330
131
100
AcDbEntity
  8
SLD-0
 62
     7
100
AcDbLine
 10
136.6677030924
 20
127.6537473684
 30
0.0
 11
136.6677030924
 21
121.3037473684
 31
0.0
  0
MTEXT
  5
139
330
131
100
AcDbEntity
  8
SLD-0
 62
     7
100
AcDbMText
 10
132.812914079
 20
130.5439781578
 30
0.0
 40
3.175
 41
0.0
 71
     1
 72
     1
  1
2.30
  7
SLDTEXTSTYLE1
 11
-7.044195017643634E-15
 21
1.0
 31
0.0
 73
     1
 44
1.0
  0
SOLID
  5
13A
330
131
100
AcDbEntity
  8
SLD-0
 62
     7
100
AcDbTrace
 10
136.6677030924
 20
129.9487473684
 30
0.0
 11
137.1757030924
 21
133.2507473684
 31
0.0
 12
136.1597030924
 22
133.2507473684
 32
0.0
 13
136.1597030924
 23
133.2507473684
 33
0.0
  0
SOLID
  5
13B
330
131
100
AcDbEntity
  8
SLD-0
 62
     7
100
AcDbTrace
 10
136.6677030924
 20
127.6537473684
 30
0.0
 11
136.1597030924
 21
124.3517473684
 31
0.0
 12
137.1757030924
 22
124.3517473684
 32
0.0
 13
137.1757030924
 23
124.3517473684
 33
0.0
  0
ENDBLK
  5
133
330
131
100
AcDbEntity
  8
0
100
AcDbBlockEnd
  0
BLOCK
  5
13E
330
13D
100
AcDbEntity
  8
0
100
AcDbBlockBegin
  2
_D_10
 70
     0
 10
0.0
 20
0.0
 30
0.0
  3
_D_10
  1

  0
LINE
  5
140
330
13D
100
AcDbEntity
  8
SLD-0
 62
     7
100
AcDbLine
 10
143.3569921053
 20
150.5487473684
 30
0.0
 11
160.9044646945
 21
150.5487473684
 31
0.0
  0
LINE
  5
141
330
13D
100
AcDbEntity
  8
SLD-0
 62
     7
100
AcDbLine
 10
146.9569921053
 20
154.1487473684
 30
0.0
 11
160.9044646945
 21
154.1487473684
 31
0.0
  0
LINE
  5
142
330
13D
100
AcDbEntity
  8
SLD-0
 62
     7
100
AcDbLine
 10
159.9044646945
 20
150.5487473684
 30
0.0
 11
159.9044646945
 21
144.1987473684
 31
0.0
  0
LINE
  5
143
330
13D
100
AcDbEntity
  8
SLD-0
 62
     7
100
AcDbLine
 10
159.9044646945
 20
150.5487473684
 30
0.0
 11
159.9044646945
 21
154.1487473684
 31
0.0
  0
LINE
  5
144
330
13D
100
AcDbEntity
  8
SLD-0
 62
     7
100
AcDbLine
 10
159.9044646945
 20
154.1487473684
 30
0.0
 11
159.9044646945
 21
163.040809447
 31
0.0
  0
MTEXT
  5
145
330
13D
100
AcDbEntity
  8
SLD-0
 62
     7
100
AcDbMText
 10
156.049675681
 20
155.1959133912
 30
0.0
 40
3.175
 41
0.0
 71
     1
 72
     1
  1
3.60
  7
SLDTEXTSTYLE1
 11
6.123233995736766E-17
 21
1.0
 31
0.0
 73
     1
 44
1.0
  0
SOLID
  5
146
330
13D
100
AcDbEntity
  8
SLD-0
 62
     7
100
AcDbTrace
 10
159.9044646945
 20
150.5487473684
 30
0.0
 11
159.3964646945
 21
147.2467473684
 31
0.0
 12
160.4124646945
 22
147.2467473684
 32
0.0
 13
160.4124646945
 23
147.2467473684
 33
0.0
  0
SOLID
  5
147
330
13D
100
AcDbEntity
  8
SLD-0
 62
     7
100
AcDbTrace
 10
159.9044646945
 20
154.1487473684
 30
0.0
 11
160.4124646945
 21
157.4507473684
 31
0.0
 12
159.3964646945
 22
157.4507473684
 32
0.0
 13
159.3964646945
 23
157.4507473684
 33
0.0
  0
ENDBLK
  5
13F
330
13D
100
AcDbEntity
  8
0
100
AcDbBlockEnd
  0
BLOCK
  5
14A
330
149
100
AcDbEntity
  8
0
100
AcDbBlockBegin
  2
_D_11
 70
     0
 10
0.0
 20
0.0
 30
0.0
  3
_D_11
  1

  0
LINE
  5
14C
330
149
100
AcDbEntity
  8
SLD-0
 62
     7
100
AcDbLine
 10
145.9569921053
 20
119.1487473684
 30
0.0
 11
145.9569921053
 21
113.3817881617
 31
0.0
  0
LINE
  5
14D
330
149
100
AcDbEntity
  8
SLD-0
 62
     7
100
AcDbLine
 10
142.3569921053
 20
122.7487473684
 30
0.0
 11
142.3569921053
 21
113.3817881617
 31
0.0
  0
LINE
  5
14E
330
149
100
AcDbEntity
  8
SLD-0
 62
     7
100
AcDbLine
 10
145.9569921053
 20
114.3817881617
 30
0.0
 11
157.9706489051
 21
114.3817881617
 31
0.0
  0
LINE
  5
14F
330
149
100
AcDbEntity
  8
SLD-0
 62
     7
100
AcDbLine
 10
145.9569921053
 20
114.3817881617
 30
0.0
 11
142.3569921053
 21
114.3817881617
 31
0.0
  0
LINE
  5
150
330
149
100
AcDbEntity
  8
SLD-0
 62
     7
100
AcDbLine
 10
142.3569921053
 20
114.3817881617
 30
0.0
 11
136.0069921053
 21
114.3817881617
 31
0.0
  0
MTEXT
  5
151
330
149
100
AcDbEntity
  8
SLD-0
 62
     7
100
AcDbMText
 10
150.1257528493
 20
118.2365771752
 30
0.0
 40
3.175
 41
0.0
 71
     1
 72
     1
  1
3.60
  7
SLDTEXTSTYLE1
 73
     1
 44
1.0
  0
SOLID
  5
152
330
149
100
AcDbEntity
  8
SLD-0
 62
     7
100
AcDbTrace
 10
145.9569921053
 20
114.3817881617
 30
0.0
 11
149.2589921053
 21
113.8737881617
 31
0.0
 12
149.2589921053
 22
114.8897881617
 32
0.0
 13
149.2589921053
 23
114.8897881617
 33
0.0
  0
SOLID
  5
153
330
149
100
AcDbEntity
  8
SLD-0
 62
     7
100
AcDbTrace
 10
142.3569921053
 20
114.3817881617
 30
0.0
 11
139.0549921053
 21
114.8897881617
 31
0.0
 12
139.0549921053
 22
113.8737881617
 32
0.0
 13
139.0549921053
 23
113.8737881617
 33
0.0
  0
ENDBLK
  5
14B
330
149
100
AcDbEntity
  8
0
100
AcDbBlockEnd
  0
BLOCK
  5
156
330
155
100
AcDbEntity
  8
0
100
AcDbBlockBegin
  2
_D_12
 70
     0
 10
0.0
 20
0.0
 30
0.0
  3
_D_12
  1

  0
LINE
  5
158
330
155
100
AcDbEntity
  8
SLD-0
 62
     7
100
AcDbLine
 10
146.9569921053
 20
120.1487473684
 30
0.0
 11
160.9044646945
 21
120.1487473684
 31
0.0
  0
LINE
  5
159
330
155
100
AcDbEntity
  8
SLD-0
 62
     7
100
AcDbLine
 10
143.3569921053
 20
123.7487473684
 30
0.0
 11
160.9044646945
 21
123.7487473684
 31
0.0
  0
LINE
  5
15A
330
155
100
AcDbEntity
  8
SLD-0
 62
     7
100
AcDbLine
 10
159.9044646945
 20
120.1487473684
 30
0.0
 11
159.9044646945
 21
113.7987473684
 31
0.0
  0
LINE
  5
15B
330
155
100
AcDbEntity
  8
SLD-0
 62
     7
100
AcDbLine
 10
159.9044646945
 20
120.1487473684
 30
0.0
 11
159.9044646945
 21
123.7487473684
 31
0.0
  0
LINE
  5
15C
330
155
100
AcDbEntity
  8
SLD-0
 62
     7
100
AcDbLine
 10
159.9044646945
 20
123.7487473684
 30
0.0
 11
159.9044646945
 21
132.9776633257
 31
0.0
  0
MTEXT
  5
15D
330
155
100
AcDbEntity
  8
SLD-0
 62
     7
100
AcDbMText
 10
156.049675681
 20
125.1327672699
 30
0.0
 40
3.175
 41
0.0
 71
     1
 72
     1
  1
3.60
  7
SLDTEXTSTYLE1
 11
6.123233995736766E-17
 21
1.0
 31
0.0
 73
     1
 44
1.0
  0
SOLID
  5
15E
330
155
100
AcDbEntity
  8
SLD-0
 62
     7
100
AcDbTrace
 10
159.9044646945
 20
120.1487473684
 30
0.0
 11
159.3964646945
 21
116.8467473684
 31
0.0
 12
160.4124646945
 22
116.8467473684
 32
0.0
 13
160.4124646945
 23
116.8467473684
 33
0.0
  0
SOLID
  5
15F
330
155
100
AcDbEntity
  8
SLD-0
 62
     7
100
AcDbTrace
 10
159.9044646945
 20
123.7487473684
 30
0.0
 11
160.4124646945
 21
127.0507473684
 31
0.0
 12
159.3964646945
 22
127.0507473684
 32
0.0
 13
159.3964646945
 23
127.0507473684
 33
0.0
  0
ENDBLK
  5
157
330
155
100
AcDbEntity
  8
0
100
AcDbBlockEnd
  0
ENDSEC
  0
SECTION
  2
ENTITIES
  0
LINE
  5
87
330
1F
100
AcDbEntity
  8
SLD-0
  6
Continuous
 62
     7
370
    18
100
AcDbLine
 10
118.5737310706
 20
12.7
 30
0.0
 11
118.5737310706
 21
62.5944383331
 31
0.0
  0
LINE
  5
88
330
1F
100
AcDbEntity
  8
SLD-0
  6
Continuous
 62
     7
370
    18
100
AcDbLine
 10
68.3541319701
 20
62.5944383331
 30
0.0
 11
266.7
 21
62.5944383331
 31
0.0
  0
LINE
  5
89
330
1F
100
AcDbEntity
  8
SLD-0
  6
Continuous
 62
     7
370
    18
100
AcDbLine
 10
153.5481386263
 20
62.5944383331
 30
0.0
 11
153.5481386263
 21
12.7
 31
0.0
  0
LINE
  5
8A
330
1F
100
AcDbEntity
  8
SLD-0
  6
Continuous
 62
     7
370
    18
100
AcDbLine
 10
196.628512112
 20
62.5944383331
 30
0.0
 11
196.628512112
 21
12.7
 31
0.0
  0
LINE
  5
8B
330
1F
100
AcDbEntity
  8
SLD-0
  6
Continuous
 62
     7
370
    18
100
AcDbLine
 10
196.628512112
 20
18.1073003199
 30
0.0
 11
266.7
 21
18.1073003199
 31
0.0
  0
LINE
  5
8C
330
1F
100
AcDbEntity
  8
SLD-0
  6
Continuous
 62
     7
370
    18
100
AcDbLine
 10
196.628512112
 20
30.9845221033
 30
0.0
 11
266.7
 21
30.9845221033
 31
0.0
  0
LINE
  5
8D
330
1F
100
AcDbEntity
  8
SLD-0
  6
Continuous
 62
     7
370
    18
100
AcDbLine
 10
196.628512112
 20
53.268808883
 30
0.0
 11
266.7
 21
53.268808883
 31
0.0
  0
LINE
  5
8E
330
1F
100
AcDbEntity
  8
SLD-0
  6
Continuous
 62
     7
370
    18
100
AcDbLine
 10
206.6753486998
 20
30.9845221033
 30
0.0
 11
206.6753486998
 21
18.1073003199
 31
0.0
  0
LINE
  5
8F
330
1F
100
AcDbEntity
  8
SLD-0
  6
Continuous
 62
     7
370
    18
100
AcDbLine
 10
217.5361795467
 20
18.1073003199
 30
0.0
 11
217.5361795467
 21
12.7
 31
0.0
  0
LINE
  5
90
330
1F
100
AcDbEntity
  8
SLD-0
  6
Continuous
 62
     7
370
    18
100
AcDbLine
 10
252.1728434947
 20
30.9845221033
 30
0.0
 11
252.1728434947
 21
18.1073003199
 31
0.0
  0
LINE
  5
91
330
1F
100
AcDbEntity
  8
SLD-0
  6
Continuous
 62
     7
370
    18
100
AcDbLine
 10
242.2227480427
 20
18.1073003199
 30
0.0
 11
242.2227480427
 21
12.7
 31
0.0
  0
LINE
  5
92
330
1F
100
AcDbEntity
  8
SLD-0
  6
Continuous
 62
     7
370
    18
100
AcDbLine
 10
68.3541319701
 20
17.68538066
 30
0.0
 11
153.5481386263
 21
17.68538066
 31
0.0
  0
LINE
  5
93
330
1F
100
AcDbEntity
  8
SLD-0
  6
Continuous
 62
     7
370
    18
100
AcDbLine
 10
153.5481386263
 20
48.3069383331
 30
0.0
 11
196.628512112
 21
48.3069383331
 31
0.0
  0
LINE
  5
94
330
1F
100
AcDbEntity
  8
SLD-0
  6
Continuous
 62
     7
370
    18
100
AcDbLine
 10
153.5481386263
 20
53.0694383331
 30
0.0
 11
196.628512112
 21
53.0694383331
 31
0.0
  0
LINE
  5
95
330
1F
100
AcDbEntity
  8
SLD-0
  6
Continuous
 62
     7
370
    18
100
AcDbLine
 10
153.5481386263
 20
57.8319383331
 30
0.0
 11
196.628512112
 21
57.8319383331
 31
0.0
  0
LINE
  5
96
330
1F
100
AcDbEntity
  8
SLD-0
  6
Continuous
 62
     7
370
    18
100
AcDbLine
 10
196.628512112
 20
34.0194383331
 30
0.0
 11
153.6625895844
 21
34.0194383331
 31
0.0
  0
LINE
  5
97
330
1F
100
AcDbEntity
  8
SLD-0
  6
Continuous
 62
     7
370
    18
100
AcDbLine
 10
184.4606683857
 20
62.5944383331
 30
0.0
 11
184.4606683857
 21
34.0194383331
 31
0.0
  0
LINE
  5
98
330
1F
100
AcDbEntity
  8
SLD-0
  6
Continuous
 62
     7
370
    18
100
AcDbLine
 10
172.5600773885
 20
62.5944383331
 30
0.0
 11
172.5600773885
 21
34.0194383331
 31
0.0
  0
LINE
  5
99
330
1F
100
AcDbEntity
  8
SLD-0
  6
Continuous
 62
     7
370
    18
100
AcDbLine
 10
118.5737310706
 20
24.4785733387
 30
0.0
 11
153.5481386263
 21
24.4785733387
 31
0.0
  0
LINE
  5
9A
330
1F
100
AcDbEntity
  8
SLD-0
  6
Continuous
 62
     7
370
    18
100
AcDbLine
 10
118.5737310706
 20
31.3365733387
 30
0.0
 11
153.6625895844
 21
31.3365733387
 31
0.0
  0
LINE
  5
9B
330
1F
100
AcDbEntity
  8
SLD-0
  6
Continuous
 62
     7
370
    18
100
AcDbLine
 10
68.3541319701
 20
12.7
 30
0.0
 11
68.3541319701
 21
62.5944383331
 31
0.0
  0
LINE
  5
9C
330
1F
100
AcDbEntity
  8
SLD-0
  6
Continuous
 62
     7
370
    18
100
AcDbLine
 10
68.3541319701
 20
30.8444383331
 30
0.0
 11
118.5737310706
 21
30.8444383331
 31
0.0
  0
LINE
  5
9D
330
1F
100
AcDbEntity
  8
SLD-0
  6
Continuous
 62
     7
370
    18
100
AcDbLine
 10
68.3541319701
 20
37.1944383331
 30
0.0
 11
118.5737310706
 21
37.1944383331
 31
0.0
  0
LINE
  5
9E
330
1F
100
AcDbEntity
  8
SLD-0
  6
Continuous
 62
     7
370
    18
100
AcDbLine
 10
68.3541319701
 20
43.5444383331
 30
0.0
 11
118.5737310706
 21
43.5444383331
 31
0.0
  0
LINE
  5
9F
330
1F
100
AcDbEntity
  8
SLD-0
  6
Continuous
 62
     7
370
    18
100
AcDbLine
 10
68.3541319701
 20
49.8944383331
 30
0.0
 11
118.5737310706
 21
49.8944383331
 31
0.0
  0
LINE
  5
A0
330
1F
100
AcDbEntity
  8
SLD-0
  6
Continuous
 62
     7
370
    18
100
AcDbLine
 10
93.7028272634
 20
62.5944383331
 30
0.0
 11
93.7028272634
 21
17.68538066
 31
0.0
  0
LINE
  5
A1
330
1F
100
AcDbEntity
  8
SLD-0
  6
Continuous
 62
     7
370
    18
100
AcDbLine
 10
153.5481386263
 20
58.6742077444
 30
0.0
 11
118.5737310706
 21
58.6742077444
 31
0.0
  0
LINE
  5
A2
330
1F
100
AcDbEntity
  8
SLD-0
  6
Continuous
 62
     7
370
    18
100
AcDbLine
 10
196.628512112
 20
43.5444383331
 30
0.0
 11
153.5481386263
 21
43.5444383331
 31
0.0
  0
LINE
  5
A3
330
1F
100
AcDbEntity
  8
SLD-0
  6
Continuous
 62
     7
370
    18
100
AcDbLine
 10
196.628512112
 20
38.7819383331
 30
0.0
 11
153.5481386263
 21
38.7819383331
 31
0.0
  0
LINE
  5
A4
330
1F
100
AcDbEntity
  8
SLD-0
  6
Continuous
 62
     7
370
    18
100
AcDbLine
 10
68.3541319701
 20
56.2444383331
 30
0.0
 11
118.5737310706
 21
56.2444383331
 31
0.0
  0
LINE
  5
A5
330
1F
100
AcDbEntity
  8
SLD-0
  6
Continuous
 62
     7
370
    18
100
AcDbLine
 10
118.5737310706
 20
38.1945733387
 30
0.0
 11
153.6625895844
 21
38.1945733387
 31
0.0
  0
LINE
  5
A6
330
1F
100
AcDbEntity
  8
SLD-0
  6
Continuous
 62
     7
370
    18
100
AcDbLine
 10
68.3541319701
 20
24.4944383331
 30
0.0
 11
118.5737310706
 21
24.4944383331
 31
0.0
  0
LINE
  5
A7
330
1F
100
AcDbEntity
  8
SLD-0
  6
Continuous
 62
     7
370
    18
100
AcDbLine
 10
26.7690166746
 20
12.7
 30
0.0
 11
26.7690166746
 21
35.9244383331
 31
0.0
  0
LINE
  5
A8
330
1F
100
AcDbEntity
  8
SLD-0
  6
Continuous
 62
     7
370
    18
100
AcDbLine
 10
68.3541319701
 20
35.9244383331
 30
0.0
 11
26.7690166746
 21
35.9244383331
 31
0.0
  0
LINE
  5
A9
330
1F
100
AcDbEntity
  8
SLD-0
  6
Continuous
 62
     7
370
    50
100
AcDbLine
 10
12.7
 20
12.7
 30
0.0
 11
12.7
 21
203.2
 31
0.0
  0
LINE
  5
AA
330
1F
100
AcDbEntity
  8
SLD-0
  6
Continuous
 62
     7
370
    50
100
AcDbLine
 10
12.7
 20
203.2
 30
0.0
 11
266.7
 21
203.2
 31
0.0
  0
LINE
  5
AB
330
1F
100
AcDbEntity
  8
SLD-0
  6
Continuous
 62
     7
370
    50
100
AcDbLine
 10
266.7
 20
203.2
 30
0.0
 11
266.7
 21
12.7
 31
0.0
  0
LINE
  5
AC
330
1F
100
AcDbEntity
  8
SLD-0
  6
Continuous
 62
     7
370
    50
100
AcDbLine
 10
266.7
 20
12.7
 30
0.0
 11
12.7
 21
12.7
 31
0.0
  0
LINE
  5
AD
330
1F
100
AcDbEntity
  8
SLD-0
  6
Continuous
 62
     7
370
    25
100
AcDbLine
 10
3.175
 20
107.95
 30
0.0
 11
12.7
 21
107.95
 31
0.0
  0
LINE
  5
AE
330
1F
100
AcDbEntity
  8
SLD-0
  6
Continuous
 62
     7
370
    25
100
AcDbLine
 10
139.7
 20
212.725
 30
0.0
 11
139.7
 21
203.2
 31
0.0
  0
LINE
  5
AF
330
1F
100
AcDbEntity
  8
SLD-0
  6
Continuous
 62
     7
370
    25
100
AcDbLine
 10
276.225
 20
107.95
 30
0.0
 11
266.7
 21
107.95
 31
0.0
  0
LINE
  5
B0
330
1F
100
AcDbEntity
  8
SLD-0
  6
Continuous
 62
     7
370
    25
100
AcDbLine
 10
139.7
 20
3.175
 30
0.0
 11
139.7
 21
12.7
 31
0.0
  0
LINE
  5
B1
330
1F
100
AcDbEntity
  8
SLD-0
  6
Continuous
 62
     7
370
    25
100
AcDbLine
 10
12.7
 20
107.95
 30
0.0
 11
3.175
 21
107.95
 31
0.0
  0
LINE
  5
B2
330
1F
100
AcDbEntity
  8
SLD-0
  6
Continuous
 62
     7
370
    25
100
AcDbLine
 10
266.7
 20
107.95
 30
0.0
 11
276.225
 21
107.95
 31
0.0
  0
LINE
  5
B3
330
1F
100
AcDbEntity
  8
SLD-0
  6
Continuous
 62
     7
370
    25
100
AcDbLine
 10
139.7
 20
203.2
 30
0.0
 11
139.7
 21
212.725
 31
0.0
  0
LINE
  5
B4
330
1F
100
AcDbEntity
  8
SLD-0
  6
Continuous
 62
     7
370
    25
100
AcDbLine
 10
139.7
 20
12.7
 30
0.0
 11
139.7
 21
3.175
 31
0.0
  0
LINE
  5
B5
330
1F
100
AcDbEntity
  8
SLD-0
  6
Continuous
 62
     7
370
    25
100
AcDbLine
 10
124.6798921053
 20
123.7487473684
 30
0.0
 11
124.6798921053
 21
129.9487473684
 31
0.0
  0
LINE
  5
B6
330
1F
100
AcDbEntity
  8
SLD-0
  6
Continuous
 62
     7
370
    25
100
AcDbLine
 10
142.3569921053
 20
123.7487473684
 30
0.0
 11
124.6798921053
 21
123.7487473684
 31
0.0
  0
LINE
  5
B7
330
1F
100
AcDbEntity
  8
SLD-0
  6
Continuous
 62
     7
370
    25
100
AcDbLine
 10
142.3569921053
 20
150.5487473684
 30
0.0
 11
142.3569921053
 21
123.7487473684
 31
0.0
  0
LINE
  5
B8
330
1F
100
AcDbEntity
  8
SLD-0
  6
Continuous
 62
     7
370
    25
100
AcDbLine
 10
121.7569921053
 20
150.5487473684
 30
0.0
 11
142.3569921053
 21
150.5487473684
 31
0.0
  0
LINE
  5
B9
330
1F
100
AcDbEntity
  8
SLD-0
  6
Continuous
 62
     7
370
    25
100
AcDbLine
 10
121.7569921053
 20
155.2487473684
 30
0.0
 11
121.7569921053
 21
150.5487473684
 31
0.0
  0
LINE
  5
BA
330
1F
100
AcDbEntity
  8
SLD-0
  6
Continuous
 62
     7
370
    25
100
AcDbLine
 10
125.3569921053
 20
155.2487473684
 30
0.0
 11
121.7569921053
 21
155.2487473684
 31
0.0
  0
LINE
  5
BB
330
1F
100
AcDbEntity
  8
SLD-0
  6
Continuous
 62
     7
370
    25
100
AcDbLine
 10
125.3569921053
 20
154.1487473684
 30
0.0
 11
125.3569921053
 21
155.2487473684
 31
0.0
  0
LINE
  5
BC
330
1F
100
AcDbEntity
  8
SLD-0
  6
Continuous
 62
     7
370
    25
100
AcDbLine
 10
145.9569921053
 20
154.1487473684
 30
0.0
 11
125.3569921053
 21
154.1487473684
 31
0.0
  0
LINE
  5
BD
330
1F
100
AcDbEntity
  8
SLD-0
  6
Continuous
 62
     7
370
    25
100
AcDbLine
 10
145.9569921053
 20
120.1487473684
 30
0.0
 11
145.9569921053
 21
154.1487473684
 31
0.0
  0
LINE
  5
BE
330
1F
100
AcDbEntity
  8
SLD-0
  6
Continuous
 62
     7
370
    25
100
AcDbLine
 10
121.0798921053
 20
120.1487473684
 30
0.0
 11
145.9569921053
 21
120.1487473684
 31
0.0
  0
LINE
  5
BF
330
1F
100
AcDbEntity
  8
SLD-0
  6
Continuous
 62
     7
370
    25
100
AcDbLine
 10
121.0798921053
 20
129.9487473684
 30
0.0
 11
121.0798921053
 21
120.1487473684
 31
0.0
  0
LINE
  5
C0
330
1F
100
AcDbEntity
  8
SLD-0
  6
Continuous
 62
     7
370
    25
100
AcDbLine
 10
124.6798921053
 20
129.9487473684
 30
0.0
 11
121.0798921053
 21
129.9487473684
 31
0.0
  0
CIRCLE
  5
C1
330
1F
100
AcDbEntity
  8
SLD-0
  6
Continuous
 62
     7
370
    25
100
AcDbCircle
 10
122.9798921053
 20
127.6537473684
 30
0.0
 40
0.9300000000000068
  0
INSERT
  5
C2
330
1F
100
AcDbEntity
  8
0
  6
Continuous
 62
     7
100
AcDbBlockReference
  2
SW_CENTERMARKSYMBOL_0
 10
122.9798921053
 20
127.6537473684
 30
0.0
  0
INSERT
  5
C3
330
1F
100
AcDbEntity
  8
0
  6
Continuous
 62
     7
100
AcDbBlockReference
  2
SW_NOTE_0_1
 10
119.5173361573
 20
53.6662300215
 30
0.0
  0
INSERT
  5
C4
330
1F
100
AcDbEntity
  8
0
  6
Continuous
 62
     7
100
AcDbBlockReference
  2
SW_NOTE_0_2
 10
27.7544252483
 20
28.9376134837
 30
0.0
  0
INSERT
  5
C5
330
1F
100
AcDbEntity
  8
0
  6
Continuous
 62
     7
100
AcDbBlockReference
  2
SW_NOTE_0
 10
119.2089478467
 20
34.8635605478
 30
0.0
  0
DIMENSION
  5
C6
330
1F
100
AcDbEntity
  8
SLD-0
 62
     7
100
AcDbDimension
  2
_D
 10
121.7569921053
 20
158.0967407522
 30
0.0
 11
115.3685292267
 21
158.0967407522
 31
0.0
 70
   160
  1
<>
 71
     2
 42
-1.0
  3
SLDDIMSTYLE0
100
AcDbAlignedDimension
 13
125.3569921053
 23
155.2487473684
 33
0.0
 14
121.7569921053
 24
155.2487473684
 34
0.0
100
AcDbRotatedDimension
  0
DIMENSION
  5
D7
330
1F
100
AcDbEntity
  8
SLD-0
 62
     7
100
AcDbDimension
  2
_D_1
 10
98.3550761452
 20
150.5487473684
 30
0.0
 11
98.3550761452
 21
154.1957700957
 31
0.0
 70
   160
  1
<>
 71
     2
 42
-1.0
  3
SLDDIMSTYLE0
100
AcDbAlignedDimension
 13
121.7569921053
 23
155.2487473684
 33
0.0
 14
121.7569921053
 24
150.5487473684
 34
0.0
 50
90.0
100
AcDbRotatedDimension
  0
DIMENSION
  5
E3
330
1F
100
AcDbEntity
  8
SLD-0
 62
     7
100
AcDbDimension
  2
_D_2
 10
145.9569921053
 20
162.9559621811
 30
0.0
 11
133.1812280787
 21
162.9559621811
 31
0.0
 70
   160
  1
<>
 71
     2
 42
-1.0
  3
SLDDIMSTYLE0
100
AcDbAlignedDimension
 13
121.7569921053
 23
155.2487473684
 33
0.0
 14
145.9569921053
 24
154.1487473684
 34
0.0
100
AcDbRotatedDimension
  0
DIMENSION
  5
ED
330
1F
100
AcDbEntity
  8
SLD-0
 62
     7
100
AcDbDimension
  2
_D_3
 10
145.9569921053
 20
109.2321455321
 30
0.0
 11
133.1812280787
 21
109.2321455321
 31
0.0
 70
   160
  1
<>
 71
     2
 42
-1.0
  3
SLDDIMSTYLE1
100
AcDbAlignedDimension
 13
121.0798921053
 23
120.1487473684
 33
0.0
 14
145.9569921053
 24
120.1487473684
 34
0.0
100
AcDbRotatedDimension
  0
DIMENSION
  5
F8
330
1F
100
AcDbEntity
  8
SLD-0
 62
     7
100
AcDbDimension
  2
_D_4
 10
98.3550761452
 20
120.1487473684
 30
0.0
 11
98.3550761452
 21
125.7711122892
 31
0.0
 70
   160
  1
<>
 71
     2
 42
-1.0
  3
SLDDIMSTYLE0
100
AcDbAlignedDimension
 13
121.0798921053
 23
129.9487473684
 33
0.0
 14
121.0798921053
 24
120.1487473684
 34
0.0
 50
90.0
100
AcDbRotatedDimension
  0
DIMENSION
  5
104
330
1F
100
AcDbEntity
  8
SLD-0
 62
     7
100
AcDbDimension
  2
_D_5
 10
121.0798921053
 20
136.6684877193
 30
0.0
 11
102.4457398307
 21
136.6684877193
 31
0.0
 70
   160
  1
<>
 71
     2
 42
-1.0
  3
SLDDIMSTYLE0
100
AcDbAlignedDimension
 13
124.6798921053
 23
129.9487473684
 33
0.0
 14
121.0798921053
 24
129.9487473684
 34
0.0
100
AcDbRotatedDimension
  0
DIMENSION
  5
110
330
1F
100
AcDbEntity
  8
SLD-0
 62
     7
100
AcDbDimension
  2
_D_6
 10
152.3444251595
 20
154.1487473684
 30
0.0
 11
152.3444251595
 21
136.6684877193
 31
0.0
 70
   160
  1
<>
 71
     2
 42
-1.0
  3
SLDDIMSTYLE0
100
AcDbAlignedDimension
 13
145.9569921053
 23
120.1487473684
 33
0.0
 14
145.9569921053
 24
154.1487473684
 34
0.0
 50
90.0
100
AcDbRotatedDimension
  0
DIMENSION
  5
11A
330
1F
100
AcDbEntity
  8
SLD-0
 62
     7
100
AcDbDimension
  2
_D_7
 10
1.2904678478
 20
1.3395121252
 30
0.0
 11
108.1482982456
 21
132.9337964912
 31
0.0
 70
   163
  1
<>
 71
     1
 42
-1.0
  3
SLDDIMSTYLE2
100
AcDbDiametricDimension
 15
0.0
 25
0.0
 35
0.0
 40
0.0
  0
DIMENSION
  5
124
330
1F
100
AcDbEntity
  8
SLD-0
 62
     7
100
AcDbDimension
  2
_D_8
 10
124.6798921053
 20
140.6089004716
 30
0.0
 11
133.1812280787
 21
140.6089004716
 31
0.0
 70
   160
  1
<>
 71
     2
 42
-1.0
  3
SLDDIMSTYLE0
100
AcDbAlignedDimension
 13
122.9798921053
 23
131.1237473684
 33
0.0
 14
124.6798921053
 24
129.9487473684
 34
0.0
100
AcDbRotatedDimension
  0
DIMENSION
  5
130
330
1F
100
AcDbEntity
  8
SLD-0
 62
     7
100
AcDbDimension
  2
_D_9
 10
136.6677030924
 20
129.9487473684
 30
0.0
 11
136.6677030924
 21
134.4664261857
 31
0.0
 70
   160
  1
<>
 71
     2
 42
-1.0
  3
SLDDIMSTYLE0
100
AcDbAlignedDimension
 13
126.4498921053
 23
127.6537473684
 33
0.0
 14
124.6798921053
 24
129.9487473684
 34
0.0
 50
90.0
100
AcDbRotatedDimension
  0
DIMENSION
  5
13C
330
1F
100
AcDbEntity
  8
SLD-0
 62
     7
100
AcDbDimension
  2
_D_10
 10
159.9044646945
 20
150.5487473684
 30
0.0
 11
159.9044646945
 21
159.1183614191
 31
0.0
 70
   160
  1
<>
 71
     2
 42
-1.0
  3
SLDDIMSTYLE0
100
AcDbAlignedDimension
 13
145.9569921053
 23
154.1487473684
 33
0.0
 14
142.3569921053
 24
150.5487473684
 34
0.0
 50
90.0
100
AcDbRotatedDimension
  0
DIMENSION
  5
148
330
1F
100
AcDbEntity
  8
SLD-0
 62
     7
100
AcDbDimension
  2
_D_11
 10
145.9569921053
 20
114.3817881617
 30
0.0
 11
154.0482008772
 21
114.3817881617
 31
0.0
 70
   160
  1
<>
 71
     2
 42
-1.0
  3
SLDDIMSTYLE0
100
AcDbAlignedDimension
 13
142.3569921053
 23
123.7487473684
 33
0.0
 14
145.9569921053
 24
120.1487473684
 34
0.0
100
AcDbRotatedDimension
  0
DIMENSION
  5
154
330
1F
100
AcDbEntity
  8
SLD-0
 62
     7
100
AcDbDimension
  2
_D_12
 10
159.9044646945
 20
120.1487473684
 30
0.0
 11
159.9044646945
 21
129.0552152978
 31
0.0
 70
   160
  1
<>
 71
     2
 42
-1.0
  3
SLDDIMSTYLE0
100
AcDbAlignedDimension
 13
142.3569921053
 23
123.7487473684
 33
0.0
 14
145.9569921053
 24
120.1487473684
 34
0.0
 50
90.0
100
AcDbRotatedDimension
  0
MTEXT
  5
160
330
1F
100
AcDbEntity
  8
SLD-0
 62
     7
100
AcDbMText
 10
6.4608166096
 20
57.0150793362
 30
0.0
 40
6.096
 41
0.0
 71
     2
 72
     1
  1
A
  7
SLDTEXTSTYLE0
 73
     1
 44
1.0
  0
MTEXT
  5
161
330
1F
100
AcDbEntity
  8
SLD-0
 62
     7
100
AcDbMText
 10
272.4608166096
 20
57.0150793362
 30
0.0
 40
6.096
 41
0.0
 71
     2
 72
     1
  1
A
  7
SLDTEXTSTYLE0
 73
     1
 44
1.0
  0
MTEXT
  5
162
330
1F
100
AcDbEntity
  8
SLD-0
 62
     7
100
AcDbMText
 10
6.6576664962
 20
164.9650793362
 30
0.0
 40
6.096
 41
0.0
 71
     2
 72
     1
  1
B
  7
SLDTEXTSTYLE0
 73
     1
 44
1.0
  0
MTEXT
  5
163
330
1F
100
AcDbEntity
  8
SLD-0
 62
     7
100
AcDbMText
 10
272.6576664962
 20
164.9650793362
 30
0.0
 40
6.096
 41
0.0
 71
     2
 72
     1
  1
B
  7
SLDTEXTSTYLE0
 73
     1
 44
1.0
  0
MTEXT
  5
164
330
1F
100
AcDbEntity
  8
SLD-0
 62
     7
100
AcDbMText
 10
69.7928499376
 20
8.6815998041
 30
0.0
 40
6.096
 41
0.0
 71
     2
 72
     1
  1
2
  7
SLDTEXTSTYLE0
 73
     1
 44
1.0
  0
MTEXT
  5
165
330
1F
100
AcDbEntity
  8
SLD-0
 62
     7
100
AcDbMText
 10
69.7928499376
 20
212.2400793362
 30
0.0
 40
6.096
 41
0.0
 71
     2
 72
     1
  1
2
  7
SLDTEXTSTYLE0
 73
     1
 44
1.0
  0
MTEXT
  5
166
330
1F
100
AcDbEntity
  8
SLD-0
 62
     7
100
AcDbMText
 10
209.4474739866
 20
8.6815998041
 30
0.0
 40
6.096
 41
0.0
 71
     2
 72
     1
  1
1
  7
SLDTEXTSTYLE0
 73
     1
 44
1.0
  0
MTEXT
  5
167
330
1F
100
AcDbEntity
  8
SLD-0
 62
     7
100
AcDbMText
 10
209.4474739866
 20
212.2400793362
 30
0.0
 40
6.096
 41
0.0
 71
     2
 72
     1
  1
1
  7
SLDTEXTSTYLE0
 73
     1
 44
1.0
  0
MTEXT
  5
168
330
1F
100
AcDbEntity
  8
SLD-0
 62
     7
100
AcDbMText
 10
136.041447728
 20
15.6570533365
 30
0.0
 40
1.5875
 41
0.0
 71
     2
 72
     1
  1
DO NOT SCALE DRAWING
  7
SLDTEXTSTYLE0
 73
     1
 44
1.0
  0
MTEXT
  5
169
330
1F
100
AcDbEntity
  8
SLD-0
 62
     7
100
AcDbMText
 10
229.7322779538
 20
25.9226914594
 30
0.0
 40
6.35
 41
0.0
 71
     2
 72
     1
  1
Part2
  7
SLDTEXTSTYLE0
 73
     1
 44
1.0
  0
MTEXT
  5
16B
330
1F
100
AcDbEntity
  8
SLD-0
 62
     7
100
AcDbMText
 10
244.5309015475
 20
16.392818442
 30
0.0
 40
2.54
 41
0.0
 71
     1
 72
     1
  1
SHEET 1 OF 1
  7
SLDTEXTSTYLE2
 73
     1
 44
1.0
  0
MTEXT
  5
16C
330
1F
100
AcDbEntity
  8
SLD-0
 62
     7
100
AcDbMText
 10
119.7579719589
 20
61.2329808762
 30
0.0
 40
1.778
 41
0.0
 71
     1
 72
     1
  1
UNLESS OTHERWISE SPECIFIED:
  7
SLDTEXTSTYLE0
 73
     1
 44
1.0
  0
MTEXT
  5
16D
330
1F
100
AcDbEntity
  8
SLD-0
 62
     7
100
AcDbMText
 10
198.8486489046
 20
16.3845592436
 30
0.0
 40
2.54
 41
0.0
 71
     1
 72
     1
  1
SCALE: 1:1
  7
SLDTEXTSTYLE0
 73
     1
 44
1.0
  0
MTEXT
  5
16E
330
1F
100
AcDbEntity
  8
SLD-0
 62
     7
100
AcDbMText
 10
217.7400309829
 20
16.2976289258
 30
0.0
 40
2.54
 41
0.0
 71
     1
 72
     1
  1
WEIGHT:
  7
SLDTEXTSTYLE0
 73
     1
 44
1.0
  0
MTEXT
  5
16F
330
1F
100
AcDbEntity
  8
SLD-0
 62
     7
100
AcDbMText
 10
256.4849098979
 20
29.8431940239
 30
0.0
 40
2.54
 41
0.0
 71
     1
 72
     1
  1
REV
  7
SLDTEXTSTYLE0
 73
     1
 44
1.0
  0
MTEXT
  5
171
330
1F
100
AcDbEntity
  8
SLD-0
 62
     7
100
AcDbMText
 10
207.4806642798
 20
29.9424122749
 30
0.0
 40
2.54
 41
0.0
 71
     1
 72
     1
  1
DWG.  NO.
  7
SLDTEXTSTYLE3
 73
     1
 44
1.0
  0
MTEXT
  5
172
330
1F
100
AcDbEntity
  8
SLD-0
 62
     7
100
AcDbMText
 10
198.8800000853
 20
25.7741504908
 30
0.0
 40
6.35
 41
0.0
 71
     1
 72
     1
  1
A
  7
SLDTEXTSTYLE0
 73
     1
 44
1.0
  0
MTEXT
  5
173
330
1F
100
AcDbEntity
  8
SLD-0
 62
     7
100
AcDbMText
 10
198.679592027
 20
29.9779422779
 30
0.0
 40
2.54
 41
0.0
 71
     1
 72
     1
  1
SIZE
  7
SLDTEXTSTYLE0
 73
     1
 44
1.0
  0
MTEXT
  5
174
330
1F
100
AcDbEntity
  8
SLD-0
 62
     7
100
AcDbMText
 10
197.7934428097
 20
52.0128680946
 30
0.0
 40
2.54
 41
0.0
 71
     1
 72
     1
  1
TITLE:
  7
SLDTEXTSTYLE0
 73
     1
 44
1.0
  0
MTEXT
  5
175
330
1F
100
AcDbEntity
  8
SLD-0
 62
     7
100
AcDbMText
 10
175.4238425205
 20
60.675931708
 30
0.0
 40
1.651
 41
0.0
 71
     1
 72
     1
  1
NAME
  7
SLDTEXTSTYLE0
 73
     1
 44
1.0
  0
MTEXT
  5
176
330
1F
100
AcDbEntity
  8
SLD-0
 62
     7
100
AcDbMText
 10
187.9148912103
 20
60.6318318336
 30
0.0
 40
1.651
 41
0.0
 71
     1
 72
     1
  1
DATE
  7
SLDTEXTSTYLE0
 73
     1
 44
1.0
  0
MTEXT
  5
177
330
1F
100
AcDbEntity
  8
SLD-0
 62
     7
100
AcDbMText
 10
154.8838076531
 20
32.6616414598
 30
0.0
 40
1.651
 41
0.0
 71
     1
 72
     1
  1
COMMENTS:
  7
SLDTEXTSTYLE0
 73
     1
 44
1.0
  0
MTEXT
  5
178
330
1F
100
AcDbEntity
  8
SLD-0
 62
     7
100
AcDbMText
 10
154.8616193103
 20
36.8759803387
 30
0.0
 40
1.651
 41
0.0
 71
     1
 72
     1
  1
Q.A.
  7
SLDTEXTSTYLE0
 73
     1
 44
1.0
  0
MTEXT
  5
179
330
1F
100
AcDbEntity
  8
SLD-0
 62
     7
100
AcDbMText
 10
154.9028766528
 20
41.598416269
 30
0.0
 40
1.651
 41
0.0
 71
     1
 72
     1
  1
MFG APPR.
  7
SLDTEXTSTYLE0
 73
     1
 44
1.0
  0
MTEXT
  5
17A
330
1F
100
AcDbEntity
  8
SLD-0
 62
     7
100
AcDbMText
 10
154.777189414
 20
46.3537366074
 30
0.0
 40
1.651
 41
0.0
 71
     1
 72
     1
  1
ENG APPR.
  7
SLDTEXTSTYLE0
 73
     1
 44
1.0
  0
MTEXT
  5
17B
330
1F
100
AcDbEntity
  8
SLD-0
 62
     7
100
AcDbMText
 10
154.8506782356
 20
50.9897377562
 30
0.0
 40
1.651
 41
0.0
 71
     1
 72
     1
  1
CHECKED
  7
SLDTEXTSTYLE0
 73
     1
 44
1.0
  0
MTEXT
  5
17C
330
1F
100
AcDbEntity
  8
SLD-0
 62
     7
100
AcDbMText
 10
154.796551863
 20
55.8756872033
 30
0.0
 40
1.651
 41
0.0
 71
     1
 72
     1
  1
DRAWN
  7
SLDTEXTSTYLE0
 73
     1
 44
1.0
  0
MTEXT
  5
17D
330
1F
100
AcDbEntity
  8
SLD-0
 62
     7
100
AcDbMText
 10
119.1497006873
 20
23.7101768196
 30
0.0
 40
1.524
 41
0.0
 71
     1
 72
     1
  1
FINISH
  7
SLDTEXTSTYLE0
 73
     1
 44
1.0
  0
MTEXT
  5
17E
330
1F
100
AcDbEntity
  8
SLD-0
 62
     7
100
AcDbMText
 10
119.0802054458
 20
30.524959321
 30
0.0
 40
1.524
 41
0.0
 71
     1
 72
     1
  1
MATERIAL
  7
SLDTEXTSTYLE0
 73
     1
 44
1.0
  0
MTEXT
  5
17F
330
1F
100
AcDbEntity
  8
SLD-0
 62
     7
100
AcDbMText
 10
86.949610419
 20
15.7120180344
 30
0.0
 40
1.5875
 41
0.0
 71
     1
 72
     1
  1
APPLICATION
  7
SLDTEXTSTYLE0
 73
     1
 44
1.0
  0
MTEXT
  5
180
330
1F
100
AcDbEntity
  8
SLD-0
 62
     7
100
AcDbMText
 10
100.8540979063
 20
21.5600182208
 30
0.0
 40
1.5875
 41
0.0
 71
     1
 72
     1
  1
USED ON
  7
SLDTEXTSTYLE0
 73
     1
 44
1.0
  0
MTEXT
  5
181
330
1F
100
AcDbEntity
  8
SLD-0
 62
     7
100
AcDbMText
 10
75.5415038203
 20
21.5337051115
 30
0.0
 40
1.5875
 41
0.0
 71
     1
 72
     1
  1
NEXT ASSY
  7
SLDTEXTSTYLE0
 73
     1
 44
1.0
  0
MTEXT
  5
182
330
1F
100
AcDbEntity
  8
SLD-0
 62
     7
100
AcDbMText
 10
31.5295775012
 20
34.2548352688
 30
0.0
 40
1.524
 41
0.0
 71
     1
 72
     1
  1
PROPRIETARY AND CONFIDENTIAL
  7
SLDTEXTSTYLE0
 73
     1
 44
1.0
  0
MTEXT
  5
184
330
1F
100
AcDbEntity
  8
SLD-0
 62
     7
100
AcDbMText
 10
0.0
 20
9.8584389361
 30
0.0
 40
3.73507
 41
0.0
 71
     1
 72
     1
  1
SOLIDWORKS Educational Product.
  7
SLDTEXTSTYLE4
 73
     1
 44
1.0
  0
MTEXT
  5
185
330
1F
100
AcDbEntity
  8
SLD-0
 62
     7
100
AcDbMText
 10
0.0
 20
4.2558339361
 30
0.0
 40
3.73507
 41
0.0
 71
     1
 72
     1
  1
For Instructional Use Only.
  7
SLDTEXTSTYLE4
 73
     1
 44
1.0
  0
ENDSEC
  0
SECTION
  2
OBJECTS
  0
DICTIONARY
  5
C
330
0
100
AcDbDictionary
281
     1
  3
ACAD_GROUP
350
D
  3
ACAD_LAYOUT
350
1A
  3
ACAD_MLINESTYLE
350
17
  3
ACAD_PLOTSETTINGS
350
19
  3
ACAD_PLOTSTYLENAME
350
E
  3
ACAD_SCALELIST
350
47
  3
DWGPROPS
350
186
  0
DICTIONARY
  5
D
102
{ACAD_REACTORS
330
C
102
}
330
C
100
AcDbDictionary
281
     1
  0
DICTIONARY
  5
1A
102
{ACAD_REACTORS
330
C
102
}
330
C
100
AcDbDictionary
281
     1
  3
Layout1
350
1E
  3
Layout2
350
26
  3
Model
350
22
  0
DICTIONARY
  5
17
102
{ACAD_REACTORS
330
C
102
}
330
C
100
AcDbDictionary
281
     1
  3
Standard
350
18
  0
DICTIONARY
  5
19
102
{ACAD_REACTORS
330
C
102
}
330
C
100
AcDbDictionary
281
     1
  0
ACDBDICTIONARYWDFLT
  5
E
102
{ACAD_REACTORS
330
C
102
}
330
C
100
AcDbDictionary
281
     1
  3
Normal
350
F
100
AcDbDictionaryWithDefault
340
F
  0
DICTIONARY
  5
47
102
{ACAD_REACTORS
330
C
102
}
330
C
100
AcDbDictionary
281
     1
  3
A0
350
48
  3
A1
350
49
  3
A2
350
4A
  3
A3
350
4B
  3
A4
350
4C
  3
A5
350
4D
  3
A6
350
4E
  3
A7
350
4F
  3
A8
350
50
  3
A9
350
51
  3
B0
350
52
  3
B1
350
53
  3
B2
350
54
  3
B3
350
55
  3
B4
350
56
  3
B5
350
57
  3
B6
350
58
  0
XRECORD
  5
186
102
{ACAD_REACTORS
330
C
102
}
330
C
100
AcDbXrecord
280
     1
  1
DWGPROPS COOKIE
  2

  3

  4

  6

  7

  8
DELL
  9

300
=
301
=
302
=
303
=
304
=
305
=
306
=
307
=
308
=
309
=
 40
0.0
 41
2460455.227891412
 42
2460455.227892095
  1

 90
        0
  0
LAYOUT
  5
1E
102
{ACAD_REACTORS
330
1A
102
}
330
1A
100
AcDbPlotSettings
  1

  2
none_device
  4

  6

 40
0.0
 41
0.0
 42
0.0
 43
0.0
 44
0.0
 45
0.0
 46
0.0
 47
0.0
 48
0.0
 49
0.0
140
0.0
141
0.0
142
1.0
143
1.0
 70
   688
 72
     1
 73
     0
 74
     5
  7

 75
    16
147
1.0
148
0.0
149
0.0
100
AcDbLayout
  1
Layout1
 70
     1
 71
     1
 10
0.0
 20
0.0
 11
420.0
 21
297.0
 12
0.0
 22
0.0
 32
0.0
 14
1.0000000000E+20
 24
1.0000000000E+20
 34
1.0000000000E+20
 15
-1.0000000000E+20
 25
-1.0000000000E+20
 35
-1.0000000000E+20
146
0.0
 13
0.0
 23
0.0
 33
0.0
 16
1.0
 26
0.0
 36
0.0
 17
0.0
 27
1.0
 37
0.0
 76
     0
330
1B
  0
LAYOUT
  5
26
102
{ACAD_REACTORS
330
1A
102
}
330
1A
100
AcDbPlotSettings
  1

  2
none_device
  4

  6

 40
0.0
 41
0.0
 42
0.0
 43
0.0
 44
0.0
 45
0.0
 46
0.0
 47
0.0
 48
0.0
 49
0.0
140
0.0
141
0.0
142
1.0
143
1.0
 70
   688
 72
     1
 73
     0
 74
     5
  7

 75
    16
147
1.0
148
0.0
149
0.0
100
AcDbLayout
  1
Layout2
 70
     1
 71
     2
 10
0.0
 20
0.0
 11
0.0
 21
0.0
 12
0.0
 22
0.0
 32
0.0
 14
0.0
 24
0.0
 34
0.0
 15
0.0
 25
0.0
 35
0.0
146
0.0
 13
0.0
 23
0.0
 33
0.0
 16
1.0
 26
0.0
 36
0.0
 17
0.0
 27
1.0
 37
0.0
 76
     0
330
23
  0
LAYOUT
  5
22
102
{ACAD_REACTORS
330
1A
102
}
330
1A
100
AcDbPlotSettings
  1

  2
none_device
  4
Letter_(8.50_x_11.00_Inches)
  6

 40
6.35
 41
6.35
 42
6.35000508
 43
6.35000508
 44
215.9
 45
279.4
 46
0.0
 47
0.0
 48
0.0
 49
0.0
140
0.0
141
0.0
142
1.0
143
1.0
 70
  1712
 72
     1
 73
     0
 74
     0
  7

 75
     0
147
1.0
148
0.0
149
0.0
100
AcDbLayout
  1
Model
 70
     1
 71
     0
 10
0.0
 20
0.0
 11
420.0
 21
297.0
 12
0.0
 22
0.0
 32
0.0
 14
0.0
 24
0.0
 34
0.0
 15
420.0
 25
297.0
 35
0.0
146
0.0
 13
0.0
 23
0.0
 33
0.0
 16
1.0
 26
0.0
 36
0.0
 17
0.0
 27
1.0
 37
0.0
 76
     0
330
1F
331
29
  0
MLINESTYLE
  5
18
102
{ACAD_REACTORS
330
17
102
}
330
17
100
AcDbMlineStyle
  2
Standard
 70
     0
  3

 62
   256
 51
90.0
 52
90.0
 71
     2
 49
0.5
 62
   256
  6
BYLAYER
 49
-0.5
 62
   256
  6
BYLAYER
  0
ACDBPLACEHOLDER
  5
F
102
{ACAD_REACTORS
330
E
102
}
330
E
  0
SCALE
  5
48
102
{ACAD_REACTORS
330
47
102
}
330
47
100
AcDbScale
 70
     0
300
1:1
140
1.0
141
1.0
290
     1
  0
SCALE
  5
49
102
{ACAD_REACTORS
330
47
102
}
330
47
100
AcDbScale
 70
     0
300
1:2
140
1.0
141
2.0
290
     0
  0
SCALE
  5
4A
102
{ACAD_REACTORS
330
47
102
}
330
47
100
AcDbScale
 70
     0
300
1:4
140
1.0
141
4.0
290
     0
  0
SCALE
  5
4B
102
{ACAD_REACTORS
330
47
102
}
330
47
100
AcDbScale
 70
     0
300
1:5
140
1.0
141
5.0
290
     0
  0
SCALE
  5
4C
102
{ACAD_REACTORS
330
47
102
}
330
47
100
AcDbScale
 70
     0
300
1:8
140
1.0
141
8.0
290
     0
  0
SCALE
  5
4D
102
{ACAD_REACTORS
330
47
102
}
330
47
100
AcDbScale
 70
     0
300
1:10
140
1.0
141
10.0
290
     0
  0
SCALE
  5
4E
102
{ACAD_REACTORS
330
47
102
}
330
47
100
AcDbScale
 70
     0
300
1:16
140
1.0
141
16.0
290
     0
  0
SCALE
  5
4F
102
{ACAD_REACTORS
330
47
102
}
330
47
100
AcDbScale
 70
     0
300
1:20
140
1.0
141
20.0
290
     0
  0
SCALE
  5
50
102
{ACAD_REACTORS
330
47
102
}
330
47
100
AcDbScale
 70
     0
300
1:30
140
1.0
141
30.0
290
     0
  0
SCALE
  5
51
102
{ACAD_REACTORS
330
47
102
}
330
47
100
AcDbScale
 70
     0
300
1:40
140
1.0
141
40.0
290
     0
  0
SCALE
  5
52
102
{ACAD_REACTORS
330
47
102
}
330
47
100
AcDbScale
 70
     0
300
1:50
140
1.0
141
50.0
290
     0
  0
SCALE
  5
53
102
{ACAD_REACTORS
330
47
102
}
330
47
100
AcDbScale
 70
     0
300
1:100
140
1.0
141
100.0
290
     0
  0
SCALE
  5
54
102
{ACAD_REACTORS
330
47
102
}
330
47
100
AcDbScale
 70
     0
300
2:1
140
2.0
141
1.0
290
     0
  0
SCALE
  5
55
102
{ACAD_REACTORS
330
47
102
}
330
47
100
AcDbScale
 70
     0
300
4:1
140
4.0
141
1.0
290
     0
  0
SCALE
  5
56
102
{ACAD_REACTORS
330
47
102
}
330
47
100
AcDbScale
 70
     0
300
8:1
140
8.0
141
1.0
290
     0
  0
SCALE
  5
57
102
{ACAD_REACTORS
330
47
102
}
330
47
100
AcDbScale
 70
     0
300
10:1
140
10.0
141
1.0
290
     0
  0
SCALE
  5
58
102
{ACAD_REACTORS
330
47
102
}
330
47
100
AcDbScale
 70
     0
300
100:1
140
100.0
141
1.0
290
     0
  0
ENDSEC
  0
EOF
