  0
SECTION
  2
HEADER
  9
$ACADVER
  1
AC1015
  9
$ACADMAINTVER
 70
     6
  9
$DWGCODEPAGE
  3
ANSI_1252
  9
$INSBASE
 10
0.0
 20
0.0
 30
0.0
  9
$EXTMIN
 10
0.0
 20
0.0
 30
0.0
  9
$EXTMAX
 10
420.0
 20
297.0
 30
0.0
  9
$LIMMIN
 10
0.0
 20
0.0
  9
$LIMMAX
 10
420.0
 20
297.0
  9
$ORTHOMODE
 70
     0
  9
$REGENMODE
 70
     1
  9
$FILLMODE
 70
     1
  9
$QTEXTMODE
 70
     0
  9
$MIRRTEXT
 70
     1
  9
$LTSCALE
 40
1.0
  9
$ATTMODE
 70
     1
  9
$TEXTSIZE
 40
3.5
  9
$TRACEWID
 40
1.0
  9
$TEXTSTYLE
  7
Standard
  9
$CLAYER
  8
0
  9
$CELTYPE
  6
ByLayer
  9
$CECOLOR
 62
   256
  9
$CELTSCALE
 40
1.0
  9
$DISPSILH
 70
     0
  9
$DIMSCALE
 40
1.0
  9
$DIMASZ
 40
3.302
  9
$DIMEXO
 40
1.0
  9
$DIMDLI
 40
3.75
  9
$DIMRND
 40
0.0
  9
$DIMDLE
 40
0.0
  9
$DIMEXE
 40
1.0
  9
$DIMTP
 40
0.0
  9
$DIMTM
 40
0.0
  9
$DIMTXT
 40
3.5
  9
$DIMCEN
 40
2.5
  9
$DIMTSZ
 40
0.0
  9
$DIMTOL
 70
     0
  9
$DIMLIM
 70
     0
  9
$DIMTIH
 70
     1
  9
$DIMTOH
 70
     1
  9
$DIMSE1
 70
     0
  9
$DIMSE2
 70
     0
  9
$DIMTAD
 70
     1
  9
$DIMZIN
 70
     1
  9
$DIMBLK
  1

  9
$DIMASO
 70
     1
  9
$DIMSHO
 70
     1
  9
$DIMPOST
  1

  9
$DIMAPOST
  1

  9
$DIMALT
 70
     0
  9
$DIMALTD
 70
     3
  9
$DIMALTF
 40
0.0393700787
  9
$DIMLFAC
 40
1.0
  9
$DIMTOFL
 70
     1
  9
$DIMTVP
 40
0.0
  9
$DIMTIX
 70
     0
  9
$DIMSOXD
 70
     0
  9
$DIMSAH
 70
     0
  9
$DIMBLK1
  1

  9
$DIMBLK2
  1

  9
$DIMSTYLE
  2
ISO-25
  9
$DIMCLRD
 70
     0
  9
$DIMCLRE
 70
     0
  9
$DIMCLRT
 70
     0
  9
$DIMTFAC
 40
1.0
  9
$DIMGAP
 40
1.524
  9
$DIMJUST
 70
     0
  9
$DIMSD1
 70
     0
  9
$DIMSD2
 70
     0
  9
$DIMTOLJ
 70
     0
  9
$DIMTZIN
 70
     1
  9
$DIMALTZ
 70
     0
  9
$DIMALTTZ
 70
     0
  9
$DIMUPT
 70
     0
  9
$DIMDEC
 70
     2
  9
$DIMTDEC
 70
     2
  9
$DIMALTU
 70
     2
  9
$DIMALTTD
 70
     3
  9
$DIMTXSTY
  7
Standard
  9
$DIMAUNIT
 70
     0
  9
$DIMADEC
 70
     2
  9
$DIMALTRND
 40
0.0
  9
$DIMAZIN
 70
     0
  9
$DIMDSEP
 70
    44
  9
$DIMATFIT
 70
     3
  9
$DIMFRAC
 70
     0
  9
$DIMLDRBLK
  1

  9
$DIMLUNIT
 70
     2
  9
$DIMLWD
 70
    -2
  9
$DIMLWE
 70
    -2
  9
$DIMTMOVE
 70
     0
  9
$LUNITS
 70
     2
  9
$LUPREC
 70
     2
  9
$SKETCHINC
 40
1.0
  9
$FILLETRAD
 40
0.0
  9
$AUNITS
 70
     0
  9
$AUPREC
 70
     2
  9
$MENU
  1
.
  9
$ELEVATION
 40
0.0
  9
$PELEVATION
 40
0.0
  9
$THICKNESS
 40
0.0
  9
$LIMCHECK
 70
     0
  9
$CHAMFERA
 40
0.0
  9
$CHAMFERB
 40
0.0
  9
$CHAMFERC
 40
0.0
  9
$CHAMFERD
 40
0.0
  9
$SKPOLY
 70
     0
  9
$TDCREATE
 40
2460455.458963449
  9
$TDUCREATE
 40
2460455.229796783
  9
$TDUPDATE
 40
2460455.45896397
  9
$TDUUPDATE
 40
2460455.229797303
  9
$TDINDWG
 40
0.0000000116
  9
$TDUSRTIMER
 40
0.0000000116
  9
$USRTIMER
 70
     1
  9
$ANGBASE
 50
0.0
  9
$ANGDIR
 70
     0
  9
$PDMODE
 70
     0
  9
$PDSIZE
 40
-1.0
  9
$PLINEWID
 40
0.0
  9
$SPLFRAME
 70
     0
  9
$SPLINETYPE
 70
     6
  9
$SPLINESEGS
 70
     8
  9
$HANDSEED
  5
158
  9
$SURFTAB1
 70
     6
  9
$SURFTAB2
 70
     6
  9
$SURFTYPE
 70
     6
  9
$SURFU
 70
     6
  9
$SURFV
 70
     6
  9
$UCSBASE
  2

  9
$UCSNAME
  2

  9
$UCSORG
 10
0.0
 20
0.0
 30
0.0
  9
$UCSXDIR
 10
1.0
 20
0.0
 30
0.0
  9
$UCSYDIR
 10
0.0
 20
1.0
 30
0.0
  9
$UCSORTHOREF
  2

  9
$UCSORTHOVIEW
 70
     0
  9
$UCSORGTOP
 10
0.0
 20
0.0
 30
0.0
  9
$UCSORGBOTTOM
 10
0.0
 20
0.0
 30
0.0
  9
$UCSORGLEFT
 10
0.0
 20
0.0
 30
0.0
  9
$UCSORGRIGHT
 10
0.0
 20
0.0
 30
0.0
  9
$UCSORGFRONT
 10
0.0
 20
0.0
 30
0.0
  9
$UCSORGBACK
 10
0.0
 20
0.0
 30
0.0
  9
$PUCSBASE
  2

  9
$PUCSNAME
  2

  9
$PUCSORG
 10
0.0
 20
0.0
 30
0.0
  9
$PUCSXDIR
 10
1.0
 20
0.0
 30
0.0
  9
$PUCSYDIR
 10
0.0
 20
1.0
 30
0.0
  9
$PUCSORTHOREF
  2

  9
$PUCSORTHOVIEW
 70
     0
  9
$PUCSORGTOP
 10
0.0
 20
0.0
 30
0.0
  9
$PUCSORGBOTTOM
 10
0.0
 20
0.0
 30
0.0
  9
$PUCSORGLEFT
 10
0.0
 20
0.0
 30
0.0
  9
$PUCSORGRIGHT
 10
0.0
 20
0.0
 30
0.0
  9
$PUCSORGFRONT
 10
0.0
 20
0.0
 30
0.0
  9
$PUCSORGBACK
 10
0.0
 20
0.0
 30
0.0
  9
$USERI1
 70
     0
  9
$USERI2
 70
     0
  9
$USERI3
 70
     0
  9
$USERI4
 70
     0
  9
$USERI5
 70
     0
  9
$USERR1
 40
0.0
  9
$USERR2
 40
0.0
  9
$USERR3
 40
0.0
  9
$USERR4
 40
0.0
  9
$USERR5
 40
0.0
  9
$WORLDVIEW
 70
     1
  9
$SHADEDGE
 70
     3
  9
$SHADEDIF
 70
    70
  9
$TILEMODE
 70
     1
  9
$MAXACTVP
 70
    64
  9
$PINSBASE
 10
0.0
 20
0.0
 30
0.0
  9
$PLIMCHECK
 70
     0
  9
$PEXTMIN
 10
1.0000000000E+20
 20
1.0000000000E+20
 30
1.0000000000E+20
  9
$PEXTMAX
 10
-1.0000000000E+20
 20
-1.0000000000E+20
 30
-1.0000000000E+20
  9
$PLIMMIN
 10
0.0
 20
0.0
  9
$PLIMMAX
 10
420.0
 20
297.0
  9
$UNITMODE
 70
     0
  9
$VISRETAIN
 70
     1
  9
$PLINEGEN
 70
     0
  9
$PSLTSCALE
 70
     1
  9
$TREEDEPTH
 70
  3020
  9
$CMLSTYLE
  2
Standard
  9
$CMLJUST
 70
     0
  9
$CMLSCALE
 40
20.0
  9
$PROXYGRAPHICS
 70
     1
  9
$MEASUREMENT
 70
     1
  9
$CELWEIGHT
370
    -1
  9
$ENDCAPS
280
     0
  9
$JOINSTYLE
280
     0
  9
$LWDISPLAY
290
     1
  9
$INSUNITS
 70
     4
  9
$HYPERLINKBASE
  1

  9
$STYLESHEET
  1

  9
$XEDIT
290
     1
  9
$CEPSNTYPE
380
     0
  9
$PSTYLEMODE
290
     1
  9
$FINGERPRINTGUID
  2
{46120d19-9bb0-4247-9473-28e0732303c5}
  9
$VERSIONGUID
  2
{FAEB1C32-E019-11D5-929B-00C0DF256EC4}
  9
$EXTNAMES
290
     1
  9
$PSVPSCALE
 40
0.0
  9
$OLESTARTUP
290
     0
  0
ENDSEC
  0
SECTION
  2
CLASSES
  0
CLASS
  1
ACDBDICTIONARYWDFLT
  2
AcDbDictionaryWithDefault
  3
ObjectDBX Classes
 90
        0
280
     0
281
     0
  0
CLASS
  1
VISUALSTYLE
  2
AcDbVisualStyle
  3
ObjectDBX Classes
 90
     4095
280
     0
281
     0
  0
CLASS
  1
MATERIAL
  2
AcDbMaterial
  3
ObjectDBX Classes
 90
     1153
280
     0
281
     0
  0
CLASS
  1
SCALE
  2
AcDbScale
  3
ObjectDBX Classes
 90
     1153
280
     0
281
     0
  0
CLASS
  1
TABLESTYLE
  2
AcDbTableStyle
  3
ObjectDBX Classes
 90
     4095
280
     0
281
     0
  0
CLASS
  1
MLEADERSTYLE
  2
AcDbMLeaderStyle
  3
ACDB_MLEADERSTYLE_CLASS
 90
     4095
280
     0
281
     0
  0
CLASS
  1
SUN
  2
AcDbSun
  3
SCENEOE
 90
     1153
280
     0
281
     0
  0
CLASS
  1
ACDBPLACEHOLDER
  2
AcDbPlaceHolder
  3
ObjectDBX Classes
 90
        0
280
     0
281
     0
  0
CLASS
  1
LAYOUT
  2
AcDbLayout
  3
ObjectDBX Classes
 90
        0
280
     0
281
     0
  0
ENDSEC
  0
SECTION
  2
TABLES
  0
TABLE
  2
VPORT
  5
8
330
0
100
AcDbSymbolTable
 70
     1
  0
VPORT
  5
29
330
8
100
AcDbSymbolTableRecord
100
AcDbViewportTableRecord
  2
*Active
 70
     0
 10
0.0
 20
0.0
 11
1.0
 21
1.0
 12
210.0
 22
148.5
 13
0.0
 23
0.0
 14
10.0
 24
10.0
 15
10.0
 25
10.0
 16
0.0
 26
0.0
 36
1.0
 17
0.0
 27
0.0
 37
0.0
 40
297.0
 41
1.4141414141
 42
50.0
 43
0.0
 44
0.0
 50
0.0
 51
0.0
 71
     0
 72
  2000
 73
     1
 74
     3
 75
     0
 76
     0
 77
     0
 78
     0
281
     0
 65
     1
110
0.0
120
0.0
130
0.0
111
1.0
121
0.0
131
0.0
112
0.0
122
1.0
132
0.0
 79
     0
146
0.0
  0
ENDTAB
  0
TABLE
  2
LTYPE
  5
5
330
0
100
AcDbSymbolTable
 70
     6
  0
LTYPE
  5
14
330
5
100
AcDbSymbolTableRecord
100
AcDbLinetypeTableRecord
  2
ByBlock
 70
     0
  3

 72
    65
 73
     0
 40
0.0
  0
LTYPE
  5
15
330
5
100
AcDbSymbolTableRecord
100
AcDbLinetypeTableRecord
  2
ByLayer
 70
     0
  3

 72
    65
 73
     0
 40
0.0
  0
LTYPE
  5
16
330
5
100
AcDbSymbolTableRecord
100
AcDbLinetypeTableRecord
  2
Continuous
 70
     0
  3
Solid line
 72
    65
 73
     0
 40
0.0
  0
LTYPE
  5
5E
330
5
100
AcDbSymbolTableRecord
100
AcDbLinetypeTableRecord
  2
HIDDEN
 70
     0
  3
Hidden __ __ __ __ __ __ __ __ __ __ __ __ __ __
 72
    65
 73
     2
 40
1.905
 49
1.27
 74
     0
 49
-0.635
 74
     0
  0
LTYPE
  5
5F
330
5
100
AcDbSymbolTableRecord
100
AcDbLinetypeTableRecord
  2
PHANTOM
 70
     0
  3
Phantom ______  __  __  ______  __  __  ______
 72
    65
 73
     6
 40
12.7
 49
6.35
 74
     0
 49
-1.27
 74
     0
 49
1.27
 74
     0
 49
-1.27
 74
     0
 49
1.27
 74
     0
 49
-1.27
 74
     0
  0
LTYPE
  5
60
330
5
100
AcDbSymbolTableRecord
100
AcDbLinetypeTableRecord
  2
CENTER
 70
     0
  3
Center ____ _ ____ _ ____ _ ____ _ ____ _ ____
 72
    65
 73
     4
 40
10.16
 49
6.35
 74
     0
 49
-1.27
 74
     0
 49
1.27
 74
     0
 49
-1.27
 74
     0
  0
LTYPE
  5
61
330
5
100
AcDbSymbolTableRecord
100
AcDbLinetypeTableRecord
  2
CENTERX2
 70
     0
  3
Center (2x) ________  __  ________  __  _____
 72
    65
 73
     4
 40
20.32
 49
12.7
 74
     0
 49
-2.54
 74
     0
 49
2.54
 74
     0
 49
-2.54
 74
     0
  0
LTYPE
  5
62
330
5
100
AcDbSymbolTableRecord
100
AcDbLinetypeTableRecord
  2
DOT2
 70
     0
  3
Dot (.5x) ........................................
 72
    65
 73
     2
 40
0.635
 49
0.0
 74
     0
 49
-0.635
 74
     0
  0
ENDTAB
  0
TABLE
  2
LAYER
  5
2
330
0
100
AcDbSymbolTable
 70
     4
  0
LAYER
  5
10
330
2
100
AcDbSymbolTableRecord
100
AcDbLayerTableRecord
  2
0
 70
     0
 62
     7
  6
Continuous
370
    -3
390
F
  0
LAYER
  5
63
330
2
100
AcDbSymbolTableRecord
100
AcDbLayerTableRecord
  2
SLD-0_0
 70
     0
 62
   179
  6
Continuous
370
    -3
390
F
  0
LAYER
  5
64
330
2
100
AcDbSymbolTableRecord
100
AcDbLayerTableRecord
  2
SLD-0
 70
     0
 62
   179
  6
Continuous
370
    -3
390
F
  0
LAYER
  5
65
330
2
100
AcDbSymbolTableRecord
100
AcDbLayerTableRecord
  2
FORMAT
 70
     0
 62
   179
  6
Continuous
370
    -3
390
F
  0
ENDTAB
  0
TABLE
  2
STYLE
  5
3
330
0
100
AcDbSymbolTable
 70
     6
  0
STYLE
  5
11
330
3
100
AcDbSymbolTableRecord
100
AcDbTextStyleTableRecord
  2
Standard
 70
     0
 40
0.0
 41
1.0
 50
0.0
 71
     0
 42
3.5
  3
txt
  4

  0
STYLE
  5
6C
330
3
100
AcDbSymbolTableRecord
100
AcDbTextStyleTableRecord
  2
SLDTEXTSTYLE0
 70
     0
 40
0.0
 41
0.75
 50
0.0
 71
     0
 42
3.5
  3
TXT
  4

  0
STYLE
  5
C4
330
3
100
AcDbSymbolTableRecord
100
AcDbTextStyleTableRecord
  2
SLDTEXTSTYLE1
 70
     0
 40
0.0
 41
0.96
 50
0.0
 71
     0
 42
3.5
  3
TXT
  4

  0
STYLE
  5
13B
330
3
100
AcDbSymbolTableRecord
100
AcDbTextStyleTableRecord
  2
SLDTEXTSTYLE2
 70
     0
 40
0.0
 41
0.640625
 50
0.0
 71
     0
 42
3.5
  3
TXT
  4

  0
STYLE
  5
141
330
3
100
AcDbSymbolTableRecord
100
AcDbTextStyleTableRecord
  2
SLDTEXTSTYLE3
 70
     0
 40
0.0
 41
0.6944444444
 50
0.0
 71
     0
 42
3.5
  3
TXT
  4

  0
STYLE
  5
154
330
3
100
AcDbSymbolTableRecord
100
AcDbTextStyleTableRecord
  2
SLDTEXTSTYLE4
 70
     0
 40
0.0
 41
0.7
 50
0.0
 71
     0
 42
3.5
  3
TXT
  4

  0
ENDTAB
  0
TABLE
  2
VIEW
  5
6
330
0
100
AcDbSymbolTable
 70
     0
  0
ENDTAB
  0
TABLE
  2
UCS
  5
7
330
0
100
AcDbSymbolTable
 70
     0
  0
ENDTAB
  0
TABLE
  2
APPID
  5
9
330
0
100
AcDbSymbolTable
 70
     1
  0
APPID
  5
12
330
9
100
AcDbSymbolTableRecord
100
AcDbRegAppTableRecord
  2
ACAD
 70
     0
  0
ENDTAB
  0
TABLE
  2
DIMSTYLE
  5
A
330
0
100
AcDbSymbolTable
 70
     4
100
AcDbDimStyleTable
  0
DIMSTYLE
105
27
330
A
100
AcDbSymbolTableRecord
100
AcDbDimStyleTableRecord
  2
ISO-25
 70
     0
 41
2.5
 42
0.625
 43
3.75
 44
1.25
 73
     0
 74
     0
 77
     1
 78
     8
140
2.5
141
2.5
143
0.0393700787
147
0.625
171
     3
172
     1
178
     0
271
     2
272
     2
274
     3
278
    44
283
     0
284
     8
340
11
  0
DIMSTYLE
105
B8
102
{ACAD_REACTORS
330
B7
330
DF
330
E9
330
101
102
}
330
A
100
AcDbSymbolTableRecord
100
AcDbDimStyleTableRecord
  2
SLDDIMSTYLE0
 70
     0
 41
3.302
 44
0.0
 45
0.000000001
 73
     0
 74
     0
 77
     1
 78
    12
 79
     3
140
3.175
147
0.79375
173
     1
178
     0
271
     2
272
     2
276
     2
284
    12
340
6C
341
B9
343
B9
344
B9
  0
DIMSTYLE
105
C9
102
{ACAD_REACTORS
330
C8
330
D5
330
F5
330
10D
330
119
102
}
330
A
100
AcDbSymbolTableRecord
100
AcDbDimStyleTableRecord
  2
SLDDIMSTYLE1
 70
     0
 41
3.302
 44
0.0
 45
0.000000001
 73
     0
 74
     0
 77
     1
 78
     4
 79
     1
140
3.175
147
0.79375
173
     1
178
     0
271
     2
272
     2
276
     2
284
    12
340
6C
341
B9
343
B9
344
B9
  0
DIMSTYLE
105
126
102
{ACAD_REACTORS
330
125
102
}
330
A
100
AcDbSymbolTableRecord
100
AcDbDimStyleTableRecord
  2
SLDDIMSTYLE2
 70
     0
 41
3.302
 44
0.0
 73
     0
 74
     0
 77
     1
 78
    12
 79
     3
140
3.175
147
0.79375
173
     1
178
     0
179
     1
272
     2
276
     2
284
    12
340
6C
341
B9
343
B9
344
B9
  0
ENDTAB
  0
TABLE
  2
BLOCK_RECORD
  5
1
330
0
100
AcDbSymbolTable
 70
    17
  0
BLOCK_RECORD
  5
1F
330
1
100
AcDbSymbolTableRecord
100
AcDbBlockTableRecord
  2
*Model_Space
340
22
  0
BLOCK_RECORD
  5
1B
330
1
100
AcDbSymbolTableRecord
100
AcDbBlockTableRecord
  2
*Paper_Space
340
1E
  0
BLOCK_RECORD
  5
23
330
1
100
AcDbSymbolTableRecord
100
AcDbBlockTableRecord
  2
*Paper_Space0
340
26
  0
BLOCK_RECORD
  5
66
330
1
100
AcDbSymbolTableRecord
100
AcDbBlockTableRecord
  2
SW_NOTE_0_2
340
0
102
{BLKREFS
331
7A
331
B4
102
}
  0
BLOCK_RECORD
  5
69
330
1
100
AcDbSymbolTableRecord
100
AcDbBlockTableRecord
  2
SW_NOTE_0
340
0
102
{BLKREFS
331
6E
331
B5
102
}
  0
BLOCK_RECORD
  5
6F
330
1
100
AcDbSymbolTableRecord
100
AcDbBlockTableRecord
  2
SW_NOTE_0_1
340
0
102
{BLKREFS
331
7B
331
B6
102
}
  0
BLOCK_RECORD
  5
72
330
1
100
AcDbSymbolTableRecord
100
AcDbBlockTableRecord
  2
SW_NOTE_0_3
340
0
102
{BLKREFS
331
76
102
}
  0
BLOCK_RECORD
  5
77
330
1
100
AcDbSymbolTableRecord
100
AcDbBlockTableRecord
  2
SW_NOTE_0_4
340
0
  0
BLOCK_RECORD
  5
B9
330
1
100
AcDbSymbolTableRecord
100
AcDbBlockTableRecord
  2
_None
340
0
  0
BLOCK_RECORD
  5
BC
330
1
100
AcDbSymbolTableRecord
100
AcDbBlockTableRecord
  2
_D
340
0
  0
BLOCK_RECORD
  5
CA
330
1
100
AcDbSymbolTableRecord
100
AcDbBlockTableRecord
  2
_D_1
340
0
  0
BLOCK_RECORD
  5
D6
330
1
100
AcDbSymbolTableRecord
100
AcDbBlockTableRecord
  2
_D_2
340
0
  0
BLOCK_RECORD
  5
E0
330
1
100
AcDbSymbolTableRecord
100
AcDbBlockTableRecord
  2
_D_3
340
0
  0
BLOCK_RECORD
  5
EA
330
1
100
AcDbSymbolTableRecord
100
AcDbBlockTableRecord
  2
_D_4
340
0
  0
BLOCK_RECORD
  5
F6
330
1
100
AcDbSymbolTableRecord
100
AcDbBlockTableRecord
  2
_D_5
340
0
  0
BLOCK_RECORD
  5
102
330
1
100
AcDbSymbolTableRecord
100
AcDbBlockTableRecord
  2
_D_6
340
0
  0
BLOCK_RECORD
  5
10E
330
1
100
AcDbSymbolTableRecord
100
AcDbBlockTableRecord
  2
_D_7
340
0
  0
BLOCK_RECORD
  5
11A
330
1
100
AcDbSymbolTableRecord
100
AcDbBlockTableRecord
  2
_D_8
340
0
  0
BLOCK_RECORD
  5
127
330
1
100
AcDbSymbolTableRecord
100
AcDbBlockTableRecord
  2
_D_9
340
0
  0
ENDTAB
  0
ENDSEC
  0
SECTION
  2
BLOCKS
  0
BLOCK
  5
20
330
1F
100
AcDbEntity
  8
0
100
AcDbBlockBegin
  2
*Model_Space
 70
     0
 10
0.0
 20
0.0
 30
0.0
  3
*Model_Space
  1

  0
ENDBLK
  5
21
330
1F
100
AcDbEntity
  8
0
100
AcDbBlockEnd
  0
BLOCK
  5
1C
330
1B
100
AcDbEntity
 67
     1
  8
0
100
AcDbBlockBegin
  2
*Paper_Space
 70
     0
 10
0.0
 20
0.0
 30
0.0
  3
*Paper_Space
  1

  0
ENDBLK
  5
1D
330
1B
100
AcDbEntity
 67
     1
  8
0
100
AcDbBlockEnd
  0
BLOCK
  5
24
330
23
100
AcDbEntity
  8
0
100
AcDbBlockBegin
  2
*Paper_Space0
 70
     0
 10
0.0
 20
0.0
 30
0.0
  3
*Paper_Space0
  1

  0
ENDBLK
  5
25
330
23
100
AcDbEntity
  8
0
100
AcDbBlockEnd
  0
BLOCK
  5
67
330
66
100
AcDbEntity
  8
0
100
AcDbBlockBegin
  2
SW_NOTE_0_2
 70
     0
 10
0.0
 20
0.0
 30
0.0
  3
SW_NOTE_0_2
  1

  0
INSERT
  5
6E
330
66
100
AcDbEntity
  8
SLD-0
 62
     7
100
AcDbBlockReference
  2
SW_NOTE_0
 10
0.0
 20
-0.1140274066
 30
0.0
  0
ENDBLK
  5
68
330
66
100
AcDbEntity
  8
0
100
AcDbBlockEnd
  0
BLOCK
  5
6A
330
69
100
AcDbEntity
  8
0
100
AcDbBlockBegin
  2
SW_NOTE_0
 70
     0
 10
0.0
 20
0.0
 30
0.0
  3
SW_NOTE_0
  1

  0
MTEXT
  5
6D
330
69
100
AcDbEntity
  8
SLD-0
 62
     0
100
AcDbMText
 10
0.0
 20
1.9645392354
 30
0.0
 40
1.524
 41
0.0
 71
     1
 72
     1
  1
TOLERANCING PER:
  7
SLDTEXTSTYLE0
 73
     1
 44
1.0
  0
ENDBLK
  5
6B
330
69
100
AcDbEntity
  8
0
100
AcDbBlockEnd
  0
BLOCK
  5
70
330
6F
100
AcDbEntity
  8
0
100
AcDbBlockBegin
  2
SW_NOTE_0_1
 70
     0
 10
0.0
 20
0.0
 30
0.0
  3
SW_NOTE_0_1
  1

  0
INSERT
  5
76
330
6F
100
AcDbEntity
  8
SLD-0
 62
     7
100
AcDbBlockReference
  2
SW_NOTE_0_3
 10
0.0
 20
-0.1140274066
 30
0.0
  0
ENDBLK
  5
71
330
6F
100
AcDbEntity
  8
0
100
AcDbBlockEnd
  0
BLOCK
  5
73
330
72
100
AcDbEntity
  8
0
100
AcDbBlockBegin
  2
SW_NOTE_0_3
 70
     0
 10
0.0
 20
0.0
 30
0.0
  3
SW_NOTE_0_3
  1

  0
MTEXT
  5
75
330
72
100
AcDbEntity
  8
SLD-0
 62
     0
100
AcDbMText
 10
0.0
 20
1.9645392354
 30
0.0
 40
1.524
 41
0.0
 71
     1
 72
     1
  1
INTERPRET GEOMETRIC
  7
SLDTEXTSTYLE0
 73
     1
 44
1.0
  0
ENDBLK
  5
74
330
72
100
AcDbEntity
  8
0
100
AcDbBlockEnd
  0
BLOCK
  5
78
330
77
100
AcDbEntity
  8
0
100
AcDbBlockBegin
  2
SW_NOTE_0_4
 70
     0
 10
0.0
 20
0.0
 30
0.0
  3
SW_NOTE_0_4
  1

  0
INSERT
  5
7A
330
77
100
AcDbEntity
  8
0
  6
Continuous
 62
     7
100
AcDbBlockReference
  2
SW_NOTE_0_2
 10
0.0
 20
-2.6380273006
 30
0.0
  0
INSERT
  5
7B
330
77
100
AcDbEntity
  8
0
  6
Continuous
 62
     7
100
AcDbBlockReference
  2
SW_NOTE_0_1
 10
0.0
 20
-0.1140274066
 30
0.0
  0
ENDBLK
  5
79
330
77
100
AcDbEntity
  8
0
100
AcDbBlockEnd
  0
BLOCK
  5
BA
330
B9
100
AcDbEntity
  8
0
100
AcDbBlockBegin
  2
_None
 70
     0
 10
0.0
 20
0.0
 30
0.0
  3
_None
  1

  0
ENDBLK
  5
BB
330
B9
100
AcDbEntity
  8
0
100
AcDbBlockEnd
  0
BLOCK
  5
BD
330
BC
100
AcDbEntity
  8
0
100
AcDbBlockBegin
  2
_D
 70
     0
 10
0.0
 20
0.0
 30
0.0
  3
_D
  1

  0
LINE
  5
BF
330
BC
100
AcDbEntity
  8
SLD-0
 62
     7
100
AcDbLine
 10
112.3776385965
 20
139.078619044
 30
0.0
 11
112.3776385965
 21
146.9616388102
 31
0.0
  0
LINE
  5
C0
330
BC
100
AcDbEntity
  8
SLD-0
 62
     7
100
AcDbLine
 10
115.8976385965
 20
139.078619044
 30
0.0
 11
115.8976385965
 21
146.9616388102
 31
0.0
  0
LINE
  5
C1
330
BC
100
AcDbEntity
  8
SLD-0
 62
     7
100
AcDbLine
 10
112.3776385965
 20
145.9616388102
 30
0.0
 11
106.0276385965
 21
145.9616388102
 31
0.0
  0
LINE
  5
C2
330
BC
100
AcDbEntity
  8
SLD-0
 62
     7
100
AcDbLine
 10
112.3776385965
 20
145.9616388102
 30
0.0
 11
115.8976385965
 21
145.9616388102
 31
0.0
  0
LINE
  5
C3
330
BC
100
AcDbEntity
  8
SLD-0
 62
     7
100
AcDbLine
 10
115.8976385965
 20
145.9616388102
 30
0.0
 11
122.2476385965
 21
145.9616388102
 31
0.0
  0
MTEXT
  5
C5
330
BC
100
AcDbEntity
  8
SLD-0
 62
     7
100
AcDbMText
 10
110.8675625682
 20
149.8164278237
 30
0.0
 40
3.175
 41
0.0
 71
     1
 72
     1
  1
3.52
  7
SLDTEXTSTYLE1
 73
     1
 44
1.0
  0
SOLID
  5
C6
330
BC
100
AcDbEntity
  8
SLD-0
 62
     7
100
AcDbTrace
 10
112.3776385965
 20
145.9616388102
 30
0.0
 11
109.0756385965
 21
146.4696388102
 31
0.0
 12
109.0756385965
 22
145.4536388102
 32
0.0
 13
109.0756385965
 23
145.4536388102
 33
0.0
  0
SOLID
  5
C7
330
BC
100
AcDbEntity
  8
SLD-0
 62
     7
100
AcDbTrace
 10
115.8976385965
 20
145.9616388102
 30
0.0
 11
119.1996385965
 21
145.4536388102
 31
0.0
 12
119.1996385965
 22
146.4696388102
 32
0.0
 13
119.1996385965
 23
146.4696388102
 33
0.0
  0
ENDBLK
  5
BE
330
BC
100
AcDbEntity
  8
0
100
AcDbBlockEnd
  0
BLOCK
  5
CB
330
CA
100
AcDbEntity
  8
0
100
AcDbBlockBegin
  2
_D_1
 70
     0
 10
0.0
 20
0.0
 30
0.0
  3
_D_1
  1

  0
LINE
  5
CD
330
CA
100
AcDbEntity
  8
SLD-0
 62
     7
100
AcDbLine
 10
111.3776385965
 20
130.578619044
 30
0.0
 11
106.8160220886
 21
130.578619044
 31
0.0
  0
LINE
  5
CE
330
CA
100
AcDbEntity
  8
SLD-0
 62
     7
100
AcDbLine
 10
111.3776385965
 20
138.078619044
 30
0.0
 11
106.8160220886
 21
138.078619044
 31
0.0
  0
LINE
  5
CF
330
CA
100
AcDbEntity
  8
SLD-0
 62
     7
100
AcDbLine
 10
107.8160220886
 20
130.578619044
 30
0.0
 11
107.8160220886
 21
124.228619044
 31
0.0
  0
LINE
  5
D0
330
CA
100
AcDbEntity
  8
SLD-0
 62
     7
100
AcDbLine
 10
107.8160220886
 20
130.578619044
 30
0.0
 11
107.8160220886
 21
138.078619044
 31
0.0
  0
LINE
  5
D1
330
CA
100
AcDbEntity
  8
SLD-0
 62
     7
100
AcDbLine
 10
107.8160220886
 20
138.078619044
 30
0.0
 11
107.8160220886
 21
144.428619044
 31
0.0
  0
MTEXT
  5
D2
330
CA
100
AcDbEntity
  8
SLD-0
 62
     7
100
AcDbMText
 10
103.9612330751
 20
128.8383550583
 30
0.0
 40
3.175
 41
0.0
 71
     1
 72
     1
  1
7.50
  7
SLDTEXTSTYLE1
 11
-3.713525943768165E-15
 21
1.0
 31
0.0
 73
     1
 44
1.0
  0
SOLID
  5
D3
330
CA
100
AcDbEntity
  8
SLD-0
 62
     7
100
AcDbTrace
 10
107.8160220886
 20
130.578619044
 30
0.0
 11
107.3080220886
 21
127.276619044
 31
0.0
 12
108.3240220886
 22
127.276619044
 32
0.0
 13
108.3240220886
 23
127.276619044
 33
0.0
  0
SOLID
  5
D4
330
CA
100
AcDbEntity
  8
SLD-0
 62
     7
100
AcDbTrace
 10
107.8160220886
 20
138.078619044
 30
0.0
 11
108.3240220886
 21
141.380619044
 31
0.0
 12
107.3080220886
 22
141.380619044
 32
0.0
 13
107.3080220886
 23
141.380619044
 33
0.0
  0
ENDBLK
  5
CC
330
CA
100
AcDbEntity
  8
0
100
AcDbBlockEnd
  0
BLOCK
  5
D7
330
D6
100
AcDbEntity
  8
0
100
AcDbBlockBegin
  2
_D_2
 70
     0
 10
0.0
 20
0.0
 30
0.0
  3
_D_2
  1

  0
LINE
  5
D9
330
D6
100
AcDbEntity
  8
SLD-0
 62
     7
100
AcDbLine
 10
155.6780385965
 20
129.578619044
 30
0.0
 11
155.6780385965
 21
123.7941933587
 31
0.0
  0
LINE
  5
DA
330
D6
100
AcDbEntity
  8
SLD-0
 62
     7
100
AcDbLine
 10
112.3776385965
 20
129.578619044
 30
0.0
 11
112.3776385965
 21
123.7941933587
 31
0.0
  0
LINE
  5
DB
330
D6
100
AcDbEntity
  8
SLD-0
 62
     7
100
AcDbLine
 10
155.6780385965
 20
124.7941933587
 30
0.0
 11
112.3776385965
 21
124.7941933587
 31
0.0
  0
MTEXT
  5
DC
330
D6
100
AcDbEntity
  8
SLD-0
 62
     7
100
AcDbMText
 10
129.902251415
 20
128.6489823722
 30
0.0
 40
3.175
 41
0.0
 71
     1
 72
     1
  1
43.30
  7
SLDTEXTSTYLE1
 73
     1
 44
1.0
  0
SOLID
  5
DD
330
D6
100
AcDbEntity
  8
SLD-0
 62
     7
100
AcDbTrace
 10
155.6780385965
 20
124.7941933587
 30
0.0
 11
152.3760385965
 21
125.3021933587
 31
0.0
 12
152.3760385965
 22
124.2861933587
 32
0.0
 13
152.3760385965
 23
124.2861933587
 33
0.0
  0
SOLID
  5
DE
330
D6
100
AcDbEntity
  8
SLD-0
 62
     7
100
AcDbTrace
 10
112.3776385965
 20
124.7941933587
 30
0.0
 11
115.6796385965
 21
124.2861933587
 31
0.0
 12
115.6796385965
 22
125.3021933587
 32
0.0
 13
115.6796385965
 23
125.3021933587
 33
0.0
  0
ENDBLK
  5
D8
330
D6
100
AcDbEntity
  8
0
100
AcDbBlockEnd
  0
BLOCK
  5
E1
330
E0
100
AcDbEntity
  8
0
100
AcDbBlockBegin
  2
_D_3
 70
     0
 10
0.0
 20
0.0
 30
0.0
  3
_D_3
  1

  0
LINE
  5
E3
330
E0
100
AcDbEntity
  8
SLD-0
 62
     7
100
AcDbLine
 10
157.1392991941
 20
135.368619044
 30
0.0
 11
157.1392991941
 21
141.253619044
 31
0.0
  0
LINE
  5
E4
330
E0
100
AcDbEntity
  8
SLD-0
 62
     7
100
AcDbLine
 10
157.1392991941
 20
138.078619044
 30
0.0
 11
140.3422689773
 21
138.078619044
 31
0.0
  0
LINE
  5
E5
330
E0
100
AcDbEntity
  8
SLD-0
 62
     7
100
AcDbLine
 10
115.8976385965
 20
138.078619044
 30
0.0
 11
129.7853941806
 21
138.078619044
 31
0.0
  0
MTEXT
  5
E6
330
E0
100
AcDbEntity
  8
SLD-0
 62
     7
100
AcDbMText
 10
129.7853941806
 20
139.1752507879
 30
0.0
 40
3.175
 41
0.0
 71
     1
 72
     1
  1
41.24
  7
SLDTEXTSTYLE1
 73
     1
 44
1.0
  0
SOLID
  5
E7
330
E0
100
AcDbEntity
  8
SLD-0
 62
     7
100
AcDbTrace
 10
157.1392991941
 20
138.078619044
 30
0.0
 11
153.8372991941
 21
138.586619044
 31
0.0
 12
153.8372991941
 22
137.570619044
 32
0.0
 13
153.8372991941
 23
137.570619044
 33
0.0
  0
SOLID
  5
E8
330
E0
100
AcDbEntity
  8
SLD-0
 62
     7
100
AcDbTrace
 10
115.8976385965
 20
138.078619044
 30
0.0
 11
119.1996385965
 21
137.570619044
 31
0.0
 12
119.1996385965
 22
138.586619044
 32
0.0
 13
119.1996385965
 23
138.586619044
 33
0.0
  0
ENDBLK
  5
E2
330
E0
100
AcDbEntity
  8
0
100
AcDbBlockEnd
  0
BLOCK
  5
EB
330
EA
100
AcDbEntity
  8
0
100
AcDbBlockBegin
  2
_D_4
 70
     0
 10
0.0
 20
0.0
 30
0.0
  3
_D_4
  1

  0
LINE
  5
ED
330
EA
100
AcDbEntity
  8
SLD-0
 62
     7
100
AcDbLine
 10
176.2644385965
 20
125.384980956
 30
0.0
 11
183.7345477623
 21
125.384980956
 31
0.0
  0
LINE
  5
EE
330
EA
100
AcDbEntity
  8
SLD-0
 62
     7
100
AcDbLine
 10
176.2644385965
 20
121.864980956
 30
0.0
 11
183.7345477623
 21
121.864980956
 31
0.0
  0
LINE
  5
EF
330
EA
100
AcDbEntity
  8
SLD-0
 62
     7
100
AcDbLine
 10
182.7345477623
 20
125.384980956
 30
0.0
 11
182.7345477623
 21
131.734980956
 31
0.0
  0
LINE
  5
F0
330
EA
100
AcDbEntity
  8
SLD-0
 62
     7
100
AcDbLine
 10
182.7345477623
 20
125.384980956
 30
0.0
 11
182.7345477623
 21
121.864980956
 31
0.0
  0
LINE
  5
F1
330
EA
100
AcDbEntity
  8
SLD-0
 62
     7
100
AcDbLine
 10
182.7345477623
 20
121.864980956
 30
0.0
 11
182.7345477623
 21
115.514980956
 31
0.0
  0
MTEXT
  5
F2
330
EA
100
AcDbEntity
  8
SLD-0
 62
     7
100
AcDbMText
 10
178.8797587488
 20
119.6159756825
 30
0.0
 40
3.175
 41
0.0
 71
     1
 72
     1
  1
3.52
  7
SLDTEXTSTYLE1
 11
-7.044195017643634E-15
 21
1.0
 31
0.0
 73
     1
 44
1.0
  0
SOLID
  5
F3
330
EA
100
AcDbEntity
  8
SLD-0
 62
     7
100
AcDbTrace
 10
182.7345477623
 20
125.384980956
 30
0.0
 11
183.2425477623
 21
128.686980956
 31
0.0
 12
182.2265477623
 22
128.686980956
 32
0.0
 13
182.2265477623
 23
128.686980956
 33
0.0
  0
SOLID
  5
F4
330
EA
100
AcDbEntity
  8
SLD-0
 62
     7
100
AcDbTrace
 10
182.7345477623
 20
121.864980956
 30
0.0
 11
182.2265477623
 21
118.562980956
 31
0.0
 12
183.2425477623
 22
118.562980956
 32
0.0
 13
183.2425477623
 23
118.562980956
 33
0.0
  0
ENDBLK
  5
EC
330
EA
100
AcDbEntity
  8
0
100
AcDbBlockEnd
  0
BLOCK
  5
F7
330
F6
100
AcDbEntity
  8
0
100
AcDbBlockBegin
  2
_D_5
 70
     0
 10
0.0
 20
0.0
 30
0.0
  3
_D_5
  1

  0
LINE
  5
F9
330
F6
100
AcDbEntity
  8
SLD-0
 62
     7
100
AcDbLine
 10
175.2644385965
 20
120.864980956
 30
0.0
 11
175.2644385965
 21
101.9219048456
 31
0.0
  0
LINE
  5
FA
330
F6
100
AcDbEntity
  8
SLD-0
 62
     7
100
AcDbLine
 10
164.3644385965
 20
120.864980956
 30
0.0
 11
164.3644385965
 21
101.9219048456
 31
0.0
  0
LINE
  5
FB
330
F6
100
AcDbEntity
  8
SLD-0
 62
     7
100
AcDbLine
 10
175.2644385965
 20
102.9219048456
 30
0.0
 11
181.6144385965
 21
102.9219048456
 31
0.0
  0
LINE
  5
FC
330
F6
100
AcDbEntity
  8
SLD-0
 62
     7
100
AcDbLine
 10
175.2644385965
 20
102.9219048456
 30
0.0
 11
164.3644385965
 21
102.9219048456
 31
0.0
  0
LINE
  5
FD
330
F6
100
AcDbEntity
  8
SLD-0
 62
     7
100
AcDbLine
 10
164.3644385965
 20
102.9219048456
 30
0.0
 11
158.0144385965
 21
102.9219048456
 31
0.0
  0
MTEXT
  5
FE
330
F6
100
AcDbEntity
  8
SLD-0
 62
     7
100
AcDbMText
 10
166.3255451962
 20
106.7766938591
 30
0.0
 40
3.175
 41
0.0
 71
     1
 72
     1
  1
10.90
  7
SLDTEXTSTYLE1
 73
     1
 44
1.0
  0
SOLID
  5
FF
330
F6
100
AcDbEntity
  8
SLD-0
 62
     7
100
AcDbTrace
 10
175.2644385965
 20
102.9219048456
 30
0.0
 11
178.5664385965
 21
102.4139048456
 31
0.0
 12
178.5664385965
 22
103.4299048456
 32
0.0
 13
178.5664385965
 23
103.4299048456
 33
0.0
  0
SOLID
  5
100
330
F6
100
AcDbEntity
  8
SLD-0
 62
     7
100
AcDbTrace
 10
164.3644385965
 20
102.9219048456
 30
0.0
 11
161.0624385965
 21
103.4299048456
 31
0.0
 12
161.0624385965
 22
102.4139048456
 32
0.0
 13
161.0624385965
 23
102.4139048456
 33
0.0
  0
ENDBLK
  5
F8
330
F6
100
AcDbEntity
  8
0
100
AcDbBlockEnd
  0
BLOCK
  5
103
330
102
100
AcDbEntity
  8
0
100
AcDbBlockBegin
  2
_D_6
 70
     0
 10
0.0
 20
0.0
 30
0.0
  3
_D_6
  1

  0
LINE
  5
105
330
102
100
AcDbEntity
  8
SLD-0
 62
     7
100
AcDbLine
 10
165.8256991941
 20
124.384980956
 30
0.0
 11
165.8256991941
 21
109.5713823282
 31
0.0
  0
LINE
  5
106
330
102
100
AcDbEntity
  8
SLD-0
 62
     7
100
AcDbLine
 10
175.2644385965
 20
120.864980956
 30
0.0
 11
175.2644385965
 21
109.5713823282
 31
0.0
  0
LINE
  5
107
330
102
100
AcDbEntity
  8
SLD-0
 62
     7
100
AcDbLine
 10
165.8256991941
 20
110.5713823282
 30
0.0
 11
159.4756991941
 21
110.5713823282
 31
0.0
  0
LINE
  5
108
330
102
100
AcDbEntity
  8
SLD-0
 62
     7
100
AcDbLine
 10
165.8256991941
 20
110.5713823282
 30
0.0
 11
175.2644385965
 21
110.5713823282
 31
0.0
  0
LINE
  5
109
330
102
100
AcDbEntity
  8
SLD-0
 62
     7
100
AcDbLine
 10
175.2644385965
 20
110.5713823282
 30
0.0
 11
181.6144385965
 21
110.5713823282
 31
0.0
  0
MTEXT
  5
10A
330
102
100
AcDbEntity
  8
SLD-0
 62
     7
100
AcDbMText
 10
166.7356493667
 20
114.4261713417
 30
0.0
 40
3.175
 41
0.0
 71
     1
 72
     1
  1
9.44
  7
SLDTEXTSTYLE1
 73
     1
 44
1.0
  0
SOLID
  5
10B
330
102
100
AcDbEntity
  8
SLD-0
 62
     7
100
AcDbTrace
 10
165.8256991941
 20
110.5713823282
 30
0.0
 11
162.5236991941
 21
111.0793823282
 31
0.0
 12
162.5236991941
 22
110.0633823282
 32
0.0
 13
162.5236991941
 23
110.0633823282
 33
0.0
  0
SOLID
  5
10C
330
102
100
AcDbEntity
  8
SLD-0
 62
     7
100
AcDbTrace
 10
175.2644385965
 20
110.5713823282
 30
0.0
 11
178.5664385965
 21
110.0633823282
 31
0.0
 12
178.5664385965
 22
111.0793823282
 32
0.0
 13
178.5664385965
 23
111.0793823282
 33
0.0
  0
ENDBLK
  5
104
330
102
100
AcDbEntity
  8
0
100
AcDbBlockEnd
  0
BLOCK
  5
10F
330
10E
100
AcDbEntity
  8
0
100
AcDbBlockBegin
  2
_D_7
 70
     0
 10
0.0
 20
0.0
 30
0.0
  3
_D_7
  1

  0
LINE
  5
111
330
10E
100
AcDbEntity
  8
SLD-0
 62
     7
100
AcDbLine
 10
157.8475120153
 20
134.8046180525
 30
0.0
 11
167.816647235
 21
144.7425906073
 31
0.0
  0
LINE
  5
112
330
10E
100
AcDbEntity
  8
SLD-0
 62
     7
100
AcDbLine
 10
166.5339120153
 20
126.0909799644
 30
0.0
 11
176.503047235
 21
136.0289525193
 31
0.0
  0
LINE
  5
113
330
10E
100
AcDbEntity
  8
SLD-0
 62
     7
100
AcDbLine
 10
167.1084344138
 20
144.0365915989
 30
0.0
 11
162.6253407103
 21
148.5337430135
 31
0.0
  0
LINE
  5
114
330
10E
100
AcDbEntity
  8
SLD-0
 62
     7
100
AcDbLine
 10
167.1084344138
 20
144.0365915989
 30
0.0
 11
175.7948344138
 21
135.3229535108
 31
0.0
  0
LINE
  5
115
330
10E
100
AcDbEntity
  8
SLD-0
 62
     7
100
AcDbLine
 10
175.7948344138
 20
135.3229535108
 30
0.0
 11
180.2779281173
 21
130.8258020963
 31
0.0
  0
MTEXT
  5
116
330
10E
100
AcDbEntity
  8
SLD-0
 62
     7
100
AcDbMText
 10
170.2439417002
 20
146.3513010146
 30
0.0
 40
3.175
 41
0.0
 71
     1
 72
     1
  1
12.30
  7
SLDTEXTSTYLE1
 11
0.7059990084283682
 21
-0.708212821190185
 31
0.0
 73
     1
 44
1.0
  0
SOLID
  5
117
330
10E
100
AcDbEntity
  8
SLD-0
 62
     7
100
AcDbTrace
 10
167.1084344138
 20
144.0365915989
 30
0.0
 11
165.1369978011
 21
146.7337578308
 31
0.0
 12
164.4174535748
 22
146.0164628382
 32
0.0
 13
164.4174535748
 23
146.0164628382
 33
0.0
  0
SOLID
  5
118
330
10E
100
AcDbEntity
  8
SLD-0
 62
     7
100
AcDbTrace
 10
175.7948344138
 20
135.3229535108
 30
0.0
 11
177.7662710265
 21
132.625787279
 31
0.0
 12
178.4858152528
 22
133.3430822715
 32
0.0
 13
178.4858152528
 23
133.3430822715
 33
0.0
  0
ENDBLK
  5
110
330
10E
100
AcDbEntity
  8
0
100
AcDbBlockEnd
  0
BLOCK
  5
11B
330
11A
100
AcDbEntity
  8
0
100
AcDbBlockBegin
  2
_D_8
 70
     0
 10
0.0
 20
0.0
 30
0.0
  3
_D_8
  1

  0
LINE
  5
11D
330
11A
100
AcDbEntity
  8
SLD-0
 62
     7
100
AcDbLine
 10
163.6562257753
 20
121.1589819475
 30
0.0
 11
151.9576640961
 21
109.4969889725
 31
0.0
  0
LINE
  5
11E
330
11A
100
AcDbEntity
  8
SLD-0
 62
     7
100
AcDbLine
 10
154.9698257753
 20
129.8726200356
 30
0.0
 11
143.2712640961
 21
118.2106270605
 31
0.0
  0
LINE
  5
11F
330
11A
100
AcDbEntity
  8
SLD-0
 62
     7
100
AcDbLine
 10
152.6658769173
 20
110.2029879809
 30
0.0
 11
157.1489706208
 21
105.7058365663
 31
0.0
  0
LINE
  5
120
330
11A
100
AcDbEntity
  8
SLD-0
 62
     7
100
AcDbLine
 10
152.6658769173
 20
110.2029879809
 30
0.0
 11
143.9794769173
 21
118.916626069
 31
0.0
  0
LINE
  5
121
330
11A
100
AcDbEntity
  8
SLD-0
 62
     7
100
AcDbLine
 10
143.9794769173
 20
118.916626069
 30
0.0
 11
139.4963832137
 21
123.4137774835
 31
0.0
  0
MTEXT
  5
122
330
11A
100
AcDbEntity
  8
SLD-0
 62
     7
100
AcDbMText
 10
148.1893576117
 20
120.1535931462
 30
0.0
 40
3.175
 41
0.0
 71
     1
 72
     1
  1
12.30
  7
SLDTEXTSTYLE1
 11
0.7059990084283528
 21
-0.7082128211902002
 31
0.0
 73
     1
 44
1.0
  0
SOLID
  5
123
330
11A
100
AcDbEntity
  8
SLD-0
 62
     7
100
AcDbTrace
 10
152.6658769173
 20
110.2029879809
 30
0.0
 11
154.6373135299
 21
107.505821749
 31
0.0
 12
155.3568577563
 22
108.2231167416
 32
0.0
 13
155.3568577563
 23
108.2231167416
 33
0.0
  0
SOLID
  5
124
330
11A
100
AcDbEntity
  8
SLD-0
 62
     7
100
AcDbTrace
 10
143.9794769173
 20
118.916626069
 30
0.0
 11
142.0080403046
 21
121.6137923008
 31
0.0
 12
141.2884960783
 22
120.8964973083
 32
0.0
 13
141.2884960783
 23
120.8964973083
 33
0.0
  0
ENDBLK
  5
11C
330
11A
100
AcDbEntity
  8
0
100
AcDbBlockEnd
  0
BLOCK
  5
128
330
127
100
AcDbEntity
  8
0
100
AcDbBlockBegin
  2
_D_9
 70
     0
 10
0.0
 20
0.0
 30
0.0
  3
_D_9
  1

  0
ARC
  5
12A
330
127
100
AcDbEntity
  8
SLD-0
 62
     7
100
AcDbCircle
 10
157.1392991941
 20
134.098619044
 30
0.0
 40
40.45406494091569
100
AcDbArc
 50
314.9103090346
 51
336.6280097889
  0
ARC
  5
12B
330
127
100
AcDbEntity
  8
SLD-0
 62
     7
100
AcDbCircle
 10
157.1392991941
 20
134.098619044
 30
0.0
 40
40.45406494091564
100
AcDbArc
 50
344.2103927024
 51
0.0
  0
LINE
  5
12C
330
127
100
AcDbEntity
  8
SLD-0
 62
     7
100
AcDbLine
 10
166.7223179348
 20
124.485550673
 30
0.0
 11
187.9413757811
 21
103.1999558763
 31
0.0
  0
LINE
  5
12D
330
127
100
AcDbEntity
  8
SLD-0
 62
     7
100
AcDbLine
 10
158.4092991941
 20
134.098619044
 30
0.0
 11
200.768364135
 21
134.098619044
 31
0.0
  0
MTEXT
  5
12E
330
127
100
AcDbEntity
  8
SLD-0
 62
     7
100
AcDbMText
 10
189.1393344486
 20
121.6673124456
 30
0.0
 40
3.175
 41
0.0
 71
     1
 72
     1
  1
45.09°
  7
SLDTEXTSTYLE1
 73
     1
 44
1.0
  0
SOLID
  5
12F
330
127
100
AcDbEntity
  8
SLD-0
 62
     7
100
AcDbTrace
 10
185.6998289293
 20
105.4485315836
 30
0.0
 11
188.3145016349
 21
107.5281360274
 31
0.0
 12
187.5685084978
 22
108.2178825311
 32
0.0
 13
187.5685084978
 23
108.2178825311
 33
0.0
  0
SOLID
  5
130
330
127
100
AcDbEntity
  8
SLD-0
 62
     7
100
AcDbTrace
 10
197.593364135
 20
134.098619044
 30
0.0
 11
196.95136021
 21
130.820037192
 31
0.0
 12
197.9665179424
 22
130.7786756355
 32
0.0
 13
197.9665179424
 23
130.7786756355
 33
0.0
  0
ENDBLK
  5
129
330
127
100
AcDbEntity
  8
0
100
AcDbBlockEnd
  0
ENDSEC
  0
SECTION
  2
ENTITIES
  0
LINE
  5
7C
330
1F
100
AcDbEntity
  8
SLD-0
  6
Continuous
 62
     7
370
    18
100
AcDbLine
 10
118.5737310706
 20
12.7
 30
0.0
 11
118.5737310706
 21
62.5944383331
 31
0.0
  0
LINE
  5
7D
330
1F
100
AcDbEntity
  8
SLD-0
  6
Continuous
 62
     7
370
    18
100
AcDbLine
 10
68.3541319701
 20
62.5944383331
 30
0.0
 11
266.7
 21
62.5944383331
 31
0.0
  0
LINE
  5
7E
330
1F
100
AcDbEntity
  8
SLD-0
  6
Continuous
 62
     7
370
    18
100
AcDbLine
 10
153.5481386263
 20
62.5944383331
 30
0.0
 11
153.5481386263
 21
12.7
 31
0.0
  0
LINE
  5
7F
330
1F
100
AcDbEntity
  8
SLD-0
  6
Continuous
 62
     7
370
    18
100
AcDbLine
 10
196.628512112
 20
62.5944383331
 30
0.0
 11
196.628512112
 21
12.7
 31
0.0
  0
LINE
  5
80
330
1F
100
AcDbEntity
  8
SLD-0
  6
Continuous
 62
     7
370
    18
100
AcDbLine
 10
196.628512112
 20
18.1073003199
 30
0.0
 11
266.7
 21
18.1073003199
 31
0.0
  0
LINE
  5
81
330
1F
100
AcDbEntity
  8
SLD-0
  6
Continuous
 62
     7
370
    18
100
AcDbLine
 10
196.628512112
 20
30.9845221033
 30
0.0
 11
266.7
 21
30.9845221033
 31
0.0
  0
LINE
  5
82
330
1F
100
AcDbEntity
  8
SLD-0
  6
Continuous
 62
     7
370
    18
100
AcDbLine
 10
196.628512112
 20
53.268808883
 30
0.0
 11
266.7
 21
53.268808883
 31
0.0
  0
LINE
  5
83
330
1F
100
AcDbEntity
  8
SLD-0
  6
Continuous
 62
     7
370
    18
100
AcDbLine
 10
206.6753486998
 20
30.9845221033
 30
0.0
 11
206.6753486998
 21
18.1073003199
 31
0.0
  0
LINE
  5
84
330
1F
100
AcDbEntity
  8
SLD-0
  6
Continuous
 62
     7
370
    18
100
AcDbLine
 10
217.5361795467
 20
18.1073003199
 30
0.0
 11
217.5361795467
 21
12.7
 31
0.0
  0
LINE
  5
85
330
1F
100
AcDbEntity
  8
SLD-0
  6
Continuous
 62
     7
370
    18
100
AcDbLine
 10
252.1728434947
 20
30.9845221033
 30
0.0
 11
252.1728434947
 21
18.1073003199
 31
0.0
  0
LINE
  5
86
330
1F
100
AcDbEntity
  8
SLD-0
  6
Continuous
 62
     7
370
    18
100
AcDbLine
 10
242.2227480427
 20
18.1073003199
 30
0.0
 11
242.2227480427
 21
12.7
 31
0.0
  0
LINE
  5
87
330
1F
100
AcDbEntity
  8
SLD-0
  6
Continuous
 62
     7
370
    18
100
AcDbLine
 10
68.3541319701
 20
17.68538066
 30
0.0
 11
153.5481386263
 21
17.68538066
 31
0.0
  0
LINE
  5
88
330
1F
100
AcDbEntity
  8
SLD-0
  6
Continuous
 62
     7
370
    18
100
AcDbLine
 10
153.5481386263
 20
48.3069383331
 30
0.0
 11
196.628512112
 21
48.3069383331
 31
0.0
  0
LINE
  5
89
330
1F
100
AcDbEntity
  8
SLD-0
  6
Continuous
 62
     7
370
    18
100
AcDbLine
 10
153.5481386263
 20
53.0694383331
 30
0.0
 11
196.628512112
 21
53.0694383331
 31
0.0
  0
LINE
  5
8A
330
1F
100
AcDbEntity
  8
SLD-0
  6
Continuous
 62
     7
370
    18
100
AcDbLine
 10
153.5481386263
 20
57.8319383331
 30
0.0
 11
196.628512112
 21
57.8319383331
 31
0.0
  0
LINE
  5
8B
330
1F
100
AcDbEntity
  8
SLD-0
  6
Continuous
 62
     7
370
    18
100
AcDbLine
 10
196.628512112
 20
34.0194383331
 30
0.0
 11
153.6625895844
 21
34.0194383331
 31
0.0
  0
LINE
  5
8C
330
1F
100
AcDbEntity
  8
SLD-0
  6
Continuous
 62
     7
370
    18
100
AcDbLine
 10
184.4606683857
 20
62.5944383331
 30
0.0
 11
184.4606683857
 21
34.0194383331
 31
0.0
  0
LINE
  5
8D
330
1F
100
AcDbEntity
  8
SLD-0
  6
Continuous
 62
     7
370
    18
100
AcDbLine
 10
172.5600773885
 20
62.5944383331
 30
0.0
 11
172.5600773885
 21
34.0194383331
 31
0.0
  0
LINE
  5
8E
330
1F
100
AcDbEntity
  8
SLD-0
  6
Continuous
 62
     7
370
    18
100
AcDbLine
 10
118.5737310706
 20
24.4785733387
 30
0.0
 11
153.5481386263
 21
24.4785733387
 31
0.0
  0
LINE
  5
8F
330
1F
100
AcDbEntity
  8
SLD-0
  6
Continuous
 62
     7
370
    18
100
AcDbLine
 10
118.5737310706
 20
31.3365733387
 30
0.0
 11
153.6625895844
 21
31.3365733387
 31
0.0
  0
LINE
  5
90
330
1F
100
AcDbEntity
  8
SLD-0
  6
Continuous
 62
     7
370
    18
100
AcDbLine
 10
68.3541319701
 20
12.7
 30
0.0
 11
68.3541319701
 21
62.5944383331
 31
0.0
  0
LINE
  5
91
330
1F
100
AcDbEntity
  8
SLD-0
  6
Continuous
 62
     7
370
    18
100
AcDbLine
 10
68.3541319701
 20
30.8444383331
 30
0.0
 11
118.5737310706
 21
30.8444383331
 31
0.0
  0
LINE
  5
92
330
1F
100
AcDbEntity
  8
SLD-0
  6
Continuous
 62
     7
370
    18
100
AcDbLine
 10
68.3541319701
 20
37.1944383331
 30
0.0
 11
118.5737310706
 21
37.1944383331
 31
0.0
  0
LINE
  5
93
330
1F
100
AcDbEntity
  8
SLD-0
  6
Continuous
 62
     7
370
    18
100
AcDbLine
 10
68.3541319701
 20
43.5444383331
 30
0.0
 11
118.5737310706
 21
43.5444383331
 31
0.0
  0
LINE
  5
94
330
1F
100
AcDbEntity
  8
SLD-0
  6
Continuous
 62
     7
370
    18
100
AcDbLine
 10
68.3541319701
 20
49.8944383331
 30
0.0
 11
118.5737310706
 21
49.8944383331
 31
0.0
  0
LINE
  5
95
330
1F
100
AcDbEntity
  8
SLD-0
  6
Continuous
 62
     7
370
    18
100
AcDbLine
 10
93.7028272634
 20
62.5944383331
 30
0.0
 11
93.7028272634
 21
17.68538066
 31
0.0
  0
LINE
  5
96
330
1F
100
AcDbEntity
  8
SLD-0
  6
Continuous
 62
     7
370
    18
100
AcDbLine
 10
153.5481386263
 20
58.6742077444
 30
0.0
 11
118.5737310706
 21
58.6742077444
 31
0.0
  0
LINE
  5
97
330
1F
100
AcDbEntity
  8
SLD-0
  6
Continuous
 62
     7
370
    18
100
AcDbLine
 10
196.628512112
 20
43.5444383331
 30
0.0
 11
153.5481386263
 21
43.5444383331
 31
0.0
  0
LINE
  5
98
330
1F
100
AcDbEntity
  8
SLD-0
  6
Continuous
 62
     7
370
    18
100
AcDbLine
 10
196.628512112
 20
38.7819383331
 30
0.0
 11
153.5481386263
 21
38.7819383331
 31
0.0
  0
LINE
  5
99
330
1F
100
AcDbEntity
  8
SLD-0
  6
Continuous
 62
     7
370
    18
100
AcDbLine
 10
68.3541319701
 20
56.2444383331
 30
0.0
 11
118.5737310706
 21
56.2444383331
 31
0.0
  0
LINE
  5
9A
330
1F
100
AcDbEntity
  8
SLD-0
  6
Continuous
 62
     7
370
    18
100
AcDbLine
 10
118.5737310706
 20
38.1945733387
 30
0.0
 11
153.6625895844
 21
38.1945733387
 31
0.0
  0
LINE
  5
9B
330
1F
100
AcDbEntity
  8
SLD-0
  6
Continuous
 62
     7
370
    18
100
AcDbLine
 10
68.3541319701
 20
24.4944383331
 30
0.0
 11
118.5737310706
 21
24.4944383331
 31
0.0
  0
LINE
  5
9C
330
1F
100
AcDbEntity
  8
SLD-0
  6
Continuous
 62
     7
370
    18
100
AcDbLine
 10
26.7690166746
 20
12.7
 30
0.0
 11
26.7690166746
 21
35.9244383331
 31
0.0
  0
LINE
  5
9D
330
1F
100
AcDbEntity
  8
SLD-0
  6
Continuous
 62
     7
370
    18
100
AcDbLine
 10
68.3541319701
 20
35.9244383331
 30
0.0
 11
26.7690166746
 21
35.9244383331
 31
0.0
  0
LINE
  5
9E
330
1F
100
AcDbEntity
  8
SLD-0
  6
Continuous
 62
     7
370
    50
100
AcDbLine
 10
12.7
 20
12.7
 30
0.0
 11
12.7
 21
203.2
 31
0.0
  0
LINE
  5
9F
330
1F
100
AcDbEntity
  8
SLD-0
  6
Continuous
 62
     7
370
    50
100
AcDbLine
 10
12.7
 20
203.2
 30
0.0
 11
266.7
 21
203.2
 31
0.0
  0
LINE
  5
A0
330
1F
100
AcDbEntity
  8
SLD-0
  6
Continuous
 62
     7
370
    50
100
AcDbLine
 10
266.7
 20
203.2
 30
0.0
 11
266.7
 21
12.7
 31
0.0
  0
LINE
  5
A1
330
1F
100
AcDbEntity
  8
SLD-0
  6
Continuous
 62
     7
370
    50
100
AcDbLine
 10
266.7
 20
12.7
 30
0.0
 11
12.7
 21
12.7
 31
0.0
  0
LINE
  5
A2
330
1F
100
AcDbEntity
  8
SLD-0
  6
Continuous
 62
     7
370
    25
100
AcDbLine
 10
3.175
 20
107.95
 30
0.0
 11
12.7
 21
107.95
 31
0.0
  0
LINE
  5
A3
330
1F
100
AcDbEntity
  8
SLD-0
  6
Continuous
 62
     7
370
    25
100
AcDbLine
 10
139.7
 20
212.725
 30
0.0
 11
139.7
 21
203.2
 31
0.0
  0
LINE
  5
A4
330
1F
100
AcDbEntity
  8
SLD-0
  6
Continuous
 62
     7
370
    25
100
AcDbLine
 10
276.225
 20
107.95
 30
0.0
 11
266.7
 21
107.95
 31
0.0
  0
LINE
  5
A5
330
1F
100
AcDbEntity
  8
SLD-0
  6
Continuous
 62
     7
370
    25
100
AcDbLine
 10
139.7
 20
3.175
 30
0.0
 11
139.7
 21
12.7
 31
0.0
  0
LINE
  5
A6
330
1F
100
AcDbEntity
  8
SLD-0
  6
Continuous
 62
     7
370
    25
100
AcDbLine
 10
12.7
 20
107.95
 30
0.0
 11
3.175
 21
107.95
 31
0.0
  0
LINE
  5
A7
330
1F
100
AcDbEntity
  8
SLD-0
  6
Continuous
 62
     7
370
    25
100
AcDbLine
 10
266.7
 20
107.95
 30
0.0
 11
276.225
 21
107.95
 31
0.0
  0
LINE
  5
A8
330
1F
100
AcDbEntity
  8
SLD-0
  6
Continuous
 62
     7
370
    25
100
AcDbLine
 10
139.7
 20
203.2
 30
0.0
 11
139.7
 21
212.725
 31
0.0
  0
LINE
  5
A9
330
1F
100
AcDbEntity
  8
SLD-0
  6
Continuous
 62
     7
370
    25
100
AcDbLine
 10
139.7
 20
12.7
 30
0.0
 11
139.7
 21
3.175
 31
0.0
  0
LINE
  5
AA
330
1F
100
AcDbEntity
  8
SLD-0
  6
Continuous
 62
     7
370
    25
100
AcDbLine
 10
115.8976385965
 20
134.098619044
 30
0.0
 11
115.8976385965
 21
138.078619044
 31
0.0
  0
LINE
  5
AB
330
1F
100
AcDbEntity
  8
SLD-0
  6
Continuous
 62
     7
370
    25
100
AcDbLine
 10
157.1392991941
 20
134.098619044
 30
0.0
 11
115.8976385965
 21
134.098619044
 31
0.0
  0
LINE
  5
AC
330
1F
100
AcDbEntity
  8
SLD-0
  6
Continuous
 62
     7
370
    25
100
AcDbLine
 10
165.8256991941
 20
125.384980956
 30
0.0
 11
157.1392991941
 21
134.098619044
 31
0.0
  0
LINE
  5
AD
330
1F
100
AcDbEntity
  8
SLD-0
  6
Continuous
 62
     7
370
    25
100
AcDbLine
 10
175.2644385965
 20
125.384980956
 30
0.0
 11
165.8256991941
 21
125.384980956
 31
0.0
  0
LINE
  5
AE
330
1F
100
AcDbEntity
  8
SLD-0
  6
Continuous
 62
     7
370
    25
100
AcDbLine
 10
175.2644385965
 20
121.864980956
 30
0.0
 11
175.2644385965
 21
125.384980956
 31
0.0
  0
LINE
  5
AF
330
1F
100
AcDbEntity
  8
SLD-0
  6
Continuous
 62
     7
370
    25
100
AcDbLine
 10
164.3644385965
 20
121.864980956
 30
0.0
 11
175.2644385965
 21
121.864980956
 31
0.0
  0
LINE
  5
B0
330
1F
100
AcDbEntity
  8
SLD-0
  6
Continuous
 62
     7
370
    25
100
AcDbLine
 10
155.6780385965
 20
130.578619044
 30
0.0
 11
164.3644385965
 21
121.864980956
 31
0.0
  0
LINE
  5
B1
330
1F
100
AcDbEntity
  8
SLD-0
  6
Continuous
 62
     7
370
    25
100
AcDbLine
 10
112.3776385965
 20
130.578619044
 30
0.0
 11
155.6780385965
 21
130.578619044
 31
0.0
  0
LINE
  5
B2
330
1F
100
AcDbEntity
  8
SLD-0
  6
Continuous
 62
     7
370
    25
100
AcDbLine
 10
112.3776385965
 20
138.078619044
 30
0.0
 11
112.3776385965
 21
130.578619044
 31
0.0
  0
LINE
  5
B3
330
1F
100
AcDbEntity
  8
SLD-0
  6
Continuous
 62
     7
370
    25
100
AcDbLine
 10
115.8976385965
 20
138.078619044
 30
0.0
 11
112.3776385965
 21
138.078619044
 31
0.0
  0
INSERT
  5
B4
330
1F
100
AcDbEntity
  8
0
  6
Continuous
 62
     7
100
AcDbBlockReference
  2
SW_NOTE_0_2
 10
27.7544252483
 20
28.9376134837
 30
0.0
  0
INSERT
  5
B5
330
1F
100
AcDbEntity
  8
0
  6
Continuous
 62
     7
100
AcDbBlockReference
  2
SW_NOTE_0
 10
119.2089478467
 20
34.8635605478
 30
0.0
  0
INSERT
  5
B6
330
1F
100
AcDbEntity
  8
0
  6
Continuous
 62
     7
100
AcDbBlockReference
  2
SW_NOTE_0_1
 10
119.5173361573
 20
53.6662300215
 30
0.0
  0
DIMENSION
  5
B7
330
1F
100
AcDbEntity
  8
SLD-0
 62
     7
100
AcDbDimension
  2
_D
 10
112.3776385965
 20
145.9616388102
 30
0.0
 11
114.9972675875
 21
145.9616388102
 31
0.0
 70
   160
  1
<>
 71
     2
 42
-1.0
  3
SLDDIMSTYLE0
100
AcDbAlignedDimension
 13
115.8976385965
 23
138.078619044
 33
0.0
 14
112.3776385965
 24
138.078619044
 34
0.0
100
AcDbRotatedDimension
  0
DIMENSION
  5
C8
330
1F
100
AcDbEntity
  8
SLD-0
 62
     7
100
AcDbDimension
  2
_D_1
 10
107.8160220886
 20
130.578619044
 30
0.0
 11
107.8160220886
 21
132.7608030861
 31
0.0
 70
   160
  1
<>
 71
     2
 42
-1.0
  3
SLDDIMSTYLE1
100
AcDbAlignedDimension
 13
112.3776385965
 23
138.078619044
 33
0.0
 14
112.3776385965
 24
130.578619044
 34
0.0
 50
90.0
100
AcDbRotatedDimension
  0
DIMENSION
  5
D5
330
1F
100
AcDbEntity
  8
SLD-0
 62
     7
100
AcDbDimension
  2
_D_2
 10
155.6780385965
 20
124.7941933587
 30
0.0
 11
135.0638315789
 21
124.7941933587
 31
0.0
 70
   160
  1
<>
 71
     2
 42
-1.0
  3
SLDDIMSTYLE1
100
AcDbAlignedDimension
 13
112.3776385965
 23
130.578619044
 33
0.0
 14
155.6780385965
 24
130.578619044
 34
0.0
100
AcDbRotatedDimension
  0
DIMENSION
  5
DF
330
1F
100
AcDbEntity
  8
SLD-0
 62
     7
100
AcDbDimension
  2
_D_3
 10
115.8976385965
 20
138.078619044
 30
0.0
 11
135.0638315789
 21
138.078619044
 31
0.0
 70
   160
  1
<>
 71
     2
 42
-1.0
  3
SLDDIMSTYLE0
100
AcDbAlignedDimension
 13
157.1392991941
 23
134.098619044
 33
0.0
 14
115.8976385965
 24
138.078619044
 34
0.0
100
AcDbRotatedDimension
  0
DIMENSION
  5
E9
330
1F
100
AcDbEntity
  8
SLD-0
 62
     7
100
AcDbDimension
  2
_D_4
 10
182.7345477623
 20
125.384980956
 30
0.0
 11
182.7345477623
 21
123.7456807018
 31
0.0
 70
   160
  1
<>
 71
     2
 42
-1.0
  3
SLDDIMSTYLE0
100
AcDbAlignedDimension
 13
175.2644385965
 23
121.864980956
 33
0.0
 14
175.2644385965
 24
125.384980956
 34
0.0
 50
90.0
100
AcDbRotatedDimension
  0
DIMENSION
  5
F5
330
1F
100
AcDbEntity
  8
SLD-0
 62
     7
100
AcDbDimension
  2
_D_5
 10
175.2644385965
 20
102.9219048456
 30
0.0
 11
170.865354386
 21
102.9219048456
 31
0.0
 70
   160
  1
<>
 71
     2
 42
-1.0
  3
SLDDIMSTYLE1
100
AcDbAlignedDimension
 13
164.3644385965
 23
121.864980956
 33
0.0
 14
175.2644385965
 24
121.864980956
 34
0.0
100
AcDbRotatedDimension
  0
DIMENSION
  5
101
330
1F
100
AcDbEntity
  8
SLD-0
 62
     7
100
AcDbDimension
  2
_D_6
 10
165.8256991941
 20
110.5713823282
 30
0.0
 11
170.865354386
 21
110.5713823282
 31
0.0
 70
   160
  1
<>
 71
     2
 42
-1.0
  3
SLDDIMSTYLE0
100
AcDbAlignedDimension
 13
175.2644385965
 23
121.864980956
 33
0.0
 14
165.8256991941
 24
125.384980956
 34
0.0
100
AcDbRotatedDimension
  0
DIMENSION
  5
10D
330
1F
100
AcDbEntity
  8
SLD-0
 62
     7
100
AcDbDimension
  2
_D_7
 10
167.1084344138
 20
144.0365915989
 30
0.0
 11
170.865354386
 21
140.2678909907
 31
0.0
 70
   160
  1
<>
 71
     2
 42
-1.0
  3
SLDDIMSTYLE1
100
AcDbAlignedDimension
 13
165.8256991941
 23
125.384980956
 33
0.0
 14
157.1392991941
 24
134.098619044
 34
0.0
 50
-45.0896909654
100
AcDbRotatedDimension
  0
DIMENSION
  5
119
330
1F
100
AcDbEntity
  8
SLD-0
 62
     7
100
AcDbDimension
  2
_D_8
 10
152.6658769173
 20
110.2029879809
 30
0.0
 11
148.8107702975
 21
114.0701831222
 31
0.0
 70
   160
  1
<>
 71
     2
 42
-1.0
  3
SLDDIMSTYLE1
100
AcDbAlignedDimension
 13
155.6780385965
 23
130.578619044
 33
0.0
 14
164.3644385965
 24
121.864980956
 34
0.0
 50
-45.0896909654
100
AcDbRotatedDimension
  0
DIMENSION
  5
125
330
1F
100
AcDbEntity
  8
SLD-0
 62
     7
100
AcDbDimension
  2
_D_9
 10
157.1392991941
 20
134.098619044
 30
0.0
 11
195.2644385965
 21
120.5706807018
 31
0.0
 70
   162
  1
<>
 71
     1
 42
-1.0
  3
SLDDIMSTYLE2
100
AcDb2LineAngularDimension
 13
165.8256991941
 23
125.384980956
 33
0.0
 14
157.1392991941
 24
134.098619044
 34
0.0
 15
115.8976385965
 25
134.098619044
 35
0.0
 16
190.5858261317
 26
111.3420550228
 36
0.0
  0
MTEXT
  5
131
330
1F
100
AcDbEntity
  8
SLD-0
 62
     7
100
AcDbMText
 10
6.4608166096
 20
57.0150793362
 30
0.0
 40
6.096
 41
0.0
 71
     2
 72
     1
  1
A
  7
SLDTEXTSTYLE0
 73
     1
 44
1.0
  0
MTEXT
  5
132
330
1F
100
AcDbEntity
  8
SLD-0
 62
     7
100
AcDbMText
 10
272.4608166096
 20
57.0150793362
 30
0.0
 40
6.096
 41
0.0
 71
     2
 72
     1
  1
A
  7
SLDTEXTSTYLE0
 73
     1
 44
1.0
  0
MTEXT
  5
133
330
1F
100
AcDbEntity
  8
SLD-0
 62
     7
100
AcDbMText
 10
6.6576664962
 20
164.9650793362
 30
0.0
 40
6.096
 41
0.0
 71
     2
 72
     1
  1
B
  7
SLDTEXTSTYLE0
 73
     1
 44
1.0
  0
MTEXT
  5
134
330
1F
100
AcDbEntity
  8
SLD-0
 62
     7
100
AcDbMText
 10
272.6576664962
 20
164.9650793362
 30
0.0
 40
6.096
 41
0.0
 71
     2
 72
     1
  1
B
  7
SLDTEXTSTYLE0
 73
     1
 44
1.0
  0
MTEXT
  5
135
330
1F
100
AcDbEntity
  8
SLD-0
 62
     7
100
AcDbMText
 10
69.7928499376
 20
8.6815998041
 30
0.0
 40
6.096
 41
0.0
 71
     2
 72
     1
  1
2
  7
SLDTEXTSTYLE0
 73
     1
 44
1.0
  0
MTEXT
  5
136
330
1F
100
AcDbEntity
  8
SLD-0
 62
     7
100
AcDbMText
 10
69.7928499376
 20
212.2400793362
 30
0.0
 40
6.096
 41
0.0
 71
     2
 72
     1
  1
2
  7
SLDTEXTSTYLE0
 73
     1
 44
1.0
  0
MTEXT
  5
137
330
1F
100
AcDbEntity
  8
SLD-0
 62
     7
100
AcDbMText
 10
209.4474739866
 20
8.6815998041
 30
0.0
 40
6.096
 41
0.0
 71
     2
 72
     1
  1
1
  7
SLDTEXTSTYLE0
 73
     1
 44
1.0
  0
MTEXT
  5
138
330
1F
100
AcDbEntity
  8
SLD-0
 62
     7
100
AcDbMText
 10
209.4474739866
 20
212.2400793362
 30
0.0
 40
6.096
 41
0.0
 71
     2
 72
     1
  1
1
  7
SLDTEXTSTYLE0
 73
     1
 44
1.0
  0
MTEXT
  5
139
330
1F
100
AcDbEntity
  8
SLD-0
 62
     7
100
AcDbMText
 10
136.041447728
 20
15.6570533365
 30
0.0
 40
1.5875
 41
0.0
 71
     2
 72
     1
  1
DO NOT SCALE DRAWING
  7
SLDTEXTSTYLE0
 73
     1
 44
1.0
  0
MTEXT
  5
13A
330
1F
100
AcDbEntity
  8
SLD-0
 62
     7
100
AcDbMText
 10
229.7361364233
 20
25.9226914594
 30
0.0
 40
6.35
 41
0.0
 71
     2
 72
     1
  1
Part3
  7
SLDTEXTSTYLE0
 73
     1
 44
1.0
  0
MTEXT
  5
13C
330
1F
100
AcDbEntity
  8
SLD-0
 62
     7
100
AcDbMText
 10
244.5309015475
 20
16.392818442
 30
0.0
 40
2.54
 41
0.0
 71
     1
 72
     1
  1
SHEET 1 OF 1
  7
SLDTEXTSTYLE2
 73
     1
 44
1.0
  0
MTEXT
  5
13D
330
1F
100
AcDbEntity
  8
SLD-0
 62
     7
100
AcDbMText
 10
119.7579719589
 20
61.2329808762
 30
0.0
 40
1.778
 41
0.0
 71
     1
 72
     1
  1
UNLESS OTHERWISE SPECIFIED:
  7
SLDTEXTSTYLE0
 73
     1
 44
1.0
  0
MTEXT
  5
13E
330
1F
100
AcDbEntity
  8
SLD-0
 62
     7
100
AcDbMText
 10
198.8486489046
 20
16.3845592436
 30
0.0
 40
2.54
 41
0.0
 71
     1
 72
     1
  1
SCALE: 1:1
  7
SLDTEXTSTYLE0
 73
     1
 44
1.0
  0
MTEXT
  5
13F
330
1F
100
AcDbEntity
  8
SLD-0
 62
     7
100
AcDbMText
 10
217.7400309829
 20
16.2976289258
 30
0.0
 40
2.54
 41
0.0
 71
     1
 72
     1
  1
WEIGHT:
  7
SLDTEXTSTYLE0
 73
     1
 44
1.0
  0
MTEXT
  5
140
330
1F
100
AcDbEntity
  8
SLD-0
 62
     7
100
AcDbMText
 10
256.4849098979
 20
29.8431940239
 30
0.0
 40
2.54
 41
0.0
 71
     1
 72
     1
  1
REV
  7
SLDTEXTSTYLE0
 73
     1
 44
1.0
  0
MTEXT
  5
142
330
1F
100
AcDbEntity
  8
SLD-0
 62
     7
100
AcDbMText
 10
207.4806642798
 20
29.9424122749
 30
0.0
 40
2.54
 41
0.0
 71
     1
 72
     1
  1
DWG.  NO.
  7
SLDTEXTSTYLE3
 73
     1
 44
1.0
  0
MTEXT
  5
143
330
1F
100
AcDbEntity
  8
SLD-0
 62
     7
100
AcDbMText
 10
198.8800000853
 20
25.7741504908
 30
0.0
 40
6.35
 41
0.0
 71
     1
 72
     1
  1
A
  7
SLDTEXTSTYLE0
 73
     1
 44
1.0
  0
MTEXT
  5
144
330
1F
100
AcDbEntity
  8
SLD-0
 62
     7
100
AcDbMText
 10
198.679592027
 20
29.9779422779
 30
0.0
 40
2.54
 41
0.0
 71
     1
 72
     1
  1
SIZE
  7
SLDTEXTSTYLE0
 73
     1
 44
1.0
  0
MTEXT
  5
145
330
1F
100
AcDbEntity
  8
SLD-0
 62
     7
100
AcDbMText
 10
197.7934428097
 20
52.0128680946
 30
0.0
 40
2.54
 41
0.0
 71
     1
 72
     1
  1
TITLE:
  7
SLDTEXTSTYLE0
 73
     1
 44
1.0
  0
MTEXT
  5
146
330
1F
100
AcDbEntity
  8
SLD-0
 62
     7
100
AcDbMText
 10
175.4238425205
 20
60.675931708
 30
0.0
 40
1.651
 41
0.0
 71
     1
 72
     1
  1
NAME
  7
SLDTEXTSTYLE0
 73
     1
 44
1.0
  0
MTEXT
  5
147
330
1F
100
AcDbEntity
  8
SLD-0
 62
     7
100
AcDbMText
 10
187.9148912103
 20
60.6318318336
 30
0.0
 40
1.651
 41
0.0
 71
     1
 72
     1
  1
DATE
  7
SLDTEXTSTYLE0
 73
     1
 44
1.0
  0
MTEXT
  5
148
330
1F
100
AcDbEntity
  8
SLD-0
 62
     7
100
AcDbMText
 10
154.8838076531
 20
32.6616414598
 30
0.0
 40
1.651
 41
0.0
 71
     1
 72
     1
  1
COMMENTS:
  7
SLDTEXTSTYLE0
 73
     1
 44
1.0
  0
MTEXT
  5
149
330
1F
100
AcDbEntity
  8
SLD-0
 62
     7
100
AcDbMText
 10
154.8616193103
 20
36.8759803387
 30
0.0
 40
1.651
 41
0.0
 71
     1
 72
     1
  1
Q.A.
  7
SLDTEXTSTYLE0
 73
     1
 44
1.0
  0
MTEXT
  5
14A
330
1F
100
AcDbEntity
  8
SLD-0
 62
     7
100
AcDbMText
 10
154.9028766528
 20
41.598416269
 30
0.0
 40
1.651
 41
0.0
 71
     1
 72
     1
  1
MFG APPR.
  7
SLDTEXTSTYLE0
 73
     1
 44
1.0
  0
MTEXT
  5
14B
330
1F
100
AcDbEntity
  8
SLD-0
 62
     7
100
AcDbMText
 10
154.777189414
 20
46.3537366074
 30
0.0
 40
1.651
 41
0.0
 71
     1
 72
     1
  1
ENG APPR.
  7
SLDTEXTSTYLE0
 73
     1
 44
1.0
  0
MTEXT
  5
14C
330
1F
100
AcDbEntity
  8
SLD-0
 62
     7
100
AcDbMText
 10
154.8506782356
 20
50.9897377562
 30
0.0
 40
1.651
 41
0.0
 71
     1
 72
     1
  1
CHECKED
  7
SLDTEXTSTYLE0
 73
     1
 44
1.0
  0
MTEXT
  5
14D
330
1F
100
AcDbEntity
  8
SLD-0
 62
     7
100
AcDbMText
 10
154.796551863
 20
55.8756872033
 30
0.0
 40
1.651
 41
0.0
 71
     1
 72
     1
  1
DRAWN
  7
SLDTEXTSTYLE0
 73
     1
 44
1.0
  0
MTEXT
  5
14E
330
1F
100
AcDbEntity
  8
SLD-0
 62
     7
100
AcDbMText
 10
119.1497006873
 20
23.7101768196
 30
0.0
 40
1.524
 41
0.0
 71
     1
 72
     1
  1
FINISH
  7
SLDTEXTSTYLE0
 73
     1
 44
1.0
  0
MTEXT
  5
14F
330
1F
100
AcDbEntity
  8
SLD-0
 62
     7
100
AcDbMText
 10
119.0802054458
 20
30.524959321
 30
0.0
 40
1.524
 41
0.0
 71
     1
 72
     1
  1
MATERIAL
  7
SLDTEXTSTYLE0
 73
     1
 44
1.0
  0
MTEXT
  5
150
330
1F
100
AcDbEntity
  8
SLD-0
 62
     7
100
AcDbMText
 10
86.949610419
 20
15.7120180344
 30
0.0
 40
1.5875
 41
0.0
 71
     1
 72
     1
  1
APPLICATION
  7
SLDTEXTSTYLE0
 73
     1
 44
1.0
  0
MTEXT
  5
151
330
1F
100
AcDbEntity
  8
SLD-0
 62
     7
100
AcDbMText
 10
100.8540979063
 20
21.5600182208
 30
0.0
 40
1.5875
 41
0.0
 71
     1
 72
     1
  1
USED ON
  7
SLDTEXTSTYLE0
 73
     1
 44
1.0
  0
MTEXT
  5
152
330
1F
100
AcDbEntity
  8
SLD-0
 62
     7
100
AcDbMText
 10
75.5415038203
 20
21.5337051115
 30
0.0
 40
1.5875
 41
0.0
 71
     1
 72
     1
  1
NEXT ASSY
  7
SLDTEXTSTYLE0
 73
     1
 44
1.0
  0
MTEXT
  5
153
330
1F
100
AcDbEntity
  8
SLD-0
 62
     7
100
AcDbMText
 10
31.5295775012
 20
34.2548352688
 30
0.0
 40
1.524
 41
0.0
 71
     1
 72
     1
  1
PROPRIETARY AND CONFIDENTIAL
  7
SLDTEXTSTYLE0
 73
     1
 44
1.0
  0
MTEXT
  5
155
330
1F
100
AcDbEntity
  8
SLD-0
 62
     7
100
AcDbMText
 10
0.0
 20
9.8584389361
 30
0.0
 40
3.73507
 41
0.0
 71
     1
 72
     1
  1
SOLIDWORKS Educational Product.
  7
SLDTEXTSTYLE4
 73
     1
 44
1.0
  0
MTEXT
  5
156
330
1F
100
AcDbEntity
  8
SLD-0
 62
     7
100
AcDbMText
 10
0.0
 20
4.2558339361
 30
0.0
 40
3.73507
 41
0.0
 71
     1
 72
     1
  1
For Instructional Use Only.
  7
SLDTEXTSTYLE4
 73
     1
 44
1.0
  0
ENDSEC
  0
SECTION
  2
OBJECTS
  0
DICTIONARY
  5
C
330
0
100
AcDbDictionary
281
     1
  3
ACAD_GROUP
350
D
  3
ACAD_LAYOUT
350
1A
  3
ACAD_MLINESTYLE
350
17
  3
ACAD_PLOTSETTINGS
350
19
  3
ACAD_PLOTSTYLENAME
350
E
  3
ACAD_SCALELIST
350
47
  3
DWGPROPS
350
157
  0
DICTIONARY
  5
D
102
{ACAD_REACTORS
330
C
102
}
330
C
100
AcDbDictionary
281
     1
  0
DICTIONARY
  5
1A
102
{ACAD_REACTORS
330
C
102
}
330
C
100
AcDbDictionary
281
     1
  3
Layout1
350
1E
  3
Layout2
350
26
  3
Model
350
22
  0
DICTIONARY
  5
17
102
{ACAD_REACTORS
330
C
102
}
330
C
100
AcDbDictionary
281
     1
  3
Standard
350
18
  0
DICTIONARY
  5
19
102
{ACAD_REACTORS
330
C
102
}
330
C
100
AcDbDictionary
281
     1
  0
ACDBDICTIONARYWDFLT
  5
E
102
{ACAD_REACTORS
330
C
102
}
330
C
100
AcDbDictionary
281
     1
  3
Normal
350
F
100
AcDbDictionaryWithDefault
340
F
  0
DICTIONARY
  5
47
102
{ACAD_REACTORS
330
C
102
}
330
C
100
AcDbDictionary
281
     1
  3
A0
350
48
  3
A1
350
49
  3
A2
350
4A
  3
A3
350
4B
  3
A4
350
4C
  3
A5
350
4D
  3
A6
350
4E
  3
A7
350
4F
  3
A8
350
50
  3
A9
350
51
  3
B0
350
52
  3
B1
350
53
  3
B2
350
54
  3
B3
350
55
  3
B4
350
56
  3
B5
350
57
  3
B6
350
58
  0
XRECORD
  5
157
102
{ACAD_REACTORS
330
C
102
}
330
C
100
AcDbXrecord
280
     1
  1
DWGPROPS COOKIE
  2

  3

  4

  6

  7

  8
DELL
  9

300
=
301
=
302
=
303
=
304
=
305
=
306
=
307
=
308
=
309
=
 40
0.0
 41
2460455.229796783
 42
2460455.229797303
  1

 90
        0
  0
LAYOUT
  5
1E
102
{ACAD_REACTORS
330
1A
102
}
330
1A
100
AcDbPlotSettings
  1

  2
none_device
  4

  6

 40
0.0
 41
0.0
 42
0.0
 43
0.0
 44
0.0
 45
0.0
 46
0.0
 47
0.0
 48
0.0
 49
0.0
140
0.0
141
0.0
142
1.0
143
1.0
 70
   688
 72
     1
 73
     0
 74
     5
  7

 75
    16
147
1.0
148
0.0
149
0.0
100
AcDbLayout
  1
Layout1
 70
     1
 71
     1
 10
0.0
 20
0.0
 11
420.0
 21
297.0
 12
0.0
 22
0.0
 32
0.0
 14
1.0000000000E+20
 24
1.0000000000E+20
 34
1.0000000000E+20
 15
-1.0000000000E+20
 25
-1.0000000000E+20
 35
-1.0000000000E+20
146
0.0
 13
0.0
 23
0.0
 33
0.0
 16
1.0
 26
0.0
 36
0.0
 17
0.0
 27
1.0
 37
0.0
 76
     0
330
1B
  0
LAYOUT
  5
26
102
{ACAD_REACTORS
330
1A
102
}
330
1A
100
AcDbPlotSettings
  1

  2
none_device
  4

  6

 40
0.0
 41
0.0
 42
0.0
 43
0.0
 44
0.0
 45
0.0
 46
0.0
 47
0.0
 48
0.0
 49
0.0
140
0.0
141
0.0
142
1.0
143
1.0
 70
   688
 72
     1
 73
     0
 74
     5
  7

 75
    16
147
1.0
148
0.0
149
0.0
100
AcDbLayout
  1
Layout2
 70
     1
 71
     2
 10
0.0
 20
0.0
 11
0.0
 21
0.0
 12
0.0
 22
0.0
 32
0.0
 14
0.0
 24
0.0
 34
0.0
 15
0.0
 25
0.0
 35
0.0
146
0.0
 13
0.0
 23
0.0
 33
0.0
 16
1.0
 26
0.0
 36
0.0
 17
0.0
 27
1.0
 37
0.0
 76
     0
330
23
  0
LAYOUT
  5
22
102
{ACAD_REACTORS
330
1A
102
}
330
1A
100
AcDbPlotSettings
  1

  2
none_device
  4
Letter_(8.50_x_11.00_Inches)
  6

 40
6.35
 41
6.35
 42
6.35000508
 43
6.35000508
 44
215.9
 45
279.4
 46
0.0
 47
0.0
 48
0.0
 49
0.0
140
0.0
141
0.0
142
1.0
143
1.0
 70
  1712
 72
     1
 73
     0
 74
     0
  7

 75
     0
147
1.0
148
0.0
149
0.0
100
AcDbLayout
  1
Model
 70
     1
 71
     0
 10
0.0
 20
0.0
 11
420.0
 21
297.0
 12
0.0
 22
0.0
 32
0.0
 14
0.0
 24
0.0
 34
0.0
 15
420.0
 25
297.0
 35
0.0
146
0.0
 13
0.0
 23
0.0
 33
0.0
 16
1.0
 26
0.0
 36
0.0
 17
0.0
 27
1.0
 37
0.0
 76
     0
330
1F
331
29
  0
MLINESTYLE
  5
18
102
{ACAD_REACTORS
330
17
102
}
330
17
100
AcDbMlineStyle
  2
Standard
 70
     0
  3

 62
   256
 51
90.0
 52
90.0
 71
     2
 49
0.5
 62
   256
  6
BYLAYER
 49
-0.5
 62
   256
  6
BYLAYER
  0
ACDBPLACEHOLDER
  5
F
102
{ACAD_REACTORS
330
E
102
}
330
E
  0
SCALE
  5
48
102
{ACAD_REACTORS
330
47
102
}
330
47
100
AcDbScale
 70
     0
300
1:1
140
1.0
141
1.0
290
     1
  0
SCALE
  5
49
102
{ACAD_REACTORS
330
47
102
}
330
47
100
AcDbScale
 70
     0
300
1:2
140
1.0
141
2.0
290
     0
  0
SCALE
  5
4A
102
{ACAD_REACTORS
330
47
102
}
330
47
100
AcDbScale
 70
     0
300
1:4
140
1.0
141
4.0
290
     0
  0
SCALE
  5
4B
102
{ACAD_REACTORS
330
47
102
}
330
47
100
AcDbScale
 70
     0
300
1:5
140
1.0
141
5.0
290
     0
  0
SCALE
  5
4C
102
{ACAD_REACTORS
330
47
102
}
330
47
100
AcDbScale
 70
     0
300
1:8
140
1.0
141
8.0
290
     0
  0
SCALE
  5
4D
102
{ACAD_REACTORS
330
47
102
}
330
47
100
AcDbScale
 70
     0
300
1:10
140
1.0
141
10.0
290
     0
  0
SCALE
  5
4E
102
{ACAD_REACTORS
330
47
102
}
330
47
100
AcDbScale
 70
     0
300
1:16
140
1.0
141
16.0
290
     0
  0
SCALE
  5
4F
102
{ACAD_REACTORS
330
47
102
}
330
47
100
AcDbScale
 70
     0
300
1:20
140
1.0
141
20.0
290
     0
  0
SCALE
  5
50
102
{ACAD_REACTORS
330
47
102
}
330
47
100
AcDbScale
 70
     0
300
1:30
140
1.0
141
30.0
290
     0
  0
SCALE
  5
51
102
{ACAD_REACTORS
330
47
102
}
330
47
100
AcDbScale
 70
     0
300
1:40
140
1.0
141
40.0
290
     0
  0
SCALE
  5
52
102
{ACAD_REACTORS
330
47
102
}
330
47
100
AcDbScale
 70
     0
300
1:50
140
1.0
141
50.0
290
     0
  0
SCALE
  5
53
102
{ACAD_REACTORS
330
47
102
}
330
47
100
AcDbScale
 70
     0
300
1:100
140
1.0
141
100.0
290
     0
  0
SCALE
  5
54
102
{ACAD_REACTORS
330
47
102
}
330
47
100
AcDbScale
 70
     0
300
2:1
140
2.0
141
1.0
290
     0
  0
SCALE
  5
55
102
{ACAD_REACTORS
330
47
102
}
330
47
100
AcDbScale
 70
     0
300
4:1
140
4.0
141
1.0
290
     0
  0
SCALE
  5
56
102
{ACAD_REACTORS
330
47
102
}
330
47
100
AcDbScale
 70
     0
300
8:1
140
8.0
141
1.0
290
     0
  0
SCALE
  5
57
102
{ACAD_REACTORS
330
47
102
}
330
47
100
AcDbScale
 70
     0
300
10:1
140
10.0
141
1.0
290
     0
  0
SCALE
  5
58
102
{ACAD_REACTORS
330
47
102
}
330
47
100
AcDbScale
 70
     0
300
100:1
140
100.0
141
1.0
290
     0
  0
ENDSEC
  0
EOF
